<?xml version="1.0" standalone="no"?>
<!DOCTYPE svg PUBLIC "-//W3C//DTD SVG 1.1//EN" "http://www.w3.org/Graphics/SVG/1.1/DTD/svg11.dtd" >
<svg xmlns="http://www.w3.org/2000/svg" xmlns:xlink="http://www.w3.org/1999/xlink" version="1.1">
<metadata></metadata>
<defs>
<font id="sj_sansregular" horiz-adv-x="1243" >
<font-face units-per-em="2048" ascent="1587" descent="-461" />
<missing-glyph horiz-adv-x="491" />
<glyph horiz-adv-x="0" />
<glyph horiz-adv-x="0" />
<glyph horiz-adv-x="682" />
<glyph unicode="&#xd;" horiz-adv-x="491" />
<glyph unicode=" "  horiz-adv-x="491" />
<glyph unicode="&#x09;" horiz-adv-x="491" />
<glyph unicode="&#xa0;" horiz-adv-x="491" />
<glyph unicode="!" horiz-adv-x="606" d="M178 96q0 52 36 87.5t89 35.5t89 -35.5t36 -87.5t-36 -87.5t-89 -35.5t-89 35.5t-36 87.5zM209 1540h188l-6 -471l-26 -620h-123l-29 620z" />
<glyph unicode="&#x22;" horiz-adv-x="827" d="M168 1448q0 55 24.5 92t67.5 37t67.5 -37t24.5 -92q0 -24 -4.5 -61.5t-12 -78.5t-14 -74.5t-13 -65.5t-7.5 -35h-84q-49 235 -49 315zM475 1448q0 55 24.5 92t67.5 37t67.5 -37t24.5 -92q0 -24 -4.5 -61.5t-12 -78.5t-14 -74.5t-13 -65.5t-7.5 -35h-84q-49 235 -49 315z " />
<glyph unicode="#" horiz-adv-x="1214" d="M74 463v133h215l45 371h-213v133h229l60 469h133l-60 -469h334l60 469h133l-60 -469h201v-133h-217l-45 -371h215v-133h-232l-57 -463h-133l57 463h-333l-58 -463h-133l57 463h-198zM422 596h334l45 371h-334z" />
<glyph unicode="$" horiz-adv-x="1200" d="M111 401l137 72q74 -225 276 -262l29 532q-45 24 -72.5 39t-68.5 41t-66 47t-54 52.5t-45 63t-27 72t-11 85.5q0 157 108.5 249.5t274.5 100.5l12 221h125l-12 -227q230 -38 330 -262l-134 -62q-58 138 -204 168l-23 -471q62 -29 104 -52t91 -54t80.5 -62.5t59.5 -70.5 t41 -86t13 -101q0 -170 -119 -273t-313 -114l-12 -258h-127l12 262q-81 11 -146.5 41t-113.5 78t-82.5 104t-62.5 127zM371 1143q0 -70 44 -118.5t146 -102.5l23 417q-104 -9 -158.5 -63t-54.5 -133zM651 203q120 8 193.5 65.5t73.5 157.5q0 79 -57 134.5t-185 121.5z" />
<glyph unicode="%" horiz-adv-x="1943" d="M74 1155q0 88 23 159.5t61 118t89 78t104.5 45t109.5 13.5t108.5 -13.5t103.5 -45t89 -78t61 -118t23 -159.5q0 -89 -23.5 -160.5t-61.5 -117.5t-89 -77t-103.5 -44t-107.5 -13q-56 0 -109 13t-104 44t-89 77t-61.5 117.5t-23.5 160.5zM205 1153q0 -77 22 -134t60 -87.5 t81.5 -45t92.5 -14.5t91.5 14.5t80.5 45t60 87.5t22 134q0 76 -22 134t-60 90t-81 47.5t-91 15.5q-49 0 -92.5 -15.5t-81 -47.5t-60 -89.5t-22.5 -134.5zM489 -35l826 1612h137l-825 -1612h-138zM1100 385q0 88 23 159.5t61 118t89 78t104.5 45t109.5 13.5t108.5 -13.5 t103.5 -45t89 -78t61 -118t23 -159.5q0 -89 -23.5 -160.5t-61.5 -117.5t-89 -77t-103.5 -44t-107.5 -13q-56 0 -109 13t-104 44t-89 77t-61.5 117.5t-23.5 160.5zM1231 383q0 -77 22 -134t60 -87.5t81.5 -45t92.5 -14.5t91.5 14.5t80.5 45t60 87.5t22 134q0 76 -22 134 t-60 90t-81 47.5t-91 15.5q-49 0 -92.5 -15.5t-81 -47.5t-60 -89.5t-22.5 -134.5z" />
<glyph unicode="&#x26;" horiz-adv-x="1253" d="M68 406q0 136 72.5 241t215.5 191q-96 123 -137 211t-41 178q0 153 102 247.5t273 94.5q167 0 264.5 -92.5t97.5 -249.5q0 -123 -73 -221.5t-252 -206.5l375 -463q105 150 129 278l118 -53q-9 -82 -51.5 -172.5t-105.5 -165.5l178 -223h-203l-90 109q-201 -136 -401 -136 q-208 0 -339.5 119.5t-131.5 313.5zM221 410q0 -129 91 -206t241 -77q148 0 291 98l-393 492q-44 -27 -68.5 -44t-60 -47.5t-54 -58.5t-33 -69t-14.5 -88zM330 1227q0 -62 35.5 -125.5t130.5 -183.5q150 97 207 161t57 148q0 88 -53.5 138t-155.5 50q-101 0 -161 -49 t-60 -139z" />
<glyph unicode="'" horiz-adv-x="520" d="M168 1448q0 55 24.5 92t67.5 37t67.5 -37t24.5 -92q0 -24 -4.5 -61.5t-12 -78.5t-14 -74.5t-13 -65.5t-7.5 -35h-84q-49 235 -49 315z" />
<glyph unicode="(" horiz-adv-x="700" d="M172 766q0 547 358 1059l111 -58q-309 -470 -309 -1001q0 -532 309 -1002l-111 -59q-358 506 -358 1061z" />
<glyph unicode=")" horiz-adv-x="720" d="M80 -236q309 470 309 1002q0 531 -309 1001l110 58q359 -513 359 -1059q0 -554 -359 -1061z" />
<glyph unicode="*" horiz-adv-x="927" d="M123 1257l29 89l237 -64l25 258h100l18 -252l242 58l31 -89l-230 -96l130 -219l-76 -57l-166 202l-166 -202l-82 57l135 219z" />
<glyph unicode="+" horiz-adv-x="931" d="M72 586v166h309v309h170v-309h309v-166h-309v-310h-170v310h-309zM72 586v166h309v309h170v-309h309v-166h-309v-310h-170v310h-309z" />
<glyph unicode="," horiz-adv-x="522" d="M123 -152q46 12 85.5 44.5t61.5 80.5q-56 3 -91.5 39.5t-35.5 85.5q0 52 36.5 86.5t88.5 34.5q49 0 86 -34.5t37 -96.5q0 -55 -29.5 -115t-92.5 -114.5t-146 -77.5v67z" />
<glyph unicode="-" horiz-adv-x="751" d="M86 582v166h580v-166h-580z" />
<glyph unicode="." horiz-adv-x="520" d="M135 96q0 52 36 87.5t89 35.5t89 -35.5t36 -87.5t-36 -87.5t-89 -35.5t-89 35.5t-36 87.5z" />
<glyph unicode="/" horiz-adv-x="851" d="M20 -127l652 1794h151l-649 -1794h-154z" />
<glyph unicode="0" horiz-adv-x="1255" d="M117 754q0 132 16 242t44 189t67.5 140.5t83.5 100.5t96.5 63.5t102 34.5t102.5 10t102 -10t101 -34.5t96 -63.5t83.5 -100.5t67.5 -140.5t44 -189t16 -242q0 -183 -31 -323.5t-80.5 -225.5t-118.5 -139t-136.5 -73.5t-143.5 -19.5q-77 0 -144.5 19.5t-137 73.5t-119 139 t-80.5 225.5t-31 323.5zM289 754q0 -151 20 -264t52 -179t78 -106.5t91 -54t99 -13.5t98 13.5t90.5 54t78 106.5t51.5 179t20 264t-20 264t-51.5 179t-78 106t-90.5 53.5t-98 13.5t-99 -13.5t-91 -53.5t-78 -106t-52 -179t-20 -264z" />
<glyph unicode="1" horiz-adv-x="860" d="M106 1087v164q57 10 103 37.5t75 66.5t46 71.5t28 68.5h162v-1337h230v-158h-623v158h231v1026q-96 -68 -252 -97z" />
<glyph unicode="2" horiz-adv-x="1146" d="M78 0v147q0 53 5 96.5t19 82.5t28 68.5t43.5 61.5t53 54t69 53.5t79.5 53t96 59.5q46 28 61 37t55.5 34.5t55.5 37t47.5 35.5t46 38.5t36.5 38.5t32.5 43l22 44t16.5 50.5t4 52.5q0 122 -88 202.5t-225 80.5q-115 0 -196.5 -58.5t-115.5 -152.5l-143 66q62 138 177 223.5 t278 85.5q73 0 142.5 -18t132 -55.5t109 -90t74 -127t27.5 -160.5q0 -37 -4.5 -70.5t-16.5 -65t-23.5 -57.5t-34.5 -54.5t-40.5 -49.5t-51.5 -49t-56.5 -46t-66 -48t-70 -47t-78.5 -51q-87 -56 -130 -86t-88.5 -68t-64.5 -68t-32 -68t-15 -87h778v-168h-948z" />
<glyph unicode="3" horiz-adv-x="1140" d="M55 279l142 69q46 -95 132.5 -153t207.5 -58q146 0 235.5 79.5t89.5 201.5q0 127 -96.5 210t-249.5 83h-102v153h75q144 0 238 73.5t94 186.5q0 105 -81.5 175.5t-209.5 70.5q-117 0 -195.5 -58.5t-115.5 -150.5l-143 66q70 142 189 224.5t272 82.5q120 0 223.5 -48.5 t168 -141t64.5 -209.5q0 -216 -233 -340q274 -132 274 -385q0 -129 -70.5 -230t-183.5 -154t-245 -53q-163 0 -287 83t-193 223z" />
<glyph unicode="4" horiz-adv-x="1208" d="M72 350v113l669 1032h213v-993h185v-152h-185v-350h-161v350h-721zM260 502h533v811z" />
<glyph unicode="5" horiz-adv-x="1130" d="M51 281l142 67q39 -93 122 -152t197 -59q153 0 249.5 99.5t96.5 252.5t-97 251t-253 98q-88 0 -161 -31.5t-120 -85.5l-129 24l133 750h717v-168h-598l-67 -389q126 63 247 63q91 0 179.5 -36t160.5 -100.5t116 -164t44 -215.5q0 -150 -73 -269t-189 -181t-250 -62 q-157 0 -279.5 86t-187.5 222z" />
<glyph unicode="6" horiz-adv-x="1284" d="M127 666q0 249 78.5 444.5t232.5 309.5t361 114q150 0 274 -53l-76 -142q-98 31 -194 31q-198 0 -332.5 -155t-187.5 -439q172 203 395 203q132 0 245 -66.5t179.5 -182t66.5 -253.5q0 -212 -149 -358t-369 -146q-109 0 -201 40t-165.5 121t-115.5 217t-42 315zM315 485 q0 -149 97.5 -248.5t240.5 -99.5q144 0 244 100t100 240t-102 240t-252 100q-146 0 -237 -94.5t-91 -237.5z" />
<glyph unicode="7" horiz-adv-x="1150" d="M92 1331v164h971v-149q-34 -38 -69.5 -82t-94 -124.5t-109.5 -162t-106.5 -191.5t-95 -216.5t-65 -232t-25.5 -243.5q0 -48 6 -94h-180q-9 50 -9 98q0 145 36 298t93 283t133 256.5t149 221.5t148 174h-782z" />
<glyph unicode="8" d="M117 418q0 147 83.5 251t223.5 152q-87 38 -154 126.5t-67 211.5q0 164 122.5 269.5t297.5 105.5q113 0 207.5 -46t152 -133.5t57.5 -199.5q0 -124 -66 -211t-161 -123q145 -49 229 -153t84 -250q0 -130 -66.5 -232.5t-181.5 -157.5t-257 -55q-216 0 -360 124.5 t-144 320.5zM289 428q0 -132 95 -211.5t239 -79.5q143 0 237 79.5t94 211.5q0 131 -93 219t-240 88t-239.5 -88t-92.5 -219zM365 1147q0 -93 68.5 -162.5t189.5 -69.5q120 0 188 70t68 162q0 97 -74 164t-182 67q-110 0 -184 -67t-74 -164z" />
<glyph unicode="9" horiz-adv-x="1284" d="M115 1032q0 209 149.5 355.5t368.5 146.5q86 0 162.5 -24.5t143.5 -78t115 -133t75.5 -196t27.5 -260.5q0 -249 -78.5 -444.5t-232.5 -310t-361 -114.5q-147 0 -274 54l76 141q98 -31 194 -31q196 0 328.5 159t183.5 452q-172 -203 -395 -203q-130 0 -241 64.5 t-176.5 177t-65.5 245.5zM287 1034q0 -137 99.5 -232t248.5 -95q147 0 240.5 93t93.5 232q0 142 -97.5 240t-238.5 98q-144 0 -245 -99.5t-101 -236.5z" />
<glyph unicode=":" horiz-adv-x="520" d="M135 96q0 52 36 87.5t89 35.5t89 -35.5t36 -87.5t-36 -87.5t-89 -35.5t-89 35.5t-36 87.5zM135 895q0 52 36 87.5t89 35.5t89 -35.5t36 -87.5t-36 -87.5t-89 -35.5t-89 35.5t-36 87.5z" />
<glyph unicode=";" horiz-adv-x="522" d="M123 -152q46 12 85.5 44.5t61.5 80.5q-56 3 -91.5 39.5t-35.5 85.5q0 52 36.5 86.5t88.5 34.5q49 0 86 -34.5t37 -96.5q0 -55 -29.5 -115t-92.5 -114.5t-146 -77.5v67zM141 895q0 52 36 87.5t89 35.5t89 -35.5t36 -87.5t-36 -87.5t-89 -35.5t-89 35.5t-36 87.5z" />
<glyph unicode="&#x3c;" horiz-adv-x="931" d="M72 584v170l788 303v-162l-600 -227l600 -224v-163z" />
<glyph unicode="=" horiz-adv-x="931" d="M72 379v166h788v-166h-788zM72 793v165h788v-165h-788z" />
<glyph unicode="&#x3e;" horiz-adv-x="931" d="M72 281v163l600 224l-600 227v162l788 -303v-170z" />
<glyph unicode="?" horiz-adv-x="1097" d="M80 1126q0 84 33.5 163.5t93 141.5t148 100t190.5 38q86 0 161 -27.5t127.5 -73t90 -104t55.5 -121t18 -123.5q0 -103 -55 -185.5t-172 -158.5l-47 -31q-39 -26 -56.5 -38t-43 -35t-35.5 -43t-18.5 -50t-8.5 -67v-53h-155v110q0 66 20.5 112t51 75t100.5 80l61 45 q106 78 144 124.5t38 116.5q0 116 -85 196.5t-197 80.5q-114 0 -203.5 -80.5t-89.5 -188.5q0 -20 4 -36l-164 -27q-6 30 -6 59zM358 96q0 52 36 87.5t89 35.5t89 -35.5t36 -87.5t-36 -87.5t-89 -35.5t-89 35.5t-36 87.5z" />
<glyph unicode="@" horiz-adv-x="1742" d="M104 315q0 188 69.5 351.5t187 276.5t276.5 178t334 65q301 0 483 -181t182 -477q0 -130 -37 -236.5t-97.5 -172.5t-132.5 -101.5t-146 -35.5q-73 0 -127.5 35t-75.5 100q-141 -144 -281 -144q-117 0 -194.5 88t-77.5 244q0 131 53.5 258.5t155.5 214t225 86.5 q125 0 197 -104l26 84h123l-92 -488q-10 -58 -10 -104q0 -160 106 -160q96 0 181.5 119.5t85.5 310.5q0 245 -148.5 401t-402.5 156q-147 0 -281.5 -56.5t-235 -154.5t-160 -240t-59.5 -304q0 -143 47 -262.5t128 -199t192 -123.5t238 -44q188 0 342 94l43 -98 q-181 -105 -398 -105q-148 0 -278 49.5t-228.5 140t-155.5 230t-57 309.5zM614 313q0 -109 46 -164t114 -55q96 0 217 142l66 397q-36 59 -70 83.5t-82 24.5q-84 0 -153 -68.5t-103.5 -165.5t-34.5 -194z" />
<glyph unicode="A" d="M0 0l524 1540h197l522 -1540h-182l-135 408h-619l-133 -408h-174zM358 567h516l-260 785z" />
<glyph unicode="B" horiz-adv-x="1359" d="M182 0v1540h578q194 0 314 -99.5t120 -281.5q0 -223 -193 -344q279 -99 279 -381q0 -137 -65.5 -237t-171 -148.5t-236.5 -48.5h-625zM352 166h443q152 0 229.5 76t77.5 211q0 137 -82.5 203.5t-265.5 66.5h-402v-557zM352 881h338q164 0 248 63.5t84 188.5 q0 118 -75 179.5t-220 61.5h-375v-493z" />
<glyph unicode="C" horiz-adv-x="1591" d="M102 768q0 126 33 245t98.5 219.5t155.5 176t211.5 118t259.5 42.5q228 0 404 -110.5t258 -301.5l-152 -76q-55 162 -193 247t-317 85q-143 0 -256 -53t-182.5 -143.5t-105 -204.5t-35.5 -244q0 -99 20.5 -191t65.5 -174t110.5 -142.5t161.5 -96t213 -35.5q200 0 336 97 t188 255l152 -71q-82 -196 -262.5 -316.5t-417.5 -120.5q-171 0 -313.5 66t-236 176.5t-145 253.5t-51.5 299z" />
<glyph unicode="D" horiz-adv-x="1503" d="M182 0v1540h441q167 0 299.5 -41.5t220 -113t146 -172t83.5 -212t25 -239.5q0 -122 -22.5 -228t-78.5 -206t-142 -171t-222.5 -114t-310.5 -43h-439zM352 166h252q151 0 264 35t178.5 89.5t105.5 135.5t53.5 159.5t13.5 174.5q0 106 -15.5 191.5t-57.5 166.5 t-109.5 135.5t-177 87.5t-255.5 33h-252v-1208z" />
<glyph unicode="E" horiz-adv-x="1214" d="M182 0v1540h934v-166h-764v-500h682v-165h-682v-543h764v-166h-934z" />
<glyph unicode="F" horiz-adv-x="1163" d="M182 0v1540h934v-166h-764v-500h662v-165h-662v-709h-170z" />
<glyph unicode="G" horiz-adv-x="1642" d="M102 770q0 158 52 302t146 255t238 176.5t316 65.5q212 0 378.5 -94.5t246.5 -257.5l-148 -82q-52 135 -180.5 206.5t-294.5 71.5q-116 0 -212.5 -34.5t-162.5 -94.5t-112 -142.5t-67 -175.5t-21 -196t21 -196.5t65 -175t107.5 -141.5t153.5 -94t197 -34q172 0 304 82 t210 207v213h-413v166h583v-797h-131l-22 188q-256 -215 -535 -215q-161 0 -298 66t-228 176.5t-142 254.5t-51 300z" />
<glyph unicode="H" horiz-adv-x="1466" d="M182 0v1540h170v-666h760v666h170v-1540h-170v709h-760v-709h-170z" />
<glyph unicode="I" horiz-adv-x="534" d="M182 0v1540h170v-1540h-170z" />
<glyph unicode="J" horiz-adv-x="1132" d="M84 283l152 67q14 -38 34 -72t53 -70t84 -57.5t113 -21.5q126 0 196 82.5t70 214.5v1114h170v-1100q0 -65 -13 -127.5t-45.5 -125t-80.5 -109.5t-123.5 -76t-169.5 -29q-79 0 -147.5 21t-115 53.5t-84 75.5t-58.5 81.5t-35 78.5z" />
<glyph unicode="K" horiz-adv-x="1249" d="M182 0v1540h170v-725l633 725h211l-645 -737l694 -803h-213l-680 782v-782h-170z" />
<glyph unicode="L" horiz-adv-x="1124" d="M182 0v1540h170v-1374h723v-166h-893z" />
<glyph unicode="M" horiz-adv-x="1824" d="M182 0v1540h246l483 -1298l486 1298h245v-1540h-169v1290l-488 -1290h-145l-488 1290v-1290h-170z" />
<glyph unicode="N" horiz-adv-x="1464" d="M182 0v1540h201l729 -1272v1272h170v-1540h-205l-725 1268v-1268h-170z" />
<glyph unicode="O" horiz-adv-x="1712" d="M102 766q0 159 54 304.5t150 256t239.5 176.5t310.5 66q168 0 311.5 -66t239 -176.5t149.5 -256t54 -304.5q0 -124 -31.5 -240t-95.5 -216.5t-152.5 -175.5t-211 -118t-263.5 -43t-263 43t-211 118t-153 175.5t-95.5 217t-31.5 239.5zM281 766q0 -98 20 -189t65 -173 t110.5 -142.5t162.5 -96.5t215 -36q120 0 218 36t164 97t111 143t65 172.5t20 188.5q0 103 -22 197t-68.5 176.5t-113.5 143t-163 95.5t-211 35q-113 0 -208 -34.5t-161.5 -95t-113 -143t-68.5 -177t-22 -197.5z" />
<glyph unicode="P" horiz-adv-x="1271" d="M182 0v1540h535q206 0 337.5 -118.5t131.5 -321.5q0 -104 -38 -188.5t-103 -137.5t-149 -81.5t-179 -28.5h-365v-664h-170zM352 829h346q141 0 225.5 72t84.5 195q0 122 -81.5 200t-228.5 78h-346v-545z" />
<glyph unicode="Q" horiz-adv-x="1712" d="M102 766q0 159 54 304.5t150 256t239.5 176.5t310.5 66q168 0 311.5 -66t239 -176.5t149.5 -256t54 -304.5q0 -184 -70.5 -349t-200.5 -276l177 -254l-136 -96l-180 258q-158 -76 -344 -76q-141 0 -263 43t-211 118t-153 175.5t-95.5 217t-31.5 239.5zM281 766 q0 -98 20 -188.5t65 -173t110.5 -143t163 -96.5t216.5 -36q141 0 252 49l-160 228l139 94l160 -228q93 89 139 218.5t46 275.5q0 129 -36 244t-105.5 206t-181.5 144t-253 53t-253 -53t-181 -143.5t-105 -205.5t-36 -245z" />
<glyph unicode="R" horiz-adv-x="1343" d="M182 0v1540h539q94 0 177 -27t147.5 -78t102.5 -133t38 -184q0 -185 -115.5 -299t-302.5 -137l504 -682h-209l-485 682h-226v-682h-170zM352 848h350q143 0 226 74q80 72 80 186v8q-3 116 -86 187t-220 71h-350v-526z" />
<glyph unicode="S" horiz-adv-x="1222" d="M84 362l154 80q20 -65 47.5 -116t73 -98t116.5 -73t164 -26q150 0 241 67.5t91 192.5q0 33 -9.5 62t-21.5 51.5t-41.5 48t-52 43t-71.5 44.5t-81 43.5t-98 49.5q-47 23 -73.5 37t-70 38.5t-69.5 44.5t-60 48t-54 57t-39.5 64t-28 76t-8.5 86q0 120 63 209.5t165.5 133.5 t229.5 44q92 0 169.5 -24.5t133 -67.5t94.5 -93t66 -110l-147 -70q-83 209 -322 209q-135 0 -205.5 -64.5t-70.5 -166.5q0 -35 8.5 -64t31.5 -56t47 -47.5t71.5 -48t88.5 -48t113 -54.5q81 -39 133 -68t111.5 -72.5t93.5 -87t57 -104.5t23 -133q0 -196 -144.5 -311 t-373.5 -115q-111 0 -201 29t-154.5 83.5t-110 122t-79.5 154.5z" />
<glyph unicode="T" horiz-adv-x="1185" d="M51 1374v166h1084v-166h-457v-1374h-170v1374h-457z" />
<glyph unicode="U" horiz-adv-x="1452" d="M176 520v1020h170v-991q0 -75 19 -144.5t60 -133.5t118.5 -103t181.5 -39q84 0 151 26t109 67.5t70 97.5t39.5 112.5t11.5 116.5v991h170v-1020q0 -80 -20.5 -157.5t-65 -148.5t-107.5 -124t-155.5 -85t-202.5 -32t-202.5 32t-155.5 86t-107 125t-64 148t-20 156z" />
<glyph unicode="V" horiz-adv-x="1196" d="M-4 1540h178l426 -1313l430 1313h170l-504 -1540h-196z" />
<glyph unicode="W" horiz-adv-x="2050" d="M41 1540h178l383 -1313l340 1313h182l324 -1313l389 1313h170l-463 -1540h-196l-326 1245l-324 -1245h-196z" />
<glyph unicode="X" horiz-adv-x="1255" d="M29 0l506 795l-467 745h200l373 -594l371 594h180l-461 -743l500 -797h-199l-405 649l-412 -649h-186z" />
<glyph unicode="Y" horiz-adv-x="1134" d="M-8 1540h196l400 -733l375 733h178l-471 -915v-625h-170v625z" />
<glyph unicode="Z" horiz-adv-x="1312" d="M88 0v178l920 1196h-891v166h1093v-186l-917 -1188h936v-166h-1141z" />
<glyph unicode="[" horiz-adv-x="696" d="M199 -242v2014h430v-123h-273v-1768h273v-123h-430z" />
<glyph unicode="\" horiz-adv-x="854" d="M31 1667h151l652 -1794h-154z" />
<glyph unicode="]" horiz-adv-x="696" d="M68 -119h272v1768h-272v123h430v-2014h-430v123z" />
<glyph unicode="^" horiz-adv-x="1187" d="M125 678l387 883h164l387 -883h-168l-297 723l-303 -723h-170z" />
<glyph unicode="_" horiz-adv-x="1353" d="M86 -141h1182v-170h-1182v170z" />
<glyph unicode="`" horiz-adv-x="1181" d="M336 1563h201l213 -289h-132z" />
<glyph unicode="a" horiz-adv-x="1175" d="M123 281q0 65 23 120.5t73 105t138.5 86.5t211.5 56l170 29q70 12 95.5 39t25.5 82q0 84 -53 131t-184 47q-112 0 -187.5 -37t-128.5 -115l-131 90q145 220 459 220q87 0 154.5 -19t121.5 -63t82.5 -122.5t28.5 -189.5v-741h-131l-27 141q-179 -168 -387 -168 q-154 0 -254 81t-100 227zM293 289q0 -80 55.5 -125t153.5 -45q88 0 171.5 37.5t135 100t51.5 130.5v205q-61 -33 -131 -45l-176 -35q-260 -52 -260 -223z" />
<glyph unicode="b" horiz-adv-x="1349" d="M172 0v1563h162v-586q108 92 194 125t172 33q160 0 286.5 -77.5t194.5 -208t68 -286.5q0 -114 -37.5 -220t-105 -188.5t-169 -132t-220.5 -49.5q-206 0 -387 164l-23 -137h-135zM334 393q0 -97 105 -179.5t259 -82.5q97 0 172.5 37t121 99.5t68.5 138.5t23 159 q0 85 -24.5 158.5t-70.5 130.5t-120.5 90t-167.5 33q-154 0 -260 -77.5t-106 -160.5v-346z" />
<glyph unicode="c" horiz-adv-x="1181" d="M96 551q0 116 39 221.5t109.5 186.5t177.5 128.5t235 47.5q151 0 270.5 -66.5t186.5 -187.5l-141 -72q-46 79 -130 123.5t-192 44.5q-126 0 -216 -60.5t-131.5 -155t-41.5 -210.5q0 -82 22.5 -155t67.5 -133.5t121 -96t174 -35.5q123 0 210 54t128 147l148 -70 q-72 -134 -196.5 -211.5t-289.5 -77.5q-168 0 -295.5 81.5t-191.5 211.5t-64 285z" />
<glyph unicode="d" horiz-adv-x="1347" d="M98 551q0 157 68 289.5t195 213.5t286 81q86 0 172.5 -33t194.5 -125v586h162v-1563h-136l-22 137q-181 -164 -387 -164q-159 0 -282.5 82t-187 212.5t-63.5 283.5zM264 553q0 -83 23 -157t68 -134t120.5 -95.5t171.5 -35.5q156 0 261.5 82.5t105.5 179.5v346 q0 82 -107 160t-258 78q-94 0 -168.5 -34.5t-121 -94t-71 -135t-24.5 -160.5z" />
<glyph unicode="e" d="M96 543q0 118 42 226.5t114.5 189t176 128.5t218.5 48t213 -48t163.5 -128.5t102.5 -186.5t37 -223v-29h-899q7 -60 24.5 -114.5t49 -105.5t74.5 -88t105 -59t136 -22q115 0 200 50t134 138l148 -63q-67 -133 -192.5 -208t-291.5 -75q-129 0 -236 47.5t-175.5 127.5 t-106 182t-37.5 213zM272 659h723q-20 135 -117 226.5t-241 91.5q-139 0 -233.5 -88t-131.5 -230z" />
<glyph unicode="f" horiz-adv-x="645" d="M63 963v149h158v80q0 195 87.5 290t273.5 95h30v-158h-28q-62 0 -103 -17t-61.5 -51t-28.5 -73.5t-8 -95.5v-70h209v-149h-209v-963h-162v963h-158z" />
<glyph unicode="g" horiz-adv-x="1345" d="M121 567q0 109 37 211.5t102.5 181.5t164.5 127t214 48q207 0 389 -172l23 149h135v-1100q0 -98 -26.5 -178.5t-74 -136.5t-112.5 -94t-140.5 -56t-160.5 -18q-176 0 -304 76.5t-206 214.5l145 69q42 -91 134 -146.5t227 -55.5q179 0 267.5 96.5t88.5 243.5v166 q-156 -179 -377 -179q-149 0 -270.5 74.5t-188.5 201t-67 277.5zM287 563q0 -110 40 -197t125 -140.5t203 -53.5q105 0 192.5 42.5t132 101t44.5 114.5v277q0 100 -106 185t-261 85q-93 0 -166 -35.5t-116.5 -95t-65.5 -132t-22 -151.5z" />
<glyph unicode="h" horiz-adv-x="1265" d="M172 0v1563h162v-590q102 91 190 126.5t178 35.5q86 0 158.5 -27.5t129.5 -82t89.5 -144t32.5 -205.5v-676h-162v664q0 66 -15.5 121t-47 99t-84.5 68.5t-123 24.5q-135 0 -240.5 -79t-105.5 -159v-739h-162z" />
<glyph unicode="i" horiz-adv-x="501" d="M135 1403q0 47 34 82t81 35t82 -35t35 -82t-35 -81t-82 -34t-81 34t-34 81zM170 0h162v1112h-162v-1112z" />
<glyph unicode="j" horiz-adv-x="516" d="M-80 -309q40 -10 82 -10q89 0 135.5 36t46.5 129v1266h162v-1276q0 -160 -74 -233.5t-200 -73.5q-75 0 -152 33v129zM150 1403q0 48 33.5 82.5t80.5 34.5t82 -35t35 -82t-35 -81t-82 -34t-80.5 34t-33.5 81z" />
<glyph unicode="k" horiz-adv-x="1056" d="M172 0v1563h162v-975l506 524h194l-514 -532l518 -580h-198l-506 557v-557h-162z" />
<glyph unicode="l" horiz-adv-x="524" d="M172 281v1282h162v-1272q0 -164 127 -164q32 0 53 6v-127q-67 -33 -125 -33q-99 0 -158 74t-59 234z" />
<glyph unicode="m" horiz-adv-x="1927" d="M172 0v1112h137l21 -141q92 92 172 128t162 36q113 0 203.5 -55.5t138.5 -164.5q111 124 196.5 172t179.5 48q80 0 148 -27.5t122 -82t84.5 -144t30.5 -205.5v-676h-161v664q0 137 -62 225t-184 88q-179 0 -318 -199q9 -74 9 -102v-676h-162v664q0 138 -62 225.5 t-186 87.5q-122 0 -214.5 -78.5t-92.5 -159.5v-739h-162z" />
<glyph unicode="n" horiz-adv-x="1271" d="M172 0v1112h137l21 -141q103 92 192.5 128t179.5 36q86 0 158.5 -27.5t129.5 -82t89.5 -144t32.5 -205.5v-676h-162v664q0 66 -15.5 121t-47 99t-84.5 68.5t-123 24.5q-135 0 -240.5 -79t-105.5 -159v-739h-162z" />
<glyph unicode="o" horiz-adv-x="1306" d="M96 549q0 117 40 223t110.5 186.5t176.5 128.5t230 48q125 0 231 -48t176.5 -129t110 -187.5t39.5 -223.5q0 -113 -37 -216t-105.5 -183t-175.5 -127.5t-237 -47.5t-237.5 47.5t-177 128t-107 183.5t-37.5 217zM262 553q0 -82 23 -156t69 -134.5t123 -96t176 -35.5 q100 0 177 35.5t122.5 96t68.5 134t23 156.5q0 115 -41.5 209t-132 154.5t-217.5 60.5q-126 0 -216.5 -60t-132.5 -154t-42 -210z" />
<glyph unicode="p" horiz-adv-x="1349" d="M172 -430v1542h135l23 -141q181 164 387 164q120 0 221 -47t168.5 -126.5t105 -183t37.5 -217.5q0 -157 -68 -290.5t-195.5 -215.5t-287.5 -82q-85 0 -170.5 33t-193.5 125v-561h-162zM334 369q0 -82 106 -160t256 -78q94 0 169.5 35t122 95.5t71 136.5t24.5 161 q0 83 -23 156.5t-68 133t-119.5 94t-170.5 34.5q-157 0 -262.5 -82.5t-105.5 -179.5v-346z" />
<glyph unicode="q" horiz-adv-x="1337" d="M98 545q0 153 63.5 286.5t187 218.5t280.5 85q207 0 389 -172l22 149h136v-1567h-162v586q-108 -92 -194.5 -125t-172.5 -33q-160 0 -286.5 77.5t-194.5 208t-68 286.5zM264 543q0 -85 24.5 -158.5t70.5 -130.5t120.5 -90t167.5 -33q154 0 260.5 78t106.5 160v338 q0 100 -106 185t-261 85q-77 0 -141.5 -24.5t-108.5 -66t-74.5 -97.5t-44.5 -118t-14 -128z" />
<glyph unicode="r" horiz-adv-x="733" d="M172 0v1112h139l21 -168q120 191 286 191q29 0 105 -13v-168q-63 13 -98 13q-121 0 -202.5 -100.5t-88.5 -264.5v-602h-162z" />
<glyph unicode="s" horiz-adv-x="989" d="M59 272l142 64q71 -211 311 -211q124 0 187 50.5t63 115.5q0 17 -4 31.5t-15 28t-20 23.5t-29.5 22t-33 19t-41 18.5t-42.5 17t-49 18.5t-49 18q-82 31 -138.5 59.5t-108 68t-77.5 91t-26 115.5q0 59 22.5 114t65 100.5t112 72.5t156.5 27q254 0 400 -232l-133 -69 q-83 149 -258 149q-100 0 -151.5 -47.5t-51.5 -112.5q0 -28 12.5 -51.5t30 -39.5t59 -35.5t74.5 -32.5t102 -37q187 -66 270 -139.5t83 -190.5q0 -59 -20.5 -113.5t-64 -103t-123.5 -78t-186 -29.5q-88 0 -162.5 20.5t-123.5 51.5t-88 73.5t-60 78.5t-35 75z" />
<glyph unicode="t" horiz-adv-x="665" d="M49 963v12l248 393h61v-256h279v-149h-279v-650q0 -106 46 -147t143 -41q31 0 86 10v-127q-88 -35 -168 -35q-122 0 -195 74t-73 234v682h-148z" />
<glyph unicode="u" horiz-adv-x="1249" d="M158 432v680h161v-668q0 -66 15.5 -121t47 -99t85 -68.5t123.5 -24.5q85 0 162 40t120 95.5t43 106.5v739h162v-1112h-137l-20 141q-178 -168 -353 -168q-86 0 -158.5 27.5t-129.5 82t-89 144t-32 205.5z" />
<glyph unicode="v" horiz-adv-x="1116" d="M25 1112h170l362 -930l369 930h166l-453 -1112h-162z" />
<glyph unicode="w" horiz-adv-x="1619" d="M49 1112h166l262 -917l254 917h160l260 -917l254 917h166l-340 -1112h-164l-258 854l-254 -854h-162z" />
<glyph unicode="x" horiz-adv-x="972" d="M31 0l368 575l-342 537h181l254 -403l249 403h181l-344 -539l364 -573h-176l-283 444l-280 -444h-172z" />
<glyph unicode="y" horiz-adv-x="1052" d="M25 1112h168l327 -844l344 844h164l-633 -1542h-162l207 506z" />
<glyph unicode="z" horiz-adv-x="1064" d="M66 0v158l727 805h-705v149h899v-160l-735 -802h758v-150h-944z" />
<glyph unicode="{" horiz-adv-x="700" d="M84 715v100q99 7 133.5 62t34.5 165q0 76 -10 203q-11 158 -11 207q0 180 66.5 250t230.5 70h97v-113h-58q-106 0 -138 -56.5t-32 -226.5q0 -40 1 -68t2.5 -55.5t2.5 -48.5q7 -157 7 -180q0 -104 -39.5 -165.5t-128.5 -88.5q45 -17 75.5 -38t49 -44t28 -57.5t12.5 -68 t3 -85.5q0 -87 -7 -209q-6 -141 -6 -190q0 -110 38 -159.5t132 -49.5h58v-111h-97q-115 0 -177.5 30t-91 103.5t-28.5 208.5q0 66 11 205q10 139 10 197q0 206 -168 213z" />
<glyph unicode="|" horiz-adv-x="534" d="M195 -504v2267h149v-2267h-149z" />
<glyph unicode="}" horiz-adv-x="700" d="M76 -131h57q94 0 132 49.5t38 159.5q0 49 -6 190q-6 105 -6 209q0 52 3 85.5t12.5 68t28 57.5t49 44t75.5 38q-89 27 -128.5 88.5t-39.5 165.5q0 45 6 180q1 21 2.5 48.5t2.5 55.5t1 68q0 170 -32 226.5t-138 56.5h-57v113h96q164 0 230.5 -70t66.5 -250q0 -63 -10 -207 q-10 -127 -10 -203q0 -110 34 -165t133 -62v-100q-49 -2 -83 -19.5t-51.5 -48t-25 -65.5t-7.5 -80q0 -58 10 -197q10 -127 10 -205q0 -135 -28.5 -208.5t-91 -103.5t-177.5 -30h-96v111z" />
<glyph unicode="~" horiz-adv-x="1114" d="M76 705q110 217 286 217q92 0 224 -78q114 -70 176 -70q105 0 180 133l96 -63q-102 -215 -286 -215q-95 0 -224 80q-42 24 -61.5 34.5t-52.5 21.5t-62 11q-106 0 -178 -133z" />
<glyph unicode="&#xa1;" horiz-adv-x="606" d="M178 1012q0 52 36 87.5t89 35.5t89 -35.5t36 -87.5t-36 -87.5t-89 -35.5t-89 35.5t-36 87.5zM209 -432l6 471l27 620h123l28 -620l4 -471h-188z" />
<glyph unicode="&#xa2;" horiz-adv-x="1181" d="M96 551q0 150 61 277.5t181 211t278 93.5l13 225h102l-12 -228q130 -12 231.5 -76.5t163.5 -172.5l-141 -72q-40 67 -107.5 109.5t-154.5 54.5l-43 -842q116 4 197 57.5t120 143.5l148 -70q-70 -132 -191.5 -209t-282.5 -80l-12 -262h-104l14 269q-142 21 -248.5 104.5 t-159.5 204.5t-53 262zM262 551q0 -98 30 -182t100.5 -148.5t172.5 -83.5l43 838q-112 -10 -192 -71.5t-117 -152t-37 -200.5z" />
<glyph unicode="&#xa3;" horiz-adv-x="1161" d="M113 692v137h206q-22 68 -33 108.5t-20.5 95t-9.5 102.5q0 194 122.5 314t321.5 120q220 0 367 -174l-106 -101q-55 60 -114 91.5t-138 31.5q-130 0 -204.5 -82t-74.5 -211q0 -27 4 -57t8.5 -50t14.5 -63.5t16 -68.5l12 -56h394v-137h-361q14 -79 14 -129 q0 -127 -37.5 -217.5t-121.5 -187.5h696v-158h-954v109q127 71 194.5 186.5t67.5 263.5q0 47 -21 133h-243z" />
<glyph unicode="&#xa4;" horiz-adv-x="950" d="M55 287l105 104q-72 100 -72 224t72 225l-105 104l90 90l105 -104q100 72 224.5 72.5t225.5 -70.5l105 104l90 -90l-104 -104q73 -102 72.5 -226.5t-72.5 -226.5l104 -104l-90 -90l-105 104q-101 -73 -226 -73t-226 73l-103 -102zM225 614q0 -104 74 -178t178 -74 q97 0 174 74q74 74 74 178q0 107 -72 179q-75 75 -176 75q-108 0 -180 -75q-72 -72 -72 -179z" />
<glyph unicode="&#xa5;" horiz-adv-x="1126" d="M47 1540h176l355 -733l342 733h159l-374 -792h354v-115h-408v-164h408v-115h-408v-354h-153v354h-402v115h402v164h-402v115h344z" />
<glyph unicode="&#xa6;" horiz-adv-x="534" d="M195 -504v1051h149v-1051h-149zM195 725v1038h149v-1038h-149z" />
<glyph unicode="&#xa7;" horiz-adv-x="1007" d="M94 559q0 66 18.5 125.5t64.5 116.5t116 90q-137 127 -137 278q0 70 21.5 134.5t64 119t113.5 87t161 32.5q177 0 348 -129l-84 -143q-135 100 -256 100q-86 0 -136 -54.5t-50 -137.5q0 -27 6 -50t23 -45t33 -38t51 -39.5t60.5 -38.5t78.5 -45q78 -45 132.5 -85 t100 -89.5t68 -106.5t22.5 -123q0 -101 -49.5 -192.5t-150.5 -143.5q139 -129 139 -284q0 -54 -13 -106t-42 -99.5t-70 -83t-101.5 -57t-133.5 -21.5q-181 0 -349 127l84 143q135 -100 256 -100q89 0 138 55t49 140q0 33 -10.5 60.5t-26 48.5t-51.5 47t-68 45.5t-94 54.5 q-85 48 -139.5 86.5t-100 87.5t-66 105.5t-20.5 127.5zM281 598q0 -45 17.5 -83t60 -78t91 -74t132.5 -87q70 25 107.5 79t37.5 118q0 28 -8 54.5t-18.5 47t-35.5 46t-42.5 42t-57 44t-62 42.5t-73.5 48q-72 -22 -110.5 -77.5t-38.5 -121.5z" />
<glyph unicode="&#xa8;" horiz-adv-x="1210" d="M276 1397q0 47 32 78.5t77 31.5q48 0 80.5 -31.5t32.5 -78.5q0 -44 -33 -75.5t-80 -31.5q-44 0 -76.5 31.5t-32.5 75.5zM713 1397q0 47 31.5 78.5t76.5 31.5q48 0 80.5 -31.5t32.5 -78.5q0 -44 -33 -75.5t-80 -31.5q-44 0 -76 31.5t-32 75.5z" />
<glyph unicode="&#xa9;" horiz-adv-x="1650" d="M100 723q0 196 97.5 362.5t264.5 263.5t363 97q197 0 364 -97t264 -263.5t97 -362.5t-97 -362.5t-264 -263.5t-364 -97q-196 0 -363 97t-264.5 263.5t-97.5 362.5zM193 723q0 -172 85 -318.5t230.5 -231.5t316.5 -85q129 0 246.5 50.5t202.5 135.5t135.5 202.5 t50.5 246.5t-50.5 246.5t-135.5 202.5t-202.5 135.5t-246.5 50.5q-171 0 -316.5 -85t-230.5 -231.5t-85 -318.5zM410 723q0 116 50.5 214.5t148 160t222.5 61.5t221 -59t140 -162l-86 -41q-29 84 -102.5 129t-172.5 45q-151 0 -234 -100t-83 -248q0 -67 19 -128t56 -111 t99 -79.5t141 -29.5q105 0 176.5 50t100.5 132l88 -35q-45 -98 -143.5 -165.5t-227.5 -67.5q-124 0 -219.5 62t-144.5 160t-49 212z" />
<glyph unicode="&#xaa;" horiz-adv-x="788" d="M78 1006q0 194 305 247l113 19q57 13 57 74q0 100 -129 100q-71 0 -119 -25.5t-78 -81.5l-112 72q106 158 321 158q123 0 188.5 -60.5t65.5 -210.5v-481h-117l-16 70q-121 -90 -233 -90q-106 0 -176 55t-70 154zM223 1008q0 -45 30 -70t89 -25q80 0 147.5 46t67.5 102 v127q-54 -18 -78 -21l-102 -20q-73 -13 -113.5 -50.5t-40.5 -88.5z" />
<glyph unicode="&#xab;" horiz-adv-x="1079" d="M115 563v58l368 374l90 -75l-282 -328l282 -326l-90 -76zM526 563v58l369 374l90 -75l-283 -328l283 -326l-90 -76z" />
<glyph unicode="&#xac;" horiz-adv-x="98" />
<glyph unicode="&#xad;" horiz-adv-x="751" d="M86 582v166h580v-166h-580z" />
<glyph unicode="&#xae;" horiz-adv-x="837" d="M47 1090q0 153 109 261.5t262 108.5q154 0 263.5 -109t109.5 -261t-109.5 -260.5t-263.5 -108.5t-262.5 108.5t-108.5 260.5zM88 1090q0 -137 97 -234.5t233 -97.5t234 98t98 234q0 137 -98 235t-234 98t-233 -98t-97 -235zM291 879v424h139q60 0 98.5 -31.5t38.5 -85.5 q0 -43 -27.5 -77t-72.5 -44l100 -186h-43l-100 184h-94v-184h-39zM330 1100h106q43 0 67.5 23t24.5 63q0 80 -96 80h-102v-166z" />
<glyph unicode="&#xb0;" horiz-adv-x="671" d="M86 1325q0 104 73 178t177 74t178 -74t74 -178t-74 -177t-178 -73t-177 73t-73 177zM154 1325q0 -73 54 -127.5t128 -54.5t129 54.5t55 127.5t-55 128.5t-129 55.5q-73 0 -127.5 -55t-54.5 -129z" />
<glyph unicode="&#xb1;" horiz-adv-x="931" d="M72 12v166h788v-166h-788zM72 586v166h309v309h170v-309h309v-166h-309v-269h-170v269h-309z" />
<glyph unicode="&#xb4;" horiz-adv-x="1183" d="M432 1274l213 289h203l-283 -289h-133z" />
<glyph unicode="&#xb5;" horiz-adv-x="1249" d="M158 -309v1421h161v-668q0 -137 67.5 -225t199.5 -88q130 0 229.5 80.5t99.5 161.5v739h162v-1112h-137l-20 141q-99 -93 -184.5 -130.5t-174.5 -37.5q-157 0 -266 93l41 -375h-178z" />
<glyph unicode="&#xb6;" horiz-adv-x="1302" d="M86 1036q0 140 68.5 255.5t191.5 182t277 66.5h168v-2011h-146v1012h-63q-143 0 -257.5 66.5t-176.5 179.5t-62 249zM952 -471v2011h148v-2011h-148z" />
<glyph unicode="&#xb7;" horiz-adv-x="520" d="M135 637q0 52 36 87.5t89 35.5t89 -35.5t36 -87.5t-36 -87.5t-89 -35.5t-89 35.5t-36 87.5z" />
<glyph unicode="&#xb8;" horiz-adv-x="1210" d="M432 -344q93 11 136.5 33t43.5 63q0 62 -123 101l76 155h88l-51 -117q164 -48 164 -143q0 -71 -77 -110t-245 -60z" />
<glyph unicode="&#xba;" horiz-adv-x="872" d="M63 1182q0 159 104 273t269 114q166 0 268.5 -113.5t102.5 -273.5q0 -103 -42 -189t-128 -141t-201 -55q-114 0 -200.5 55t-129.5 141.5t-43 188.5zM203 1184q0 -69 23 -126.5t77.5 -96.5t132.5 -39q115 0 174.5 76t59.5 186q0 111 -60.5 186.5t-173.5 75.5 q-111 0 -172 -75.5t-61 -186.5z" />
<glyph unicode="&#xbb;" horiz-adv-x="1079" d="M115 266l282 326l-282 328l90 75l368 -374v-58l-368 -373zM526 266l283 326l-283 328l90 75l369 -374v-58l-369 -373z" />
<glyph unicode="&#xbc;" horiz-adv-x="1724" d="M133 1288v131q60 12 98 57.5t52 92.5h141v-928h-141v686q-85 -30 -150 -39zM354 -35l826 1612h137l-825 -1612h-138zM1012 211v92l397 627h158v-596h90v-123h-90v-211h-137v211h-418zM1182 334h248v377z" />
<glyph unicode="&#xbd;" horiz-adv-x="1822" d="M133 1288v131q60 12 98 57.5t52 92.5h141v-928h-141v686q-85 -30 -150 -39zM354 -35l826 1612h137l-825 -1612h-138zM1110 0v109q0 101 47.5 172t149.5 129l98 55q105 58 142.5 103.5t37.5 97.5q0 64 -50 107.5t-124 43.5q-65 0 -113.5 -39t-70.5 -96q-40 18 -117 59 q37 92 114.5 149.5t182.5 57.5q80 0 151 -31.5t118.5 -97t47.5 -151.5q0 -55 -17.5 -100.5t-52 -82t-70 -62.5t-87.5 -56l-104 -62q-73 -43 -106.5 -78.5t-39.5 -91.5h475v-135h-612z" />
<glyph unicode="&#xbe;" horiz-adv-x="1832" d="M74 829l114 58q24 -57 70.5 -95t112.5 -38q81 0 135.5 56t54.5 138q0 84 -53 138.5t-137 54.5q-39 0 -82 -21l-78 78l248 236h-353v135h564v-99l-217 -219q105 -25 179.5 -107t74.5 -198q0 -143 -100 -234t-234 -91q-105 0 -181.5 54.5t-117.5 153.5zM485 -35l826 1612 h137l-825 -1612h-138zM1120 211v92l398 627h157v-596h90v-123h-90v-211h-137v211h-418zM1290 334h248v377z" />
<glyph unicode="&#xbf;" horiz-adv-x="1097" d="M100 -12q0 103 55.5 185.5t172.5 158.5l47 30q38 25 56 38t43 35.5t35.5 42.5t19 50.5t8.5 67.5v53h155v-110q0 -66 -20.5 -112t-51 -75t-100.5 -80l-61 -45q-108 -80 -145.5 -126t-37.5 -113q0 -117 85.5 -198t197.5 -81q114 0 203.5 80.5t89.5 187.5q0 21 -4 37l164 27 q6 -30 6 -59q0 -84 -33.5 -163.5t-93 -141.5t-148 -100t-190.5 -38q-107 0 -196 41.5t-143.5 108t-84 144.5t-29.5 155zM489 1012q0 52 36 87.5t89 35.5t89 -35.5t36 -87.5t-36 -87.5t-89 -35.5t-89 35.5t-36 87.5z" />
<glyph unicode="&#xc0;" d="M0 0l524 1540h197l522 -1540h-182l-135 408h-619l-133 -408h-174zM358 567h516l-260 785zM414 1964h200l213 -289h-131z" />
<glyph unicode="&#xc1;" d="M0 0l524 1540h197l522 -1540h-182l-135 408h-619l-133 -408h-174zM358 567h516l-260 785zM414 1675l213 289h202l-282 -289h-133z" />
<glyph unicode="&#xc2;" d="M0 0l524 1540h197l522 -1540h-182l-135 408h-619l-133 -408h-174zM319 1675l213 289h173l217 -289h-121l-180 187l-183 -187h-119zM358 567h516l-260 785z" />
<glyph unicode="&#xc3;" d="M0 0l524 1540h197l522 -1540h-182l-135 408h-619l-133 -408h-174zM338 1700q9 91 52.5 148t115.5 57q55 0 131 -47q61 -37 90 -37q30 0 54 22.5t36 61.5h88q-9 -89 -53.5 -147t-114.5 -58q-24 0 -49.5 8.5t-36.5 14.5t-41 24q-4 2 -18 9.5t-20.5 10.5t-18 8t-20.5 7 t-17 2q-30 0 -54 -22.5t-36 -61.5h-88zM358 567h516l-260 785z" />
<glyph unicode="&#xc4;" d="M0 0l524 1540h197l522 -1540h-182l-135 408h-619l-133 -408h-174zM293 1800q0 47 31.5 79t76.5 32q47 0 80 -32t33 -79q0 -44 -33 -75t-80 -31q-44 0 -76 31t-32 75zM358 567h516l-260 785zM729 1800q0 47 32 79t77 32q47 0 79.5 -32t32.5 -79q0 -44 -32.5 -75t-79.5 -31 q-45 0 -77 31t-32 75z" />
<glyph unicode="&#xc5;" d="M0 0l555 1628q-60 19 -97.5 71t-37.5 118q0 83 57.5 140.5t140.5 57.5t141 -57.5t58 -140.5q0 -63 -35 -114t-92 -73l553 -1630h-182l-135 408h-619l-133 -408h-174zM358 567h516q-54 168 -124 378t-100.5 303.5t-33.5 111.5h-2q-4 -18 -29 -96t-94.5 -289.5 t-132.5 -407.5zM502 1817q0 -47 34.5 -82t81.5 -35t82 35t35 82t-35 81.5t-82 34.5t-81.5 -34.5t-34.5 -81.5z" />
<glyph unicode="&#xc6;" horiz-adv-x="1994" d="M12 0l871 1540h1013v-166h-722v-500h641v-165h-641v-543h722v-166h-892v449h-560l-254 -449h-178zM537 608h467l2 766h-33z" />
<glyph unicode="&#xc7;" horiz-adv-x="1591" d="M102 768q0 126 33 245t98.5 219.5t155.5 176t211.5 118t259.5 42.5q228 0 404 -110.5t258 -301.5l-152 -76q-55 162 -193 247t-319 85q-114 0 -209.5 -34.5t-162.5 -94.5t-114 -142t-69 -176.5t-22 -197.5q0 -99 20.5 -191t65.5 -174t110.5 -142.5t161.5 -96t213 -35.5 q200 0 336 97t188 255l152 -71q-82 -195 -261 -315.5t-415 -121.5l-35 -82q77 -23 120.5 -57t43.5 -88q0 -68 -77 -108t-245 -60l-12 78q93 11 136.5 33t43.5 63q0 34 -30.5 57.5t-91.5 43.5l61 124q-153 15 -280 86t-210 179t-128.5 243.5t-45.5 282.5z" />
<glyph unicode="&#xc8;" d="M182 0v1540h934v-166h-764v-500h682v-165h-682v-543h764v-166h-934zM428 1964h201l213 -289h-131z" />
<glyph unicode="&#xc9;" d="M182 0v1540h934v-166h-764v-500h682v-165h-682v-543h764v-166h-934zM430 1675l213 289h203l-283 -289h-133z" />
<glyph unicode="&#xca;" d="M182 0v1540h934v-166h-764v-500h682v-165h-682v-543h764v-166h-934zM336 1675l213 289h172l217 -289h-121l-180 187l-182 -187h-119z" />
<glyph unicode="&#xcb;" d="M182 0v1540h934v-166h-764v-500h682v-165h-682v-543h764v-166h-934zM322 1798q0 47 31.5 79t76.5 32q47 0 80 -32t33 -79q0 -44 -33 -75t-80 -31q-44 0 -76 31t-32 75zM758 1798q0 47 31.5 79t76.5 32q47 0 80 -32t33 -79q0 -44 -33 -75t-80 -31q-44 0 -76 31t-32 75z " />
<glyph unicode="&#xcc;" horiz-adv-x="514" d="M49 1964h201l213 -289h-131zM172 0v1540h170v-1540h-170z" />
<glyph unicode="&#xcd;" horiz-adv-x="514" d="M49 1675l213 289h203l-283 -289h-133zM172 0v1540h170v-1540h-170z" />
<glyph unicode="&#xce;" horiz-adv-x="514" d="M-45 1675l213 289h172l217 -289h-121l-180 187l-182 -187h-119zM172 0v1540h170v-1540h-170z" />
<glyph unicode="&#xcf;" horiz-adv-x="518" d="M-70 1798q0 47 32 79t77 32q47 0 80 -32t33 -79q0 -44 -33 -75t-80 -31q-45 0 -77 31t-32 75zM174 0v1540h170v-1540h-170zM367 1798q0 47 31.5 79t76.5 32q47 0 80 -32t33 -79q0 -44 -33 -75t-80 -31q-44 0 -76 31t-32 75z" />
<glyph unicode="&#xd0;" horiz-adv-x="1568" d="M63 741v136h187v663h440q167 0 299.5 -41.5t220 -113t146 -172t83.5 -212t25 -239.5q0 -122 -22.5 -228t-78.5 -206t-142 -171t-222.5 -114t-310.5 -43h-438v741h-187zM420 166h252q109 0 198 18t152 48.5t110.5 76t76.5 95t46.5 111.5t24 120t6.5 125q0 106 -15.5 191.5 t-57 166.5t-109 135.5t-177 87.5t-255.5 33h-252v-497h360v-136h-360v-575z" />
<glyph unicode="&#xd1;" horiz-adv-x="1488" d="M182 0v1540h201l729 -1272v1272h170v-1540h-205l-725 1268v-1268h-170zM449 1700q10 91 52.5 148t114.5 57q56 0 132 -47q61 -37 90 -37q30 0 54 22.5t36 61.5h88q-9 -89 -53.5 -147t-114.5 -58q-24 0 -49.5 8.5t-36.5 14.5t-41 24q-4 2 -18 9.5t-20.5 10.5t-18 8 t-20.5 7t-17 2q-30 0 -54 -22.5t-36 -61.5h-88z" />
<glyph unicode="&#xd2;" horiz-adv-x="1726" d="M102 766q0 159 54 304.5t150 256t239.5 176.5t310.5 66q168 0 311.5 -66t239 -176.5t149.5 -256t54 -304.5q0 -124 -31.5 -240t-95.5 -216.5t-152.5 -175.5t-211 -118t-263.5 -43t-263 43t-211 118t-153 175.5t-95.5 217t-31.5 239.5zM281 766q0 -98 20 -189t65 -173 t110.5 -142.5t162.5 -96.5t215 -36q120 0 218 36t164 97t111 143t65 172.5t20 188.5q0 103 -22 197t-68.5 176.5t-113.5 143t-163 95.5t-211 35q-113 0 -208 -34.5t-161.5 -95t-113 -143t-68.5 -177t-22 -197.5zM649 1964h201l213 -289h-131z" />
<glyph unicode="&#xd3;" horiz-adv-x="1726" d="M102 766q0 159 54 304.5t150 256t239.5 176.5t310.5 66q168 0 311.5 -66t239 -176.5t149.5 -256t54 -304.5q0 -124 -31.5 -240t-95.5 -216.5t-152.5 -175.5t-211 -118t-263.5 -43t-263 43t-211 118t-153 175.5t-95.5 217t-31.5 239.5zM281 766q0 -98 20 -189t65 -173 t110.5 -142.5t162.5 -96.5t215 -36q120 0 218 36t164 97t111 143t65 172.5t20 188.5q0 103 -22 197t-68.5 176.5t-113.5 143t-163 95.5t-211 35q-113 0 -208 -34.5t-161.5 -95t-113 -143t-68.5 -177t-22 -197.5zM649 1675l213 289h203l-283 -289h-133z" />
<glyph unicode="&#xd4;" horiz-adv-x="1726" d="M102 766q0 159 54 304.5t150 256t239.5 176.5t310.5 66q168 0 311.5 -66t239 -176.5t149.5 -256t54 -304.5q0 -124 -31.5 -240t-95.5 -216.5t-152.5 -175.5t-211 -118t-263.5 -43t-263 43t-211 118t-153 175.5t-95.5 217t-31.5 239.5zM281 766q0 -98 20 -189t65 -173 t110.5 -142.5t162.5 -96.5t215 -36q120 0 218 36t164 97t111 143t65 172.5t20 188.5q0 103 -22 197t-68.5 176.5t-113.5 143t-163 95.5t-211 35q-113 0 -208 -34.5t-161.5 -95t-113 -143t-68.5 -177t-22 -197.5zM555 1675l213 289h172l217 -289h-121l-180 187l-182 -187 h-119z" />
<glyph unicode="&#xd5;" horiz-adv-x="1726" d="M102 766q0 159 54 304.5t150 256t239.5 176.5t310.5 66q168 0 311.5 -66t239 -176.5t149.5 -256t54 -304.5q0 -124 -31.5 -240t-95.5 -216.5t-152.5 -175.5t-211 -118t-263.5 -43t-263 43t-211 118t-153 175.5t-95.5 217t-31.5 239.5zM281 766q0 -98 20 -189t65 -173 t110.5 -142.5t162.5 -96.5t215 -36q120 0 218 36t164 97t111 143t65 172.5t20 188.5q0 103 -22 197t-68.5 176.5t-113.5 143t-163 95.5t-211 35q-113 0 -208 -34.5t-161.5 -95t-113 -143t-68.5 -177t-22 -197.5zM573 1700q9 91 52.5 148t115.5 57q55 0 131 -47 q61 -37 91 -37t54 22.5t36 61.5h88q-9 -89 -53.5 -147t-114.5 -58q-24 0 -49.5 8.5t-36.5 14.5t-41 24q-4 2 -18 9.5t-20.5 10.5t-18 8t-20.5 7t-17 2q-30 0 -54 -22.5t-36 -61.5h-89z" />
<glyph unicode="&#xd6;" horiz-adv-x="1712" d="M102 766q0 159 54 304.5t150 256t239.5 176.5t310.5 66q168 0 311.5 -66t239 -176.5t149.5 -256t54 -304.5q0 -124 -31.5 -240t-95.5 -216.5t-152.5 -175.5t-211 -118t-263.5 -43t-263 43t-211 118t-153 175.5t-95.5 217t-31.5 239.5zM281 766q0 -98 20 -189t65 -173 t110.5 -142.5t162.5 -96.5t215 -36q120 0 218 36t164 97t111 143t65 172.5t20 188.5q0 103 -22 197t-68.5 176.5t-113.5 143t-163 95.5t-211 35q-113 0 -208 -34.5t-161.5 -95t-113 -143t-68.5 -177t-22 -197.5zM508 1800q0 47 31.5 79t76.5 32q47 0 80 -32t33 -79 q0 -44 -33 -75t-80 -31q-44 0 -76 31t-32 75zM985 1800q0 47 32 79t77 32q47 0 79.5 -32t32.5 -79q0 -44 -32.5 -75t-79.5 -31q-45 0 -77 31t-32 75z" />
<glyph unicode="&#xd7;" horiz-adv-x="927" d="M84 403l262 265l-262 264l117 117l262 -265l264 265l117 -117l-266 -264l266 -265l-117 -114l-264 262l-262 -262z" />
<glyph unicode="&#xd8;" horiz-adv-x="1712" d="M102 766q0 159 54 304.5t150 256t239.5 176.5t310.5 66q242 0 430 -135l141 184l97 -74l-146 -188q112 -112 172 -266t60 -324q0 -155 -51 -297t-144 -253t-237.5 -177t-319.5 -66q-251 0 -440 136l-137 -177l-101 74l144 184q-107 112 -164.5 262.5t-57.5 313.5z M281 768q0 -274 141 -449l770 992q-142 102 -338 102q-140 0 -252 -53t-180.5 -143.5t-104.5 -205t-36 -243.5zM514 231q139 -102 342 -102q119 0 217 36t163.5 97t110.5 143t65 172.5t20 188.5q0 133 -38.5 253.5t-113.5 209.5z" />
<glyph unicode="&#xd9;" horiz-adv-x="1452" d="M176 520v1020h170v-991q0 -75 19 -144.5t60 -133.5t118.5 -103t181.5 -39q84 0 151 26t109 67.5t70 97.5t39.5 112.5t11.5 116.5v991h170v-1020q0 -80 -20.5 -157.5t-65 -148.5t-107.5 -124t-155.5 -85t-202.5 -32t-202.5 32t-155.5 86t-107 125t-64 148t-20 156z M518 1964h201l213 -289h-131z" />
<glyph unicode="&#xda;" horiz-adv-x="1452" d="M176 520v1020h170v-991q0 -75 19 -144.5t60 -133.5t118.5 -103t181.5 -39q84 0 151 26t109 67.5t70 97.5t39.5 112.5t11.5 116.5v991h170v-1020q0 -80 -20.5 -157.5t-65 -148.5t-107.5 -124t-155.5 -85t-202.5 -32t-202.5 32t-155.5 86t-107 125t-64 148t-20 156z M518 1675l213 289h203l-283 -289h-133z" />
<glyph unicode="&#xdb;" horiz-adv-x="1452" d="M176 520v1020h170v-991q0 -75 19 -144.5t60 -133.5t118.5 -103t181.5 -39q84 0 151 26t109 67.5t70 97.5t39.5 112.5t11.5 116.5v991h170v-1020q0 -80 -20.5 -157.5t-65 -148.5t-107.5 -124t-155.5 -85t-202.5 -32t-202.5 32t-155.5 86t-107 125t-64 148t-20 156z M424 1675l213 289h172l217 -289h-121l-180 187l-182 -187h-119z" />
<glyph unicode="&#xdc;" horiz-adv-x="1452" d="M176 520v1020h170v-991q0 -75 19 -144.5t60 -133.5t118.5 -103t181.5 -39q84 0 151 26t109 67.5t70 97.5t39.5 112.5t11.5 116.5v991h170v-1020q0 -80 -20.5 -157.5t-65 -148.5t-107.5 -124t-155.5 -85t-202.5 -32t-202.5 32t-155.5 86t-107 125t-64 148t-20 156z M397 1798q0 47 32 79t77 32q47 0 79.5 -32t32.5 -79q0 -44 -32.5 -75t-79.5 -31q-45 0 -77 31t-32 75zM834 1798q0 47 31.5 79t76.5 32q47 0 80 -32t33 -79q0 -44 -33 -75t-80 -31q-44 0 -76 31t-32 75z" />
<glyph unicode="&#xdd;" horiz-adv-x="1134" d="M-8 1540h196l400 -733l375 733h178l-471 -915v-625h-170v625zM358 1675l213 289h203l-282 -289h-134z" />
<glyph unicode="&#xde;" horiz-adv-x="1296" d="M186 0v1540h170v-297h365q206 0 337.5 -118.5t131.5 -321.5q0 -104 -38 -188.5t-103 -137.5t-149 -81.5t-179 -28.5h-365v-367h-170zM356 532h346q141 0 225.5 72t84.5 195q0 122 -81.5 200t-228.5 78h-346v-545z" />
<glyph unicode="&#xdf;" horiz-adv-x="1413" d="M63 963v149h158v78q0 196 89 291.5t294 95.5q83 0 148 -16t105.5 -41.5t66.5 -61t36.5 -71.5t10.5 -76q0 -13 -1.5 -26t-3 -23.5t-6.5 -24t-7.5 -21t-10.5 -21.5t-11 -20t-13 -21t-13 -20t-15.5 -22.5t-15.5 -21.5q-37 -54 -53 -88.5t-16 -67.5q0 -30 14.5 -59.5 t31.5 -50.5t55.5 -50t61 -44t72.5 -46q56 -35 88 -56.5t81 -62t75.5 -76t47 -86t20.5 -104.5q0 -58 -22 -113.5t-66 -104.5t-122 -78.5t-179 -29.5q-118 0 -211 39t-152 103l111 100q90 -90 235 -90q122 0 184 53t62 123q0 23 -7.5 45t-17.5 40t-31.5 39t-36.5 34.5 t-46.5 35.5t-47.5 32.5t-53 33.5q-72 46 -114.5 76.5t-87 73t-64.5 88t-20 98.5q0 102 77 225q3 6 18 28t19.5 30.5t13.5 26.5t12 33.5t3 33.5q0 66 -51 105.5t-156 39.5q-71 0 -117 -18.5t-67 -55t-28 -73.5t-7 -92v-1180h-162v963h-158z" />
<glyph unicode="&#xe0;" horiz-adv-x="1175" d="M123 281q0 65 23 120.5t73 105t138.5 86.5t211.5 56l170 29q70 12 95.5 39t25.5 82q0 84 -53 131t-184 47q-112 0 -187.5 -37t-128.5 -115l-131 90q145 220 459 220q87 0 154.5 -19t121.5 -63t82.5 -122.5t28.5 -189.5v-741h-131l-27 141q-179 -168 -387 -168 q-154 0 -254 81t-100 227zM293 289q0 -80 55.5 -125t153.5 -45q88 0 171.5 37.5t135 100t51.5 130.5v205q-61 -33 -131 -45l-176 -35q-260 -52 -260 -223zM408 1563h200l213 -289h-131z" />
<glyph unicode="&#xe1;" horiz-adv-x="1175" d="M123 281q0 65 23 120.5t73 105t138.5 86.5t211.5 56l170 29q70 12 95.5 39t25.5 82q0 84 -53 131t-184 47q-112 0 -187.5 -37t-128.5 -115l-131 90q145 220 459 220q87 0 154.5 -19t121.5 -63t82.5 -122.5t28.5 -189.5v-741h-131l-27 141q-179 -168 -387 -168 q-154 0 -254 81t-100 227zM293 289q0 -80 55.5 -125t153.5 -45q88 0 171.5 37.5t135 100t51.5 130.5v205q-61 -33 -131 -45l-176 -35q-260 -52 -260 -223zM408 1274l213 289h202l-282 -289h-133z" />
<glyph unicode="&#xe2;" horiz-adv-x="1175" d="M123 281q0 65 23 120.5t73 105t138.5 86.5t211.5 56l170 29q70 12 95.5 39t25.5 82q0 84 -53 131t-184 47q-112 0 -187.5 -37t-128.5 -115l-131 90q145 220 459 220q87 0 154.5 -19t121.5 -63t82.5 -122.5t28.5 -189.5v-741h-131l-27 141q-179 -168 -387 -168 q-154 0 -254 81t-100 227zM293 289q0 -80 55.5 -125t153.5 -45q88 0 171.5 37.5t135 100t51.5 130.5v205q-61 -33 -131 -45l-176 -35q-260 -52 -260 -223zM313 1274l213 289h172l217 -289h-120l-181 186l-182 -186h-119z" />
<glyph unicode="&#xe3;" horiz-adv-x="1175" d="M123 281q0 65 23 120.5t73 105t138.5 86.5t211.5 56l170 29q70 12 95.5 39t25.5 82q0 84 -53 131t-184 47q-112 0 -187.5 -37t-128.5 -115l-131 90q145 220 459 220q87 0 154.5 -19t121.5 -63t82.5 -122.5t28.5 -189.5v-741h-131l-27 141q-179 -168 -387 -168 q-154 0 -254 81t-100 227zM293 289q0 -80 55.5 -125t153.5 -45q88 0 171.5 37.5t135 100t51.5 130.5v205q-61 -33 -131 -45l-176 -35q-260 -52 -260 -223zM332 1294q9 91 52.5 148t115.5 57q55 0 131 -47q61 -37 90 -37q30 0 54 22.5t36 61.5h88q-9 -89 -53.5 -147 t-114.5 -58q-24 0 -49.5 8.5t-36.5 14.5t-41 24q-4 2 -18 9.5t-20.5 10.5t-18 8t-20.5 7t-17 2q-30 0 -54 -22.5t-36 -61.5h-88z" />
<glyph unicode="&#xe4;" horiz-adv-x="1175" d="M123 281q0 65 23 120.5t73 105t138.5 86.5t211.5 56l170 29q70 12 95.5 39t25.5 82q0 84 -53 131t-184 47q-112 0 -187.5 -37t-128.5 -115l-131 90q145 220 459 220q87 0 154.5 -19t121.5 -63t82.5 -122.5t28.5 -189.5v-741h-131l-27 141q-179 -168 -387 -168 q-154 0 -254 81t-100 227zM287 1395q0 47 31.5 78.5t76.5 31.5q48 0 80.5 -31.5t32.5 -78.5q0 -44 -33 -75.5t-80 -31.5q-44 0 -76 31.5t-32 75.5zM293 289q0 -80 55.5 -125t153.5 -45q88 0 171.5 37.5t135 100t51.5 130.5v205q-61 -33 -131 -45l-176 -35 q-260 -52 -260 -223zM723 1395q0 47 31.5 78.5t76.5 31.5q48 0 80.5 -31.5t32.5 -78.5q0 -44 -33 -75.5t-80 -31.5q-44 0 -76 31.5t-32 75.5z" />
<glyph unicode="&#xe5;" horiz-adv-x="1175" d="M123 281q0 65 23 120.5t73 105t138.5 86.5t211.5 56l170 29q70 12 95.5 39t25.5 82q0 84 -53 131t-184 47q-112 0 -187.5 -37t-128.5 -115l-131 90q145 220 459 220q87 0 154.5 -19t121.5 -63t82.5 -122.5t28.5 -189.5v-741h-131l-27 141q-179 -168 -387 -168 q-154 0 -254 81t-100 227zM293 289q0 -80 55.5 -125t153.5 -45q88 0 171.5 37.5t135 100t51.5 130.5v205q-61 -33 -131 -45l-176 -35q-260 -52 -260 -223zM416 1438q0 83 57.5 140.5t140.5 57.5t141 -57.5t58 -140.5t-58 -141t-141 -58t-140.5 58t-57.5 141zM498 1438 q0 -47 34.5 -82t81.5 -35t82 35t35 82t-35 81.5t-82 34.5t-81.5 -34.5t-34.5 -81.5z" />
<glyph unicode="&#xe6;" horiz-adv-x="1890" d="M123 279q0 68 24 126.5t74 108.5t136.5 83t203.5 44l158 14q110 10 110 146q0 85 -47 130.5t-166 45.5q-207 0 -309 -152l-131 90q69 105 185 162.5t270 57.5q115 0 194 -37.5t123 -124.5q68 74 168.5 118t204.5 44q142 0 255.5 -82.5t173.5 -215.5t60 -288v-29h-845 q6 -60 21.5 -115t44.5 -105.5t69 -87.5t96.5 -59t124.5 -22q107 0 187 50t126 138l148 -63q-64 -133 -184 -208t-277 -75q-140 0 -247.5 58t-174.5 159q-197 -217 -438 -217q-147 0 -242.5 81t-95.5 225zM293 283q0 -75 52 -119.5t147 -44.5q104 0 192 55t150 148 q-34 90 -37 196q-173 -4 -252 -14q-119 -15 -185.5 -74.5t-66.5 -146.5zM973 659h669q-18 134 -109.5 226t-225.5 92q-128 0 -213 -87.5t-121 -230.5z" />
<glyph unicode="&#xe7;" horiz-adv-x="1181" d="M96 551q0 116 39 221.5t109.5 186.5t177.5 128.5t235 47.5q151 0 270.5 -66.5t186.5 -187.5l-141 -72q-46 79 -130 123.5t-192 44.5q-126 0 -216 -60.5t-131.5 -155t-41.5 -210.5q0 -82 22.5 -155t67.5 -133.5t121 -96t174 -35.5q123 0 210 54t128 147l148 -70 q-70 -131 -189.5 -208t-277.5 -81l-35 -82q77 -23 120.5 -57t43.5 -88q0 -68 -77 -108t-245 -60l-12 78q93 11 136.5 33t43.5 63q0 34 -30.5 57.5t-92.5 43.5l60 124q-148 16 -259 99.5t-167 207t-56 267.5z" />
<glyph unicode="&#xe8;" d="M96 543q0 -111 37.5 -213t106 -182t175.5 -127.5t236 -47.5q166 0 291.5 75t192.5 208l-148 63q-49 -88 -134 -138t-200 -50q-74 0 -136 22t-105 59t-74.5 88t-49 105.5t-24.5 114.5h899v29q0 117 -37 223t-102.5 186.5t-163.5 128.5t-213 48t-218.5 -48t-176 -128.5 t-114.5 -189t-42 -226.5zM272 659q37 142 131.5 230t233.5 88q144 0 241 -91.5t117 -226.5h-723zM422 1563h201l213 -289h-131z" />
<glyph unicode="&#xe9;" d="M96 543q0 -111 37.5 -213t106 -182t175.5 -127.5t236 -47.5q166 0 291.5 75t192.5 208l-148 63q-49 -88 -134 -138t-200 -50q-74 0 -136 22t-105 59t-74.5 88t-49 105.5t-24.5 114.5h899v29q0 117 -37 223t-102.5 186.5t-163.5 128.5t-213 48t-218.5 -48t-176 -128.5 t-114.5 -189t-42 -226.5zM272 659q37 142 131.5 230t233.5 88q144 0 241 -91.5t117 -226.5h-723zM422 1274l213 289h203l-283 -289h-133z" />
<glyph unicode="&#xea;" d="M96 543q0 -111 37.5 -213t106 -182t175.5 -127.5t236 -47.5q166 0 291.5 75t192.5 208l-148 63q-49 -88 -134 -138t-200 -50q-74 0 -136 22t-105 59t-74.5 88t-49 105.5t-24.5 114.5h899v29q0 117 -37 223t-102.5 186.5t-163.5 128.5t-213 48t-218.5 -48t-176 -128.5 t-114.5 -189t-42 -226.5zM272 659q37 142 131.5 230t233.5 88q144 0 241 -91.5t117 -226.5h-723zM328 1274l213 289h172l217 -289h-121l-180 186l-183 -186h-118z" />
<glyph unicode="&#xeb;" d="M96 543q0 -111 37.5 -213t106 -182t175.5 -127.5t236 -47.5q166 0 291.5 75t192.5 208l-148 63q-49 -88 -134 -138t-200 -50q-74 0 -136 22t-105 59t-74.5 88t-49 105.5t-24.5 114.5h899v29q0 117 -37 223t-102.5 186.5t-163.5 128.5t-213 48t-218.5 -48t-176 -128.5 t-114.5 -189t-42 -226.5zM272 659q37 142 131.5 230t233.5 88q144 0 241 -91.5t117 -226.5h-723zM301 1395q0 47 32 78.5t77 31.5q47 0 79.5 -31.5t32.5 -78.5q0 -44 -32.5 -75.5t-79.5 -31.5q-44 0 -76.5 31.5t-32.5 75.5zM737 1395q0 47 32 78.5t77 31.5q47 0 79.5 -31.5 t32.5 -78.5q0 -44 -32.5 -75.5t-79.5 -31.5q-44 0 -76.5 31.5t-32.5 75.5z" />
<glyph unicode="&#xec;" horiz-adv-x="485" d="M35 1563h201l213 -289h-132zM162 0h162v1112h-162v-1112z" />
<glyph unicode="&#xed;" horiz-adv-x="485" d="M35 1274l213 289h203l-283 -289h-133zM162 0h162v1112h-162v-1112z" />
<glyph unicode="&#xee;" horiz-adv-x="489" d="M-57 1274l213 289h172l217 -289h-121l-180 186l-183 -186h-118zM164 0h162v1112h-162v-1112z" />
<glyph unicode="&#xef;" horiz-adv-x="493" d="M-82 1395q0 47 32 78.5t77 31.5q47 0 79.5 -31.5t32.5 -78.5q0 -44 -32.5 -75.5t-79.5 -31.5q-44 0 -76.5 31.5t-32.5 75.5zM166 0h162v1112h-162v-1112zM354 1395q0 47 32 78.5t77 31.5q47 0 79.5 -31.5t32.5 -78.5q0 -44 -32.5 -75.5t-79.5 -31.5q-44 0 -76.5 31.5 t-32.5 75.5z" />
<glyph unicode="&#xf0;" horiz-adv-x="1292" d="M113 508q0 148 65 274t183.5 201.5t265.5 75.5q193 0 327 -158q-89 249 -262 432l-254 -133l-47 92l221 115q-144 113 -270 180l70 94q161 -91 321 -213l297 154l47 -90l-258 -133q159 -155 253.5 -369t94.5 -442q0 -148 -42 -268t-115.5 -196.5t-170 -117.5t-208.5 -41 q-118 0 -217 45t-164 120.5t-101 173t-36 204.5zM276 514q0 -78 22 -147t64.5 -124t111.5 -87.5t157 -32.5q78 0 141.5 25.5t106 67.5t71.5 97.5t41.5 114t12.5 119.5q0 160 -91.5 257t-261.5 97q-94 0 -167 -31t-117.5 -85t-67.5 -123t-23 -148z" />
<glyph unicode="&#xf1;" horiz-adv-x="1271" d="M172 0v1112h137l21 -141q103 92 192.5 128t179.5 36q86 0 158.5 -27.5t129.5 -82t89.5 -144t32.5 -205.5v-676h-162v664q0 66 -15.5 121t-47 99t-84.5 68.5t-123 24.5q-135 0 -240.5 -79t-105.5 -159v-739h-162zM358 1294q9 91 52.5 148t115.5 57q55 0 131 -47 q61 -37 91 -37t54 22.5t36 61.5h88q-9 -89 -53.5 -147t-114.5 -58q-24 0 -49.5 8.5t-36.5 14.5t-41 24q-4 2 -18 9.5t-20.5 10.5t-18 8t-20.5 7t-17 2q-30 0 -54.5 -22.5t-36.5 -61.5h-88z" />
<glyph unicode="&#xf2;" horiz-adv-x="1306" d="M96 549q0 117 40 223t110.5 186.5t176.5 128.5t230 48q125 0 231 -48t176.5 -129t110 -187.5t39.5 -223.5q0 -113 -37 -216t-105.5 -183t-175.5 -127.5t-237 -47.5t-237.5 47.5t-177 128t-107 183.5t-37.5 217zM262 553q0 -82 23 -156t69 -134.5t123 -96t176 -35.5 q100 0 177 35.5t122.5 96t68.5 134t23 156.5q0 115 -41.5 209t-132 154.5t-217.5 60.5q-126 0 -216.5 -60t-132.5 -154t-42 -210zM446 1563h201l213 -289h-131z" />
<glyph unicode="&#xf3;" horiz-adv-x="1306" d="M96 549q0 117 40 223t110.5 186.5t176.5 128.5t230 48q125 0 231 -48t176.5 -129t110 -187.5t39.5 -223.5q0 -113 -37 -216t-105.5 -183t-175.5 -127.5t-237 -47.5t-237.5 47.5t-177 128t-107 183.5t-37.5 217zM262 553q0 -82 23 -156t69 -134.5t123 -96t176 -35.5 q100 0 177 35.5t122.5 96t68.5 134t23 156.5q0 115 -41.5 209t-132 154.5t-217.5 60.5q-126 0 -216.5 -60t-132.5 -154t-42 -210zM446 1274l213 289h203l-282 -289h-134z" />
<glyph unicode="&#xf4;" horiz-adv-x="1306" d="M96 549q0 117 40 223t110.5 186.5t176.5 128.5t230 48q125 0 231 -48t176.5 -129t110 -187.5t39.5 -223.5q0 -113 -37 -216t-105.5 -183t-175.5 -127.5t-237 -47.5t-237.5 47.5t-177 128t-107 183.5t-37.5 217zM262 553q0 -82 23 -156t69 -134.5t123 -96t176 -35.5 q100 0 177 35.5t122.5 96t68.5 134t23 156.5q0 115 -41.5 209t-132 154.5t-217.5 60.5q-126 0 -216.5 -60t-132.5 -154t-42 -210zM352 1274l213 289h172l217 -289h-120l-181 186l-182 -186h-119z" />
<glyph unicode="&#xf5;" horiz-adv-x="1306" d="M96 549q0 117 40 223t110.5 186.5t176.5 128.5t230 48q125 0 231 -48t176.5 -129t110 -187.5t39.5 -223.5q0 -113 -37 -216t-105.5 -183t-175.5 -127.5t-237 -47.5t-237.5 47.5t-177 128t-107 183.5t-37.5 217zM262 553q0 -82 23 -156t69 -134.5t123 -96t176 -35.5 q100 0 177 35.5t122.5 96t68.5 134t23 156.5q0 115 -41.5 209t-132 154.5t-217.5 60.5q-126 0 -216.5 -60t-132.5 -154t-42 -210zM371 1294q9 91 52.5 148t115.5 57q55 0 131 -47q61 -37 90 -37q30 0 54 22.5t36 61.5h88q-9 -89 -53.5 -147t-114.5 -58q-24 0 -49.5 8.5 t-36.5 14.5t-41 24q-4 2 -18 9.5t-20.5 10.5t-18 8t-20.5 7t-17 2q-30 0 -54 -22.5t-36 -61.5h-88z" />
<glyph unicode="&#xf6;" horiz-adv-x="1306" d="M96 549q0 117 40 223t110.5 186.5t176.5 128.5t230 48q125 0 231 -48t176.5 -129t110 -187.5t39.5 -223.5q0 -113 -37 -216t-105.5 -183t-175.5 -127.5t-237 -47.5t-237.5 47.5t-177 128t-107 183.5t-37.5 217zM262 553q0 -82 23 -156t69 -134.5t123 -96t176 -35.5 q100 0 177 35.5t122.5 96t68.5 134t23 156.5q0 115 -41.5 209t-132 154.5t-217.5 60.5q-126 0 -216.5 -60t-132.5 -154t-42 -210zM326 1395q0 47 31.5 78.5t76.5 31.5q48 0 80.5 -31.5t32.5 -78.5q0 -44 -33 -75.5t-80 -31.5q-44 0 -76 31.5t-32 75.5zM762 1395 q0 47 31.5 78.5t76.5 31.5q48 0 80.5 -31.5t32.5 -78.5q0 -44 -33 -75.5t-80 -31.5q-44 0 -76 31.5t-32 75.5z" />
<glyph unicode="&#xf7;" horiz-adv-x="931" d="M72 586v166h788v-166h-788zM350 369q0 49 33.5 81.5t83.5 32.5t82.5 -32.5t32.5 -81.5q0 -48 -33 -80.5t-82 -32.5t-83 33t-34 80zM350 967q0 49 33.5 80.5t83.5 31.5t82.5 -31.5t32.5 -80.5t-33 -82t-82 -33q-50 0 -83.5 33t-33.5 82z" />
<glyph unicode="&#xf8;" horiz-adv-x="1310" d="M96 549q0 156 67 289t195.5 215t292.5 82q189 0 332 -107l117 139q16 -12 36.5 -30t32.5 -27l-118 -143q76 -82 117.5 -191t41.5 -229q0 -113 -37 -216t-105.5 -183t-175.5 -127.5t-237 -47.5q-198 0 -338 105l-110 -135l-74 53l117 141q-75 81 -114.5 188t-39.5 224z M262 553q0 -174 92 -291l531 645q-96 70 -232 70q-126 0 -216.5 -60t-132.5 -154t-42 -210zM418 199q93 -68 233 -68q101 0 178.5 35.5t123 96t68.5 134t23 156.5q0 175 -94 291z" />
<glyph unicode="&#xf9;" horiz-adv-x="1249" d="M158 432v680h161v-668q0 -66 15.5 -121t47 -99t85 -68.5t123.5 -24.5q85 0 162 40t120 95.5t43 106.5v739h162v-1112h-137l-20 141q-178 -168 -353 -168q-86 0 -158.5 27.5t-129.5 82t-89 144t-32 205.5zM410 1563h200l213 -289h-131z" />
<glyph unicode="&#xfa;" horiz-adv-x="1249" d="M158 432v680h161v-668q0 -66 15.5 -121t47 -99t85 -68.5t123.5 -24.5q85 0 162 40t120 95.5t43 106.5v739h162v-1112h-137l-20 141q-178 -168 -353 -168q-86 0 -158.5 27.5t-129.5 82t-89 144t-32 205.5zM410 1274l213 289h202l-282 -289h-133z" />
<glyph unicode="&#xfb;" horiz-adv-x="1249" d="M158 432v680h161v-668q0 -66 15.5 -121t47 -99t85 -68.5t123.5 -24.5q85 0 162 40t120 95.5t43 106.5v739h162v-1112h-137l-20 141q-178 -168 -353 -168q-86 0 -158.5 27.5t-129.5 82t-89 144t-32 205.5zM315 1274l213 289h172l218 -289h-121l-181 186l-182 -186h-119z " />
<glyph unicode="&#xfc;" horiz-adv-x="1249" d="M158 432v680h161v-668q0 -66 15.5 -121t47 -99t85 -68.5t123.5 -24.5q85 0 162 40t120 95.5t43 106.5v739h162v-1112h-137l-20 141q-178 -168 -353 -168q-86 0 -158.5 27.5t-129.5 82t-89 144t-32 205.5zM289 1395q0 47 31.5 78.5t76.5 31.5q48 0 80.5 -31.5t32.5 -78.5 q0 -44 -33 -75.5t-80 -31.5q-44 0 -76 31.5t-32 75.5zM725 1395q0 47 32 78.5t77 31.5q47 0 79.5 -31.5t32.5 -78.5q0 -44 -32.5 -75.5t-79.5 -31.5q-44 0 -76.5 31.5t-32.5 75.5z" />
<glyph unicode="&#xfd;" horiz-adv-x="1052" d="M25 1112h168l327 -844l344 844h164l-633 -1542h-162l207 506zM319 1274l213 289h203l-282 -289h-134z" />
<glyph unicode="&#xfe;" horiz-adv-x="1349" d="M172 -430v1993h162v-588q180 160 383 160q120 0 221 -47t168.5 -126.5t105 -183t37.5 -217.5q0 -157 -68 -290.5t-195.5 -215.5t-287.5 -82q-85 0 -170.5 33t-193.5 125v-561h-162zM334 369q0 -82 106 -160t256 -78q94 0 169.5 35t122 95.5t71 136.5t24.5 161 q0 83 -23 156.5t-68 133t-119.5 94t-170.5 34.5q-157 0 -262.5 -82.5t-105.5 -179.5v-346z" />
<glyph unicode="&#xff;" horiz-adv-x="1052" d="M25 1112h168l327 -844l344 844h164l-633 -1542h-162l207 506zM199 1395q0 47 31.5 78.5t76.5 31.5q48 0 80.5 -31.5t32.5 -78.5q0 -44 -33 -75.5t-80 -31.5q-44 0 -76 31.5t-32 75.5zM635 1395q0 47 31.5 78.5t76.5 31.5q48 0 80.5 -31.5t32.5 -78.5q0 -44 -33 -75.5 t-80 -31.5q-44 0 -76 31.5t-32 75.5z" />
<glyph unicode="&#x152;" horiz-adv-x="2422" d="M102 766q0 159 54 304.5t150.5 256t240 176.5t311.5 66q179 0 325.5 -73t248.5 -202v246h892v-166h-722v-500h641v-165h-641v-543h722v-166h-892v238q-99 -125 -245 -195t-329 -70q-175 0 -320 66t-239 177t-145.5 253t-51.5 297zM281 766q0 -99 20 -190t64.5 -173 t110.5 -142.5t163.5 -96t216.5 -35.5q120 0 218 36t163.5 97t110 143.5t64.5 174t20 190.5q0 132 -37.5 247.5t-108 204t-181.5 140t-249 51.5q-140 0 -251.5 -52.5t-181 -143t-106 -206t-36.5 -245.5z" />
<glyph unicode="&#x153;" horiz-adv-x="2111" d="M96 549q0 117 38.5 223t106.5 186.5t170 128.5t222 48q149 0 265.5 -71t186.5 -192q68 119 190 191t259 72q144 0 258.5 -81.5t175 -214.5t60.5 -290v-29h-859q8 -76 33 -143t68 -123.5t112 -89.5t156 -33q107 0 187 50t126 138l148 -63q-64 -133 -184 -208t-279 -75 q-151 0 -266.5 67.5t-184.5 182.5q-69 -116 -183.5 -183t-266.5 -67q-126 0 -229.5 47.5t-170.5 128t-103 183.5t-36 217zM262 553q0 -82 22 -156t65.5 -134.5t116.5 -96t167 -35.5q95 0 168 35.5t116.5 96t65 134t21.5 156.5q0 85 -23.5 160.5t-68 135t-116.5 94t-163 34.5 q-90 0 -162 -34.5t-117 -93.5t-68.5 -134.5t-23.5 -161.5zM1178 659h682q-18 134 -110.5 226t-227.5 92q-133 0 -226.5 -89.5t-117.5 -228.5z" />
<glyph unicode="&#x178;" horiz-adv-x="1134" d="M-8 1540h196l400 -733l375 733h178l-471 -915v-625h-170v625zM240 1798q0 47 31.5 79t76.5 32q47 0 80 -32t33 -79q0 -44 -33 -75t-80 -31q-44 0 -76 31t-32 75zM676 1798q0 47 31.5 79t76.5 32q47 0 80 -32t33 -79q0 -44 -33 -75t-80 -31q-44 0 -76 31t-32 75z" />
<glyph unicode="&#x2c6;" horiz-adv-x="1183" d="M291 1274l213 289h172l217 -289h-121l-180 186l-182 -186h-119z" />
<glyph unicode="&#x2dc;" horiz-adv-x="1210" d="M322 1298q10 91 52.5 148t114.5 57q56 0 132 -47q61 -37 90 -37q30 0 54 22.5t36 61.5h88q-9 -89 -53.5 -147t-114.5 -58q-9 0 -19 1.5t-16.5 2.5t-17 5.5t-15 6t-16 7.5t-14 7.5t-15.5 9t-14 8.5q-70 36 -94 36q-30 0 -54 -22.5t-36 -61.5h-88z" />
<glyph unicode="&#x2000;" horiz-adv-x="1007" />
<glyph unicode="&#x2001;" horiz-adv-x="2015" />
<glyph unicode="&#x2002;" horiz-adv-x="1007" />
<glyph unicode="&#x2003;" horiz-adv-x="2015" />
<glyph unicode="&#x2004;" horiz-adv-x="671" />
<glyph unicode="&#x2005;" horiz-adv-x="503" />
<glyph unicode="&#x2006;" horiz-adv-x="335" />
<glyph unicode="&#x2007;" horiz-adv-x="335" />
<glyph unicode="&#x2008;" horiz-adv-x="251" />
<glyph unicode="&#x2009;" horiz-adv-x="403" />
<glyph unicode="&#x200a;" horiz-adv-x="111" />
<glyph unicode="&#x2010;" horiz-adv-x="751" d="M86 582v166h580v-166h-580z" />
<glyph unicode="&#x2011;" horiz-adv-x="751" d="M86 582v166h580v-166h-580z" />
<glyph unicode="&#x2012;" horiz-adv-x="751" d="M86 582v166h580v-166h-580z" />
<glyph unicode="&#x2013;" horiz-adv-x="1075" d="M86 582v166h903v-166h-903z" />
<glyph unicode="&#x2014;" horiz-adv-x="1536" d="M86 582v166h1364v-166h-1364z" />
<glyph unicode="&#x2018;" horiz-adv-x="518" d="M119 1268q0 55 29.5 115t92.5 114.5t146 77.5v-68q-46 -12 -85.5 -44.5t-61.5 -80.5q56 -3 91.5 -39.5t35.5 -85.5q0 -52 -36.5 -86t-88.5 -34q-49 0 -86 34.5t-37 96.5z" />
<glyph unicode="&#x2019;" horiz-adv-x="518" d="M131 1139v67q102 28 148 125q-56 3 -91.5 39.5t-35.5 85.5q0 52 36 86.5t88 34.5q49 0 86 -34.5t37 -96.5q0 -55 -29.5 -115t-92.5 -114.5t-146 -77.5z" />
<glyph unicode="&#x201a;" horiz-adv-x="518" d="M131 -152q102 28 148 125q-56 3 -91.5 39.5t-35.5 85.5q0 52 36 86.5t88 34.5q49 0 86 -34.5t37 -96.5q0 -55 -29.5 -115t-92.5 -114.5t-146 -77.5v67z" />
<glyph unicode="&#x201c;" horiz-adv-x="858" d="M119 1268q0 55 29.5 115t92.5 114.5t146 77.5v-68q-46 -12 -85.5 -44.5t-61.5 -80.5q56 -3 91.5 -39.5t35.5 -85.5q0 -52 -36.5 -86t-88.5 -34q-49 0 -86 34.5t-37 96.5zM459 1268q0 55 29.5 115t92.5 114.5t146 77.5v-68q-46 -12 -85.5 -44.5t-61.5 -80.5 q56 -3 91.5 -39.5t35.5 -85.5q0 -52 -36.5 -86t-88.5 -34q-49 0 -86 34.5t-37 96.5z" />
<glyph unicode="&#x201d;" horiz-adv-x="858" d="M131 1139v67q102 28 148 125q-56 3 -91.5 39.5t-35.5 85.5q0 52 36 86.5t88 34.5q49 0 86 -34.5t37 -96.5q0 -55 -29.5 -115t-92.5 -114.5t-146 -77.5zM471 1139v67q46 12 85.5 44.5t61.5 80.5q-55 3 -90.5 39.5t-35.5 85.5q0 52 36 86.5t88 34.5q49 0 86 -34.5t37 -96.5 q0 -55 -29.5 -115t-92.5 -114.5t-146 -77.5z" />
<glyph unicode="&#x201e;" horiz-adv-x="858" d="M131 -152q102 28 148 125q-56 3 -91.5 39.5t-35.5 85.5q0 52 36 86.5t88 34.5q49 0 86 -34.5t37 -96.5q0 -55 -29.5 -115t-92.5 -114.5t-146 -77.5v67zM471 -152q46 12 85.5 44.5t61.5 80.5q-55 3 -90.5 39.5t-35.5 85.5q0 52 36 86.5t88 34.5q49 0 86 -34.5t37 -96.5 q0 -55 -29.5 -115t-92.5 -114.5t-146 -77.5v67z" />
<glyph unicode="&#x2022;" horiz-adv-x="630" d="M84 637q0 97 67 164t164 67q96 0 164 -67.5t68 -163.5q0 -97 -68.5 -162t-163.5 -65q-96 0 -163.5 65t-67.5 162z" />
<glyph unicode="&#x2026;" horiz-adv-x="1409" d="M135 96q0 52 36 87.5t89 35.5t89 -35.5t36 -87.5t-36 -87.5t-89 -35.5t-89 35.5t-36 87.5zM580 96q0 52 36 87.5t89 35.5t88.5 -35.5t35.5 -87.5t-35.5 -87.5t-88.5 -35.5t-89 35.5t-36 87.5zM1024 96q0 52 36 87.5t89 35.5t89 -35.5t36 -87.5t-36 -87.5t-89 -35.5 t-89 35.5t-36 87.5z" />
<glyph unicode="&#x202f;" horiz-adv-x="403" />
<glyph unicode="&#x2039;" horiz-adv-x="667" d="M94 563v58l369 374l90 -75l-283 -328l283 -326l-90 -76z" />
<glyph unicode="&#x203a;" horiz-adv-x="667" d="M115 266l282 326l-282 328l90 75l368 -374v-58l-368 -373z" />
<glyph unicode="&#x205f;" horiz-adv-x="503" />
<glyph unicode="&#x20ac;" horiz-adv-x="1239" d="M47 567v115h150q-4 37 -4 84q0 41 4 80h-150v115h162q23 125 72.5 233t122 193t173.5 133.5t218 48.5q114 0 223.5 -45t193.5 -129l-108 -105q-120 117 -307 117q-86 0 -158 -35t-123.5 -97t-86.5 -141t-54 -173h606l-16 -115h-598q-5 -49 -5 -80q0 -38 5 -84h573 l-16 -115h-549q18 -90 51.5 -165.5t83.5 -136.5t121 -95.5t157 -34.5q90 0 178.5 35t159.5 109l101 -109q-89 -87 -208.5 -142t-232.5 -55q-117 0 -216.5 48t-170.5 131.5t-119 188.5t-71 226h-162z" />
<glyph unicode="&#x2122;" horiz-adv-x="1384" d="M6 1446v94h522v-94h-215v-625h-100v625h-207zM633 821v719h129l219 -565l211 565h131v-719h-100v545l-207 -545h-78l-207 545v-545h-98z" />
<glyph unicode="&#x25fc;" horiz-adv-x="1116" d="M0 0v1116h1116v-1116h-1116z" />
<glyph unicode="&#xfb01;" horiz-adv-x="1089" d="M63 963v149h158v80q0 195 87.5 290t273.5 95h30v-158h-28q-62 0 -103 -17t-61.5 -51t-28.5 -73.5t-8 -95.5v-70h537v-1112h-162v963h-375v-963h-162v963h-158zM723 1423q0 47 34 82t81 35t81.5 -35t34.5 -82t-34.5 -80.5t-81.5 -33.5t-81 33.5t-34 80.5z" />
<glyph unicode="&#xfb02;" horiz-adv-x="1183" d="M63 963v149h158v80q0 195 87.5 290t273.5 95h338v-1286q0 -164 127 -164q32 0 53 6v-127q-67 -33 -125 -33q-99 0 -158 74t-59 234v1138h-174q-62 0 -103 -17t-61.5 -51t-28.5 -73.5t-8 -95.5v-70h209v-149h-209v-963h-162v963h-158z" />
<glyph unicode="&#xfb03;" horiz-adv-x="1626" d="M63 963v149h158v80q0 195 87.5 290t273.5 95h71v-158h-69q-62 0 -103 -17t-61.5 -51t-28.5 -73.5t-8 -95.5v-70h375v80q0 195 87 290t273 95h31v-158h-29q-62 0 -103 -17t-61.5 -51t-28 -73.5t-7.5 -95.5v-70h536v-1112h-162v963h-374v-963h-162v963h-375v-963h-162v963 h-158zM1260 1423q0 48 33.5 82.5t80.5 34.5t82 -35t35 -82t-34.5 -80.5t-82.5 -33.5q-47 0 -80.5 33.5t-33.5 80.5z" />
<glyph unicode="&#xfb04;" horiz-adv-x="1720" d="M63 963v149h158v80q0 195 87.5 290t273.5 95h71v-158h-69q-62 0 -103 -17t-61.5 -51t-28.5 -73.5t-8 -95.5v-70h375v80q0 195 87 290t273 95h338v-1286q0 -164 127 -164q32 0 53 6v-127q-67 -33 -125 -33q-99 0 -158 74t-59 234v1138h-174q-62 0 -103 -17t-61.5 -51 t-28 -73.5t-7.5 -95.5v-70h208v-149h-208v-963h-162v963h-375v-963h-162v963h-158z" />
</font>
</defs>
</svg>
