<?xml version="1.0" standalone="no"?>
<!DOCTYPE svg PUBLIC "-//W3C//DTD SVG 1.1//EN" "http://www.w3.org/Graphics/SVG/1.1/DTD/svg11.dtd" >
<svg xmlns="http://www.w3.org/2000/svg" xmlns:xlink="http://www.w3.org/1999/xlink" version="1.1">
<metadata></metadata>
<defs>
<font id="sj_sansitalic" horiz-adv-x="1292" >
<font-face units-per-em="2048" ascent="1587" descent="-461" />
<missing-glyph horiz-adv-x="491" />
<glyph horiz-adv-x="0" />
<glyph horiz-adv-x="0" />
<glyph horiz-adv-x="682" />
<glyph unicode="&#xd;" horiz-adv-x="491" />
<glyph unicode=" "  horiz-adv-x="491" />
<glyph unicode="&#x09;" horiz-adv-x="491" />
<glyph unicode="&#xa0;" horiz-adv-x="491" />
<glyph unicode="!" horiz-adv-x="622" d="M98 78q0 57 45.5 99t102.5 42q47 0 76.5 -29.5t29.5 -74.5q0 -58 -43.5 -100t-101.5 -42q-47 0 -78 30t-31 75zM227 449l80 620l80 471h188l-90 -471l-135 -620h-123z" />
<glyph unicode="&#x22;" horiz-adv-x="800" d="M295 1288q0 289 121 289q36 0 56 -27.5t20 -66.5q0 -41 -21.5 -110t-55 -153.5t-34.5 -86.5h-84q-2 112 -2 155zM602 1288q0 289 121 289q36 0 56 -27.5t20 -66.5q0 -41 -21.5 -110t-55 -153.5t-34.5 -86.5h-84q-2 112 -2 155z" />
<glyph unicode="#" horiz-adv-x="1220" d="M53 463l25 133h207l112 371h-207l25 133h221l142 469h141l-141 -469h323l141 469h142l-142 -469h203l-24 -133h-217l-113 -371h217l-25 -133h-231l-139 -463h-142l140 463h-324l-139 -463h-142l140 463h-193zM426 596h324l112 371h-323z" />
<glyph unicode="$" horiz-adv-x="1150" d="M37 397l143 70q11 -49 26 -86.5t41 -74.5t68 -62t99 -35l125 541q-50 29 -86 53t-75.5 58.5t-63.5 69.5t-40 82.5t-16 100.5q0 112 62.5 199t164.5 132.5t224 47.5l51 221h133l-53 -235q110 -26 180 -94.5t96 -159.5l-139 -58q-39 130 -172 164l-111 -485 q66 -36 106 -60.5t86 -61t70.5 -71t41 -83t16.5 -105.5q0 -186 -142 -300.5t-360 -119.5l-57 -256h-136l60 264q-277 52 -342 344zM418 1112q0 -62 35.5 -104.5t121.5 -94.5l99 426q-124 -9 -190 -73.5t-66 -153.5zM549 203q136 9 220.5 75.5t84.5 174.5q0 72 -45 120 t-152 111z" />
<glyph unicode="%" horiz-adv-x="1906" d="M139 1094q0 123 60 232t165.5 176t229.5 67q156 0 245 -101.5t89 -250.5q0 -89 -33.5 -174.5t-92 -152t-144.5 -107t-183 -40.5q-83 0 -148.5 29.5t-105.5 79t-61 111.5t-21 131zM274 1092q0 -44 10 -81.5t33 -69.5t64.5 -50.5t99.5 -18.5q98 0 171 53.5t107 131.5 t34 164q0 96 -48.5 157.5t-154.5 61.5q-138 0 -227 -104t-89 -244zM348 -35l1110 1612h146l-1110 -1612h-146zM1028 324q0 123 60 232t165.5 176t229.5 67q156 0 245 -102t89 -251q0 -89 -33.5 -174.5t-92 -151.5t-144.5 -106.5t-183 -40.5q-83 0 -148.5 29.5t-105.5 79 t-61 111.5t-21 131zM1163 322q0 -44 10 -81.5t33 -69.5t64.5 -50.5t99.5 -18.5q74 0 134.5 31t98 81.5t58 111.5t20.5 125q0 96 -48 157.5t-154 61.5q-138 0 -227 -104t-89 -244z" />
<glyph unicode="&#x26;" horiz-adv-x="1196" d="M33 342q0 299 373 496q-117 192 -117 333q0 170 124 284t310 114q153 0 235 -82t82 -219q0 -61 -18 -113.5t-62 -110.5t-125.5 -119t-201.5 -126l293 -463q90 104 157 278l109 -53q-56 -200 -197 -338l140 -223h-203l-72 109q-223 -136 -424 -136q-185 0 -294 99 t-109 270zM190 371q0 -114 76 -179t211 -65q148 0 307 98l-305 492q-44 -24 -68 -38.5t-64 -41t-63 -51.5t-47.5 -58t-35.5 -72.5t-11 -84.5zM444 1196q0 -55 26.5 -117t88.5 -161q188 108 255 176t67 159q0 162 -179 162q-113 0 -185.5 -59t-72.5 -160z" />
<glyph unicode="'" horiz-adv-x="493" d="M295 1288q0 289 121 289q36 0 56 -27.5t20 -66.5q0 -41 -21.5 -110t-55 -153.5t-34.5 -86.5h-84q-2 112 -2 155z" />
<glyph unicode="(" horiz-adv-x="737" d="M150 532q0 182 41 355.5t121 334t181.5 305.5t237.5 298l100 -58q-512 -615 -512 -1249q0 -192 43.5 -394.5t120.5 -363.5l-112 -55q-221 404 -221 827z" />
<glyph unicode=")" horiz-adv-x="737" d="M-80 -238q512 615 512 1250q0 192 -43.5 394t-120.5 363l113 56q221 -404 221 -828q0 -182 -41 -355t-121 -333.5t-181.5 -305.5t-238.5 -298z" />
<glyph unicode="*" horiz-adv-x="950" d="M289 1257l45 89l225 -64l70 258h100l-24 -252l251 58l15 -89l-246 -96l90 -219l-86 -57l-131 202l-201 -202l-71 57l174 219z" />
<glyph unicode="+" horiz-adv-x="974" d="M109 586l28 166h309l56 309h170l-56 -309h310l-29 -166h-309l-56 -310h-170l56 310h-309zM109 586l28 166h309l56 309h170l-56 -309h310l-29 -166h-309l-56 -310h-170l56 310h-309z" />
<glyph unicode="," horiz-adv-x="493" d="M-57 -219l12 67q48 13 93.5 45t76.5 80q-49 3 -79 34.5t-30 74.5q0 56 45.5 96.5t100.5 40.5q44 0 75 -28t31 -78q0 -90 -92 -192t-233 -140z" />
<glyph unicode="-" horiz-adv-x="759" d="M78 582l28 166h580l-29 -166h-579z" />
<glyph unicode="." horiz-adv-x="548" d="M51 78q0 57 45.5 99t102.5 42q47 0 76.5 -29.5t29.5 -74.5q0 -58 -43.5 -100t-101.5 -42q-47 0 -78 30t-31 75z" />
<glyph unicode="/" horiz-adv-x="854" d="M-131 -127l967 1794h159l-964 -1794h-162z" />
<glyph unicode="0" horiz-adv-x="1212" d="M96 647q0 228 79 431.5t221 329.5t311 126q108 0 197.5 -54.5t148 -148t90 -216.5t31.5 -261q0 -164 -44 -321.5t-121.5 -282t-193.5 -201t-250 -76.5q-91 0 -168 36t-132 99t-93.5 148.5t-57 184.5t-18.5 206zM268 641q0 -101 16.5 -188t51.5 -160t96 -114.5t143 -41.5 q83 0 153.5 43t120 115.5t84.5 167.5t51.5 198t16.5 207t-17.5 192t-52.5 159t-94.5 111t-136.5 40q-98 0 -181 -63t-137 -166t-84 -233t-30 -267z" />
<glyph unicode="1" horiz-adv-x="937" d="M59 0l29 158h231l181 1026q-107 -68 -269 -97l29 164q188 31 295 244h162l-236 -1337h230l-29 -158h-623z" />
<glyph unicode="2" horiz-adv-x="1185" d="M-20 0l26 147q13 70 31.5 125t52 102.5t65 81t91.5 74t108 69t138 77.5q194 106 260 152q158 110 187 232q7 31 7 64q0 110 -73 178t-195 68q-113 0 -200.5 -59.5t-137.5 -155.5l-143 70q70 134 197.5 221.5t295.5 87.5q120 0 216.5 -45t156 -136t59.5 -214 q0 -80 -27.5 -150.5t-71.5 -124.5t-112.5 -107t-136.5 -95t-158 -94q-9 -5 -14 -7.5t-13 -7t-14 -8.5q-80 -46 -125 -73.5t-93 -60t-72.5 -56t-48.5 -54t-36.5 -61.5t-21.5 -72h778l-28 -168h-948z" />
<glyph unicode="3" horiz-adv-x="1128" d="M-18 279l153 69q67 -211 309 -211q161 0 267 88.5t106 225.5q0 118 -80.5 189t-218.5 71h-102l26 153h76q159 0 271 84.5t112 206.5q0 95 -68.5 155t-185.5 60q-213 0 -334 -213l-143 70q85 145 211.5 226t288.5 81q178 0 292.5 -95.5t114.5 -258.5q0 -77 -26.5 -146 t-96.5 -135t-178 -104q107 -57 162 -139t55 -197q0 -139 -76 -251.5t-202 -173.5t-275 -61q-170 0 -291 82.5t-167 223.5z" />
<glyph unicode="4" horiz-adv-x="1183" d="M16 350l21 113l852 1032h213l-176 -993h184l-27 -152h-184l-61 -350h-162l61 350h-721zM238 502h526l141 803z" />
<glyph unicode="5" horiz-adv-x="1122" d="M-8 279l153 69q28 -93 105 -152t199 -59q170 0 281.5 114t111.5 286q0 140 -79 220.5t-218 80.5q-85 0 -163 -31t-136 -86l-125 24l266 750h717l-31 -168h-592l-135 -387q125 61 250 61q82 0 157 -29.5t134.5 -85t95 -142.5t35.5 -193q0 -162 -78.5 -295.5t-210 -208 t-285.5 -74.5q-160 0 -283 81t-169 225z" />
<glyph unicode="6" horiz-adv-x="1208" d="M117 524q0 152 38 300t111 275.5t172.5 225t231 153.5t276.5 56q155 0 279 -53l-101 -142q-91 31 -190 31q-205 0 -372 -158t-251 -436q196 203 414 203q186 0 307 -130t121 -327q0 -155 -79.5 -281.5t-212 -197t-288.5 -70.5q-102 0 -184 32.5t-143.5 98t-95 172.5 t-33.5 248zM287 430q0 -129 79 -211t216 -82q164 0 280.5 110t116.5 263q0 129 -84.5 218t-222.5 89q-160 0 -272.5 -113.5t-112.5 -273.5z" />
<glyph unicode="7" horiz-adv-x="1183" d="M246 0v23q0 139 52.5 295t133.5 294.5t188.5 277.5t209 245.5t202.5 195.5h-782l29 164h970l-26 -149q-40 -38 -83.5 -82t-116.5 -124.5t-138.5 -162t-140.5 -191.5t-133 -216.5t-106 -232t-69 -243.5q-7 -44 -10 -94h-180z" />
<glyph unicode="8" horiz-adv-x="1163" d="M78 375q0 165 108 280t277 166q-69 34 -118.5 115.5t-49.5 187.5q0 90 40 167.5t106 130t151 82.5t176 30q166 0 271.5 -94.5t105.5 -253.5q0 -77 -26.5 -141t-71.5 -107t-93 -71t-102 -46q121 -47 185.5 -141.5t64.5 -218.5q0 -140 -79.5 -253t-209.5 -174t-281 -61 q-203 0 -328.5 111.5t-125.5 290.5zM254 385q0 -116 80 -182t215 -66q163 0 272 92t109 238q0 120 -77 194t-210 74q-161 0 -275 -104t-114 -246zM459 1118q0 -87 55.5 -145t169.5 -58q132 0 213.5 76.5t81.5 182.5q0 91 -61.5 147.5t-163.5 56.5q-120 0 -207.5 -72.5 t-87.5 -187.5z" />
<glyph unicode="9" horiz-adv-x="1204" d="M39 27l100 141q91 -31 191 -31q208 0 374 159t248 452q-200 -203 -422 -203q-182 0 -300.5 125.5t-118.5 314.5q0 155 79.5 281.5t212 197t287.5 70.5q209 0 333 -137t124 -412q0 -152 -38 -300.5t-111.5 -276.5t-172 -225.5t-228.5 -153.5t-273 -56q-158 0 -285 54z M285 997q0 -121 82 -205.5t217 -84.5q162 0 277.5 109.5t115.5 260.5q0 129 -79 211t-216 82q-164 0 -280.5 -110t-116.5 -263z" />
<glyph unicode=":" horiz-adv-x="542" d="M51 78q0 57 45.5 99t102.5 42q47 0 76.5 -29.5t29.5 -74.5q0 -58 -43.5 -100t-101.5 -42q-47 0 -78 30t-31 75zM193 877q0 58 44.5 99.5t102.5 41.5q47 0 76.5 -30t29.5 -75q0 -58 -44.5 -99.5t-102.5 -41.5q-47 0 -76.5 30t-29.5 75z" />
<glyph unicode=";" horiz-adv-x="505" d="M-57 -219l12 67q48 13 93.5 45t76.5 80q-49 3 -79 34.5t-30 74.5q0 56 45.5 96.5t100.5 40.5q44 0 75 -28t31 -78q0 -90 -92 -192t-233 -140zM156 877q0 58 44.5 99.5t102.5 41.5q47 0 77 -30t30 -75q0 -58 -45 -99.5t-103 -41.5q-47 0 -76.5 30t-29.5 75z" />
<glyph unicode="&#x3c;" horiz-adv-x="1026" d="M104 584l31 170l842 303l-29 -170l-629 -223l549 -220l-28 -163z" />
<glyph unicode="=" horiz-adv-x="1048" d="M109 379l28 166h789l-29 -166h-788zM182 793l29 165h788l-28 -165h-789z" />
<glyph unicode="&#x3e;" horiz-adv-x="1026" d="M109 281l28 170l629 223l-549 219l29 164l735 -303l-31 -170z" />
<glyph unicode="?" horiz-adv-x="1126" d="M217 1108q0 88 41 171.5t110 147.5t168 103t207 39q82 0 149.5 -22.5t113.5 -60.5t78 -89t46.5 -106t14.5 -113q0 -129 -74 -223t-221 -179l-53 -31q-52 -30 -79 -48.5t-55.5 -46t-44 -60t-24.5 -78.5l-10 -53h-156l21 110q9 50 24 85t45.5 67t60.5 54t89 61l69 45 q138 89 184 140t46 130q0 112 -68.5 180t-173.5 68q-79 0 -157 -36.5t-130.5 -104t-52.5 -146.5l2 -18l-168 -27q-2 18 -2 41zM317 78q0 58 44 99.5t102 41.5q47 0 76.5 -29.5t29.5 -74.5q0 -58 -43.5 -100t-101.5 -42q-47 0 -77 30t-30 75z" />
<glyph unicode="@" horiz-adv-x="1781" d="M102 213q0 202 83.5 384t221.5 310t321.5 203.5t379.5 75.5q279 0 435.5 -147.5t156.5 -407.5q0 -118 -33 -223.5t-87 -181.5t-122.5 -132.5t-140.5 -84t-139 -27.5q-75 0 -123.5 35t-57.5 100q-167 -144 -301 -144q-101 0 -164 75t-63 202q0 100 41.5 209t111.5 198.5 t171.5 148t210.5 58.5q68 0 112.5 -24.5t71.5 -79.5l41 84h125l-178 -488q-35 -96 -35 -153q0 -111 86 -111q50 0 110 37.5t114 102.5t90 167t36 217q0 210 -120.5 336.5t-356.5 126.5q-165 0 -322.5 -65t-277.5 -176.5t-193.5 -272t-73.5 -338.5q0 -253 138.5 -392.5 t369.5 -139.5q183 0 357 94l24 -98q-199 -105 -411 -105q-177 0 -313 71t-216 214.5t-80 341.5zM621 260q0 -84 35 -125t92 -41q95 0 241 142l135 397q-26 58 -53.5 83t-79.5 25q-95 0 -182.5 -77.5t-137.5 -188.5t-50 -215z" />
<glyph unicode="A" horiz-adv-x="1241" d="M-96 0l796 1540h197l250 -1540h-174l-68 408h-614l-205 -408h-182zM371 567h510l-123 774z" />
<glyph unicode="B" horiz-adv-x="1388" d="M78 0l272 1540h508q195 0 317.5 -93t122.5 -265q0 -125 -65 -223.5t-172 -153.5q199 -97 199 -334q0 -214 -155 -342.5t-400 -128.5h-627zM276 166h418q180 0 281.5 89t101.5 230q0 111 -67.5 174.5t-198.5 63.5h-436zM403 881h330q179 0 281 83.5t102 211.5 q0 198 -266 198h-361z" />
<glyph unicode="C" horiz-adv-x="1601" d="M131 662q0 174 67 339t181 290.5t277.5 201.5t344.5 76q224 0 382.5 -112t232.5 -298l-154 -67q-25 65 -62.5 119t-93.5 101.5t-136.5 74t-178.5 26.5q-153 0 -283.5 -65.5t-216.5 -173t-134 -243.5t-48 -280q0 -105 26.5 -195t82 -165t153 -118.5t228.5 -43.5 q201 0 350.5 96.5t234.5 255.5l152 -75q-111 -192 -302.5 -312.5t-434.5 -120.5q-161 0 -290.5 56.5t-210.5 153t-124 219.5t-43 260z" />
<glyph unicode="D" horiz-adv-x="1503" d="M78 0l272 1540h379q152 0 274 -36t203.5 -98t135.5 -149.5t78 -186.5t24 -212q0 -81 -12 -160.5t-41 -165.5t-73 -162t-113 -145t-156.5 -118t-208 -78t-262.5 -29h-500zM279 166h290q145 0 262 34t197.5 94.5t134.5 147t78.5 188t24.5 220.5q0 92 -15 167.5t-53 143.5 t-99 113.5t-156.5 72.5t-221.5 27h-232z" />
<glyph unicode="E" horiz-adv-x="1198" d="M78 0l272 1540h893l-31 -166h-720l-91 -500h662l-29 -165h-661l-94 -543h763l-30 -166h-934z" />
<glyph unicode="F" horiz-adv-x="1142" d="M78 0l272 1540h893l-31 -166h-720l-91 -500h641l-28 -165h-641l-125 -709h-170z" />
<glyph unicode="G" horiz-adv-x="1607" d="M131 657q0 176 67 342t181 291.5t277 202t343 76.5q200 0 347 -90t225 -244l-154 -80q-112 258 -420 258q-126 0 -237 -42.5t-192.5 -116t-140.5 -170.5t-88.5 -208t-29.5 -227q0 -82 15 -155.5t50.5 -141.5t89 -116.5t135.5 -77.5t185 -29q171 0 307.5 75.5t227.5 203.5 l39 223h-414l29 166h583l-139 -797h-131l10 184q-103 -95 -245 -153t-297 -58q-148 0 -268.5 56t-196.5 152t-117 218t-41 258z" />
<glyph unicode="H" horiz-adv-x="1460" d="M78 0l272 1540h170l-119 -666h760l119 666h170l-272 -1540h-170l125 709h-760l-125 -709h-170z" />
<glyph unicode="I" horiz-adv-x="536" d="M78 0l272 1540h170l-272 -1540h-170z" />
<glyph unicode="J" horiz-adv-x="1091" d="M-4 283l158 65q7 -39 22.5 -74t44 -69.5t76.5 -55t111 -20.5q121 0 206 77.5t111 219.5l197 1114h170l-195 -1100q-12 -71 -36 -135.5t-65.5 -126t-95.5 -106t-132.5 -72t-170.5 -27.5q-314 0 -401 310z" />
<glyph unicode="K" horiz-adv-x="1290" d="M78 0l272 1540h170l-129 -725l762 725h211l-784 -745l561 -795h-201l-553 780l-139 -780h-170z" />
<glyph unicode="L" horiz-adv-x="1136" d="M78 0l272 1540h170l-244 -1374h723l-28 -166h-893z" />
<glyph unicode="M" horiz-adv-x="1820" d="M78 0l272 1540h240l254 -1298v-4l2 4l715 1298h249l-272 -1540h-170l225 1282l-708 -1282h-146l-260 1290l-2 6l-229 -1296h-170z" />
<glyph unicode="N" horiz-adv-x="1460" d="M78 0l272 1540h195l508 -1286l227 1286h170l-272 -1540h-199l-506 1282l-225 -1282h-170z" />
<glyph unicode="O" horiz-adv-x="1734" d="M137 662q0 174 67 339t181.5 290.5t278 201.5t344.5 76q155 0 282 -56t210 -152t128 -221t45 -266q0 -133 -39.5 -264.5t-116 -245.5t-180 -202t-241.5 -138.5t-291 -50.5q-161 0 -290.5 56.5t-210.5 153t-124 219.5t-43 260zM315 653q0 -105 26.5 -195.5t82 -166 t153 -119t228.5 -43.5q133 0 247.5 45.5t194.5 121t137 174.5t84 206.5t27 216.5q0 107 -28 198.5t-84.5 164.5t-152.5 115t-222 42q-127 0 -239 -42.5t-194 -115.5t-141.5 -169.5t-89 -207t-29.5 -225.5z" />
<glyph unicode="P" horiz-adv-x="1269" d="M78 0l272 1540h494q195 0 317.5 -105t122.5 -298q0 -216 -155 -344.5t-400 -128.5h-364l-117 -664h-170zM395 829h324q183 0 285 84.5t102 221.5q0 110 -69 174.5t-201 64.5h-344z" />
<glyph unicode="Q" horiz-adv-x="1734" d="M137 662q0 174 67 339t181.5 290.5t278 201.5t344.5 76q155 0 282 -56t210 -152t128 -221t45 -266q0 -221 -104.5 -425t-288.5 -330l125 -236l-143 -90l-129 246q-158 -66 -330 -66q-129 0 -238.5 37t-187.5 102t-132.5 152t-81 188t-26.5 210zM315 653q0 -83 16 -157.5 t52.5 -142.5t92 -117t140.5 -78t191 -29q139 0 254 47l-121 234l143 86l123 -236q140 108 214.5 280t74.5 353q0 107 -28 198.5t-84.5 164.5t-152.5 115t-222 42q-127 0 -239 -42.5t-194 -115.5t-141.5 -169.5t-89 -207t-29.5 -225.5z" />
<glyph unicode="R" d="M78 0l272 1540h494q195 0 317.5 -102t122.5 -291q0 -199 -138 -323.5t-360 -139.5l381 -684h-190l-375 682h-233l-121 -682h-170zM397 848h322q181 0 282 82.5t101 214.5q0 106 -68 167.5t-198 61.5h-347z" />
<glyph unicode="S" horiz-adv-x="1206" d="M25 362l159 76q10 -42 21.5 -75t30 -68.5t45.5 -61.5t63 -47t86.5 -32t112.5 -11q168 0 275.5 75.5t107.5 203.5q0 40 -12 72.5t-34.5 59t-59.5 53t-80.5 52.5t-103.5 60q-10 5 -15 8q-47 27 -76 44t-70.5 45t-67 51t-54.5 55.5t-45 65.5t-27 75t-11 88q0 126 70.5 222.5 t184.5 146t249 49.5q179 0 291 -83.5t149 -211.5l-151 -66q-57 195 -297 195q-154 0 -237 -74t-83 -180q0 -44 15 -78t52.5 -65.5t77.5 -56t113 -65.5l33 -18q53 -30 84.5 -48.5t75.5 -47.5t69.5 -52t55 -56t44.5 -66t25.5 -75t10.5 -89q0 -136 -76 -241.5t-205.5 -161.5 t-290.5 -56q-217 0 -340.5 103.5t-164.5 285.5z" />
<glyph unicode="T" horiz-adv-x="1226" d="M215 1374l29 166h1083l-29 -166h-456l-242 -1374h-170l242 1374h-457z" />
<glyph unicode="U" horiz-adv-x="1468" d="M184 421l-2 38q0 52 11 104l172 977h170l-175 -991q-9 -48 -9 -95t8.5 -95.5t31.5 -89t58 -72.5t90.5 -50t126.5 -18q104 0 188 38.5t136.5 102t84.5 133.5t45 146l174 991h170l-180 -1020q-19 -109 -65.5 -204.5t-120.5 -173.5t-185 -123.5t-245 -45.5q-96 0 -176 24 t-134.5 66t-94.5 99t-56.5 122.5t-22.5 136.5z" />
<glyph unicode="V" horiz-adv-x="1245" d="M188 1540h174l193 -1304l657 1304h181l-777 -1540h-196z" />
<glyph unicode="W" horiz-adv-x="2082" d="M219 1540h174l152 -1302l575 1302h178l95 -1302l632 1302h160l-731 -1540h-197l-108 1243l-543 -1243h-196z" />
<glyph unicode="X" horiz-adv-x="1273" d="M-68 0l650 801l-334 739h192l265 -590l475 590h188l-594 -745l361 -795h-191l-293 647l-524 -647h-195z" />
<glyph unicode="Y" horiz-adv-x="1191" d="M190 1540h189l270 -733l504 733h186l-632 -915l-111 -625h-170l111 625z" />
<glyph unicode="Z" horiz-adv-x="1296" d="M-2 0l31 178l1077 1196h-881l31 166h1094l-33 -186l-1073 -1188h923l-28 -166h-1141z" />
<glyph unicode="[" horiz-adv-x="704" d="M16 -242l355 2014h438l-21 -123h-272l-311 -1768h272l-22 -123h-439z" />
<glyph unicode="\" horiz-adv-x="880" d="M203 1667h151l336 -1794h-153z" />
<glyph unicode="]" horiz-adv-x="700" d="M-90 -242l20 123h273l311 1768h-272l22 123h438l-354 -2014h-438z" />
<glyph unicode="^" horiz-adv-x="1224" d="M190 678l543 883h164l231 -883h-167l-170 723l-431 -723h-170z" />
<glyph unicode="_" horiz-adv-x="1261" d="M-68 -311l31 170h1182l-31 -170h-1182z" />
<glyph unicode="`" horiz-adv-x="1298" d="M588 1563h200l213 -289h-131z" />
<glyph unicode="a" d="M90 473q0 182 81 334t222 240t309 88q84 0 161.5 -33t166.5 -125l45 135h139l-141 -809q-7 -38 -7 -66q0 -39 14 -61q22 -36 77 -37q29 0 62 13l-23 -127q-82 -39 -147 -39q-66 0 -104 42q-36 40 -36 102v7q-197 -164 -389 -164q-134 0 -233 67.5t-148 179.5t-49 253z M258 481q0 -73 18 -135t53.5 -111t95.5 -76.5t138 -27.5q142 0 245.5 81t119.5 181l59 346q2 9 2 19q1 28 -13 58q-18 41 -54 77t-97.5 60t-136.5 24q-129 0 -228.5 -70t-150.5 -182.5t-51 -243.5z" />
<glyph unicode="b" horiz-adv-x="1347" d="M70 0l274 1563h162l-103 -586q124 92 216.5 125t177.5 33q212 0 335 -142t123 -358q0 -124 -43 -241.5t-120 -211.5t-197 -151.5t-262 -57.5q-222 0 -381 164l-47 -137h-135zM301 393q-3 -14 -3 -28q0 -32 14 -64q20 -47 62.5 -84.5t112 -61.5t152.5 -24q92 0 168.5 29.5 t127.5 78.5t87 114t52 133.5t16 138.5q0 156 -82 254t-244 98q-149 0 -268 -78t-134 -160z" />
<glyph unicode="c" horiz-adv-x="1169" d="M82 465q0 103 28 201.5t83.5 183t132 148.5t180 100.5t221.5 36.5q164 0 274.5 -68t165.5 -186l-153 -72q-77 168 -307 168q-113 0 -202.5 -42t-144 -112.5t-82.5 -157t-28 -182.5q0 -58 10.5 -108t35 -96t62.5 -78t96.5 -51t133.5 -19q126 0 220 51.5t153 139.5l143 -70 q-83 -129 -220 -204t-315 -75q-126 0 -221.5 39t-152.5 108.5t-85 156t-28 188.5z" />
<glyph unicode="d" horiz-adv-x="1325" d="M90 475q0 127 44.5 245t124 210.5t200.5 148.5t264 56q94 0 181.5 -33t187.5 -125l102 586h162l-275 -1563h-135v137q-200 -164 -399 -164q-142 0 -247.5 68.5t-157.5 181t-52 252.5zM258 485q0 -74 18.5 -136t55.5 -112t100.5 -78t147.5 -28q153 0 273 83t136 179 l58 334q2 10 2 20q1 31 -15 63q-20 44 -62.5 81t-113 61.5t-153.5 24.5q-89 0 -163.5 -28t-126 -76t-87.5 -111.5t-53 -133.5t-17 -143z" />
<glyph unicode="e" horiz-adv-x="1224" d="M82 461q0 103 29 202.5t84.5 184.5t130.5 149.5t173.5 101t207.5 36.5q124 0 217 -47.5t144 -128.5q52 -81 70 -186q10 -55 9 -113q0 -54 -8 -111l-4 -29h-879q-2 -23 -2 -46q0 -50 10 -96q14 -66 48 -123.5t100.5 -90.5t158.5 -33q227 0 369 191l141 -70 q-90 -132 -228.5 -205.5t-301.5 -73.5q-115 0 -205.5 38.5t-147.5 105.5t-86.5 154.5t-29.5 189.5zM281 659h702q1 14 1 28q0 123 -72 202q-80 88 -228 88q-146 0 -250.5 -87t-152.5 -231z" />
<glyph unicode="f" horiz-adv-x="561" d="M98 0l170 963h-157l26 149h158l14 80q36 196 139 290.5t289 94.5h31l-29 -158h-28q-62 0 -105.5 -17t-70 -51t-41.5 -73t-25 -96l-12 -70h209l-27 -149h-209l-170 -963h-162z" />
<glyph unicode="g" horiz-adv-x="1302" d="M-4 -180l158 69q26 -92 107.5 -147t219.5 -55q94 0 166 27t117 76t71.5 107t38.5 130l29 166q-187 -179 -405 -179q-198 0 -319.5 132.5t-121.5 330.5q0 97 30.5 193.5t88 179.5t133.5 147t173.5 101t201.5 37q206 0 358 -172l50 149h137l-195 -1100q-41 -241 -191 -362 t-372 -121q-179 0 -298.5 76.5t-176.5 214.5zM223 489q0 -140 78 -228.5t231 -88.5q154 0 276.5 84.5t137.5 173.5l47 277q3 17 3 33q0 81 -76 152q-90 85 -246 85q-107 0 -195 -45t-142.5 -116.5t-84 -156.5t-29.5 -170z" />
<glyph unicode="h" horiz-adv-x="1247" d="M70 0l276 1563h162l-105 -590q120 88 214.5 125t191.5 37q180 0 269 -114q62 -79 62 -215q0 -60 -12 -130l-118 -676h-162l117 664q10 55 10 100q0 213 -219 213q-142 0 -260.5 -78.5t-133.5 -159.5l-131 -739h-161z" />
<glyph unicode="i" horiz-adv-x="489" d="M70 0h161l197 1112h-162zM281 1386q0 54 41 94t94 40q43 0 71.5 -29.5t28.5 -71.5q0 -53 -42.5 -92t-96.5 -39q-42 0 -69 28t-27 70z" />
<glyph unicode="j" horiz-adv-x="536" d="M-225 -438l22 129q6 -1 19 -4.5t21 -5.5t22 -3.5t30 -1.5q81 0 133 38.5t68 131.5l223 1266h162l-225 -1276q-15 -88 -46 -149.5t-75.5 -95t-94 -48t-110.5 -14.5q-66 0 -149 33zM328 1386q0 54 41 94t94 40q43 0 70.5 -29.5t27.5 -71.5q0 -53 -42 -92t-95 -39 q-42 0 -69 28t-27 70z" />
<glyph unicode="k" horiz-adv-x="1095" d="M70 0l274 1563h162l-170 -969l590 518h202l-616 -539l424 -573h-186l-420 557l-99 -557h-161z" />
<glyph unicode="l" horiz-adv-x="493" d="M111 281l225 1282h162l-224 -1272q-7 -38 -7 -66q1 -44 17 -64q26 -34 85 -34q35 0 59 6l-22 -127q-75 -33 -132 -33q-99 0 -145 74q-29 46 -29 125q0 48 11 109z" />
<glyph unicode="m" horiz-adv-x="1916" d="M70 0l196 1112h137l-4 -141q104 89 189.5 126.5t173.5 37.5q112 0 192.5 -54.5t110.5 -162.5q115 109 212 163t206 54q76 0 137.5 -26t107.5 -81.5t60 -142.5q6 -38 7 -82q0 -58 -11 -127l-119 -676h-162l117 664q9 49 9 91q0 78 -30 135q-46 87 -169 87 q-180 0 -353 -203q0 -40 -10 -98l-119 -676h-162l117 664q10 46 10 88q1 17 -1 33q-6 57 -26.5 100t-66 67.5t-110.5 24.5q-126 0 -230 -78t-117 -160l-131 -739h-161z" />
<glyph unicode="n" horiz-adv-x="1261" d="M70 0l196 1112h137l-4 -141q119 89 216 126.5t194 37.5q180 0 269 -114q62 -79 62 -215q0 -60 -12 -130l-118 -676h-162l117 664q10 55 10 100q0 213 -219 213q-142 0 -260.5 -78.5t-133.5 -159.5l-131 -739h-161z" />
<glyph unicode="o" horiz-adv-x="1316" d="M90 465q0 103 28 201.5t83.5 183t132 148.5t180 100.5t221.5 36.5q123 0 218.5 -40t154 -109.5t88 -158t29.5 -192.5q0 -101 -27 -197t-82 -180.5t-131 -148t-181 -100t-226 -36.5q-126 0 -221.5 39t-152.5 108.5t-85.5 156t-28.5 188.5zM258 483q0 -58 10.5 -108t35 -96 t62.5 -78t96.5 -51t133.5 -19q93 0 171 29t130.5 78t89.5 114t53.5 134.5t16.5 142.5q0 72 -17.5 132t-56 110t-107 78t-161.5 28q-113 0 -202.5 -42t-144 -112.5t-82.5 -157t-28 -182.5z" />
<glyph unicode="p" horiz-adv-x="1331" d="M-20 -430l272 1542h135l-2 -141q200 164 399 164q142 0 247.5 -68.5t157.5 -181t52 -252.5q0 -101 -27.5 -197.5t-82.5 -180t-130.5 -146.5t-178.5 -99.5t-220 -36.5q-91 0 -178 32.5t-184 125.5l-99 -561h-161zM283 369q-2 -10 -2 -20q0 -29 16 -61q21 -41 63.5 -76 t112 -58t150.5 -23q112 0 200.5 42.5t141.5 113.5t80.5 156.5t27.5 177.5q0 157 -79 256.5t-242 99.5q-153 0 -273.5 -83t-136.5 -179z" />
<glyph unicode="q" horiz-adv-x="1351" d="M90 473q0 123 43 241t120.5 212t197.5 151.5t262 57.5q222 0 381 -164l49 141h135l-277 -1567h-161l102 586q-124 -92 -216 -125t-177 -33q-212 0 -335.5 142t-123.5 358zM256 483q0 -156 82 -254t244 -98q149 0 267.5 78t133.5 160l61 346q3 14 3 29q0 31 -14 63 q-20 46 -62.5 84t-111.5 62t-152 24q-92 0 -168.5 -29.5t-127.5 -78.5t-87 -114t-52 -133.5t-16 -138.5z" />
<glyph unicode="r" horiz-adv-x="749" d="M70 0l196 1112h144l-15 -168q155 191 322 191q26 0 102 -13l-31 -168q-59 13 -96 13q-121 0 -219.5 -100.5t-134.5 -264.5l-107 -602h-161z" />
<glyph unicode="s" horiz-adv-x="931" d="M-8 272l151 64q6 -38 20 -70.5t43 -66.5t83 -54t127 -20q127 0 194.5 54.5t67.5 125.5q0 53 -49 88t-197 99q-44 19 -68 30t-60.5 30.5t-57 35t-45.5 39t-37.5 47.5t-21.5 55.5t-9 67.5q0 62 24 120.5t70 108t122.5 79.5t172.5 30q62 0 114.5 -13t90 -34t69.5 -52 t52.5 -62.5t38.5 -70.5l-146 -69q-26 69 -84.5 109t-146.5 40q-102 0 -157.5 -52t-55.5 -120q0 -21 5.5 -39t19.5 -33t27 -25.5t38.5 -23.5t43.5 -20.5t53.5 -22.5t56.5 -24q165 -71 233 -139.5t68 -164.5q0 -45 -12 -89.5t-43 -92t-77.5 -83t-123 -58.5t-172.5 -23 q-90 0 -162 20.5t-115.5 50.5t-75.5 73t-46 78.5t-23 76.5z" />
<glyph unicode="t" horiz-adv-x="694" d="M137 963l2 12l318 393h59l-45 -256h260l-26 -149h-261l-114 -650q-8 -33 -8 -59q0 -12 2 -23q5 -34 14.5 -55t31.5 -33t45 -16t56 -4q25 0 104 12l-22 -127q-95 -35 -174 -35q-58 0 -102 16.5t-76 53t-41 95.5q-4 24 -4 52q0 41 8 91l121 682h-148z" />
<glyph unicode="u" horiz-adv-x="1251" d="M141 436l117 676h162l-117 -663q-10 -47 -10 -89q-1 -18 1 -34q6 -58 26.5 -101t69 -68.5t120.5 -25.5q137 0 248.5 79.5t126.5 162.5l131 739h162l-197 -1112h-137l4 141q-115 -91 -206.5 -129.5t-186.5 -38.5q-177 0 -265 116q-61 81 -61 216q0 60 12 131z" />
<glyph unicode="v" horiz-adv-x="1140" d="M135 1112h162l199 -930l532 930h174l-649 -1112h-162z" />
<glyph unicode="w" horiz-adv-x="1667" d="M160 1112h162l100 -915l420 915h159l95 -915l426 915h153l-528 -1112h-166l-109 856l-399 -856h-166z" />
<glyph unicode="x" horiz-adv-x="937" d="M-80 0l473 580l-250 532h168l191 -407l325 407h181l-445 -543l268 -569h-163l-213 451l-363 -451h-172z" />
<glyph unicode="y" horiz-adv-x="1044" d="M37 -430l301 516l-232 1026h162l178 -842l494 842h170l-905 -1542h-168z" />
<glyph unicode="z" horiz-adv-x="976" d="M-20 0l28 158l774 805h-651l27 149h858l-29 -160l-782 -802h704l-26 -150h-903z" />
<glyph unicode="{" horiz-adv-x="692" d="M72 715l18 100q100 7 144 62t63 165q12 71 27 203q17 164 24 207q28 179 115.5 249.5t247.5 70.5h96l-21 -113h-57q-55 0 -88 -10.5t-58 -44t-40.5 -85t-32.5 -143.5q-12 -59 -25 -172q-15 -128 -26 -180q-25 -118 -66 -168.5t-145 -85.5q71 -30 100 -75t29 -113 q0 -81 -55 -314q-2 -10 -13 -52.5t-17.5 -70.5t-13 -68t-6.5 -69q0 -139 142 -139h57l-18 -111h-97q-132 0 -196 57.5t-64 196.5q0 27 2 49t9 54t11 47.5t18.5 67t21.5 75.5q51 186 51 254q0 151 -137 156z" />
<glyph unicode="|" horiz-adv-x="968" d="M219 -504l399 2267h158l-399 -2267h-158z" />
<glyph unicode="}" horiz-adv-x="698" d="M-94 -242l20 113h58q55 0 88 10.5t58 44t40.5 85t32.5 143.5q9 46 24 172q14 117 27 180q25 121 66 173.5t145 88.5q-71 28 -100 71.5t-29 108.5q0 81 55 314q2 7 13 52t17 71.5t12.5 67t6.5 69.5q0 139 -141 139h-57l18 111h96q132 0 196 -57.5t64 -196.5q0 -23 -2 -45 t-4 -37.5t-9.5 -45t-11 -43.5t-16 -57t-18.5 -65q-51 -186 -51 -254q0 -151 137 -156l-18 -100q-100 -7 -144 -62.5t-63 -165.5q-12 -72 -27 -202q-17 -164 -24 -207q-28 -179 -115.5 -249.5t-247.5 -70.5h-96z" />
<glyph unicode="~" horiz-adv-x="1155" d="M102 705q150 217 324 217q95 0 211 -78q102 -70 166 -70q103 0 201 133l86 -63q-140 -215 -324 -215q-40 0 -80.5 13t-65.5 27t-65 40q-53 35 -88 51t-74 16q-110 0 -203 -133z" />
<glyph unicode="&#xa1;" horiz-adv-x="622" d="M47 -432l90 471l135 620h123l-80 -620l-79 -471h-189zM268 993q0 58 45 100t103 42q47 0 76.5 -30t29.5 -75q0 -58 -44 -99.5t-103 -41.5q-47 0 -77 29.5t-30 74.5z" />
<glyph unicode="&#xa2;" horiz-adv-x="1269" d="M180 465q0 128 44 247t123 212.5t199.5 150.5t264.5 60l51 223h111l-53 -232q249 -36 346 -245l-154 -72q-62 137 -227 162l-193 -840q242 3 367 191l143 -70q-83 -129 -219.5 -204t-314.5 -75h-11l-59 -262h-113l62 273q-184 34 -275.5 165t-91.5 316zM348 483 q0 -131 56 -222.5t180 -119.5l190 834q-106 -5 -189.5 -48.5t-134 -113t-76.5 -154t-26 -176.5z" />
<glyph unicode="&#xa3;" horiz-adv-x="1175" d="M8 0l19 109q165 84 256.5 217.5t91.5 287.5q0 51 -2 78h-244l23 137h206q-18 162 -18 220q0 229 140 374.5t368 145.5q123 0 205.5 -45.5t144.5 -134.5l-117 -95q-46 64 -99.5 93.5t-135.5 29.5q-158 0 -244 -99t-86 -261q0 -28 3 -97.5t3 -74.5l2 -56h394l-23 -137h-360 v-33q0 -155 -52 -262t-188 -239h696l-28 -158h-955z" />
<glyph unicode="&#xa4;" horiz-adv-x="954" d="M57 287l105 104q-72 100 -72 224t72 225l-105 104l90 90l105 -104q100 72 224.5 72.5t225.5 -70.5l105 104l90 -90l-104 -104q73 -102 72.5 -226.5t-72.5 -226.5l104 -104l-90 -90l-105 104q-101 -73 -226 -73t-226 73l-103 -102zM227 614q0 -104 74 -178t178 -74 q97 0 174 74q74 74 74 178q0 107 -72 179q-75 75 -176 75q-108 0 -180 -75q-72 -72 -72 -179z" />
<glyph unicode="&#xa5;" horiz-adv-x="1138" d="M63 354l21 115h393l25 156l-4 8h-385l20 115h326l-269 792h170l244 -733l453 733h168l-494 -792h365l-21 -115h-416l-4 -8l-24 -156h416l-21 -115h-414l-57 -354h-152l56 354h-396z" />
<glyph unicode="&#xa6;" horiz-adv-x="968" d="M219 -504l184 1051h158l-184 -1051h-158zM436 725l182 1038h158l-182 -1038h-158z" />
<glyph unicode="&#xa7;" horiz-adv-x="1124" d="M33 -342l108 143q120 -100 240 -100q101 0 162 66t61 153q0 66 -44 110.5t-165 121.5q-65 44 -107.5 79.5t-80 80.5t-55 96.5t-17.5 113.5q0 108 65 210.5t199 158.5q-94 116 -94 252q0 67 27.5 136t77 128.5t129 97t174.5 37.5q194 0 350 -129l-109 -143 q-115 100 -239 100q-97 0 -160 -65.5t-63 -149.5q0 -66 44.5 -111t165.5 -122q127 -85 193 -173.5t66 -201.5q0 -102 -68 -204t-199 -161q94 -116 94 -256q0 -67 -27 -135.5t-76 -127t-128 -95.5t-174 -37q-197 0 -350 127zM332 569q0 -73 57.5 -136t190.5 -157 q86 28 135 91t49 135q0 42 -16 78.5t-54.5 75t-72.5 66t-101 75.5q-87 -25 -137.5 -90t-50.5 -138z" />
<glyph unicode="&#xa8;" horiz-adv-x="1179" d="M455 1382q0 52 38.5 88.5t90.5 36.5q42 0 68 -27t26 -67q0 -50 -39.5 -86.5t-91.5 -36.5q-41 0 -66.5 26t-25.5 66zM891 1382q0 52 38.5 88.5t90.5 36.5q42 0 68 -27t26 -67q0 -50 -39.5 -86.5t-91.5 -36.5q-41 0 -66.5 26t-25.5 66z" />
<glyph unicode="&#xa9;" horiz-adv-x="1560" d="M80 633q0 175 73 329.5t192 259t271.5 164.5t311.5 60q281 0 452.5 -176.5t171.5 -456.5q0 -175 -73 -329.5t-191.5 -259t-271 -164.5t-311.5 -60q-281 0 -453 176.5t-172 456.5zM172 641q0 -246 151.5 -399.5t399.5 -153.5q143 0 277.5 55t236 148.5t162.5 228t61 285.5 q0 246 -151.5 399.5t-399.5 153.5q-143 0 -277.5 -55t-236 -148.5t-162.5 -228t-61 -285.5zM393 666q0 127 61.5 240t172 183t241.5 70q123 0 209.5 -60t124.5 -161l-82 -39q-30 76 -92 124t-162 48q-109 0 -195 -60t-129.5 -154t-43.5 -202q0 -56 13.5 -104t42 -88.5 t81 -64t123.5 -23.5q109 0 191 52.5t128 137.5l84 -41q-62 -105 -166.5 -170t-236.5 -65q-89 0 -159.5 31t-115 84t-67.5 120t-23 142z" />
<glyph unicode="&#xaa;" horiz-adv-x="858" d="M133 1128q0 182 119.5 311.5t279.5 129.5q137 0 207 -105l31 90h121l-94 -534q-19 -109 57 -109q9 0 39 9l-14 -84q-59 -27 -101 -27q-52 0 -81.5 27.5t-37.5 72.5q-103 -108 -239 -108q-133 0 -210 93t-77 234zM274 1141q0 -95 48.5 -157t140.5 -62q86 0 144.5 50 t68.5 113l35 211q8 55 -37.5 102.5t-130.5 47.5q-117 0 -193 -91.5t-76 -213.5z" />
<glyph unicode="&#xab;" horiz-adv-x="1062" d="M92 563l10 58l435 374l77 -75l-356 -340l225 -324l-88 -66zM504 563l10 58l434 374l78 -75l-356 -340l225 -324l-88 -66z" />
<glyph unicode="&#xad;" horiz-adv-x="759" d="M80 582l29 166h579l-29 -166h-579z" />
<glyph unicode="&#xae;" horiz-adv-x="866" d="M166 1047q0 117 64 213.5t163 148t207 51.5q144 0 232 -90.5t88 -232.5q0 -119 -63.5 -216t-162.5 -148.5t-209 -51.5q-142 0 -230.5 91.5t-88.5 234.5zM207 1051q0 -130 79.5 -210.5t209.5 -80.5q100 0 188 48t142.5 134.5t54.5 190.5q0 128 -80.5 209t-210.5 81 q-100 0 -187.5 -48t-141.5 -134t-54 -190zM379 879l74 424h139q53 0 86 -29t33 -78q0 -53 -32 -87.5t-91 -43.5l67 -186h-41l-67 184h-96l-33 -184h-39zM457 1100h106q52 0 80.5 25t28.5 65q0 76 -84 76h-103z" />
<glyph unicode="&#xb0;" horiz-adv-x="698" d="M233 1292q0 118 83 201.5t206 83.5q103 0 162 -61t59 -156q0 -117 -84.5 -201t-207.5 -84q-102 0 -160 61t-58 156zM301 1307q0 -66 40.5 -115t121.5 -49q90 0 149.5 59.5t59.5 143.5q0 66 -40 114.5t-120 48.5q-88 0 -149.5 -59.5t-61.5 -142.5z" />
<glyph unicode="&#xb1;" horiz-adv-x="1077" d="M109 12l28 166h789l-29 -166h-788zM209 586l31 166h309l53 309h170l-53 -309h309l-31 -166h-309l-47 -269h-170l47 269h-309z" />
<glyph unicode="&#xb4;" horiz-adv-x="1351" d="M588 1274l264 289h203l-334 -289h-133z" />
<glyph unicode="&#xb5;" horiz-adv-x="1220" d="M-20 -309l247 1421h162l-117 -663q-14 -65 -8.5 -122.5t26 -101t69 -69t120.5 -25.5q137 0 248.5 79.5t126.5 162.5l131 739h162l-197 -1112h-137l4 141q-115 -91 -206.5 -129.5t-186.5 -38.5q-157 0 -242 88l-24 -370h-178z" />
<glyph unicode="&#xb6;" horiz-adv-x="1300" d="M166 961q0 156 85 289.5t231 211.5t317 78h168l-355 -2011h-145l178 1012h-63q-189 0 -302.5 119.5t-113.5 300.5zM774 -471l354 2011h148l-354 -2011h-148z" />
<glyph unicode="&#xb7;" horiz-adv-x="548" d="M51 618q0 58 45 100t103 42q47 0 76.5 -30t29.5 -75q0 -58 -44.5 -99.5t-102.5 -41.5q-47 0 -77 29.5t-30 74.5z" />
<glyph unicode="&#xb8;" horiz-adv-x="1298" d="M664 -422l2 78q102 12 150 36.5t48 67.5q0 31 -25.5 52t-80.5 41l102 155h88l-71 -117q67 -21 103 -51t36 -80q0 -73 -83.5 -116.5t-268.5 -65.5z" />
<glyph unicode="&#xba;" horiz-adv-x="868" d="M133 1124q0 116 50 216.5t149.5 164.5t228.5 64q106 0 180.5 -46t108 -119t33.5 -165q0 -85 -29 -163t-82 -139.5t-135.5 -98.5t-181.5 -37q-162 0 -242 91t-80 232zM262 1139q0 -46 10.5 -83t33.5 -68t65 -48.5t100 -17.5q72 0 128 27.5t89.5 72.5t50.5 98.5t17 110.5 q0 95 -49.5 155t-161.5 60q-93 0 -159 -45t-95 -113t-29 -149z" />
<glyph unicode="&#xbb;" horiz-adv-x="1060" d="M51 266l357 338l-226 326l88 65l303 -374l-10 -58l-434 -373zM463 266l356 338l-225 326l88 65l303 -374l-10 -58l-434 -373z" />
<glyph unicode="&#xbc;" horiz-adv-x="1783" d="M274 -35l1110 1612h146l-1110 -1612h-146zM303 1288l23 131q111 15 180 150h127l-166 -928h-127l121 694q-66 -36 -158 -47zM975 211l12 88l522 631h152l-107 -598h111l-18 -121h-113l-35 -211h-131l39 211h-432zM1161 332h266q14 84 39 219t35 194z" />
<glyph unicode="&#xbd;" horiz-adv-x="1845" d="M227 -35l1110 1612h146l-1110 -1612h-146zM256 1288l23 131q111 15 180 150h127l-166 -928h-127l121 694q-66 -36 -158 -47zM1004 0l16 104q9 53 27.5 94.5t40 70.5t62 60t74 51t95.5 54l92 51q83 47 128.5 95.5t45.5 109.5q0 59 -40 96t-105 37q-63 0 -114.5 -37.5 t-82.5 -97.5l-113 53q47 92 129 151.5t189 59.5q115 0 195.5 -68t80.5 -184q0 -57 -18.5 -104t-57 -86.5t-76.5 -67t-99 -63.5l-87 -51q-15 -9 -43.5 -25.5t-38.5 -22.5t-31 -19t-28.5 -18.5t-22 -16t-19.5 -17t-14 -16t-12.5 -18.5t-8 -20t-7.5 -24h465l-24 -131h-598z" />
<glyph unicode="&#xbe;" horiz-adv-x="1855" d="M104 807l123 57q16 -60 61 -96.5t115 -36.5q89 0 148 48t59 124q0 66 -43 103.5t-118 37.5h-82l20 123h62q88 0 150.5 47.5t62.5 114.5q0 49 -37.5 81t-100.5 32q-61 0 -110 -37t-82 -94l-115 51q124 209 320 209q116 0 189 -63t73 -167q0 -69 -38.5 -133.5 t-121.5 -101.5q109 -65 109 -197t-103 -219.5t-246 -87.5q-107 0 -185.5 55.5t-109.5 149.5zM379 -35l1108 1612h145l-1108 -1612h-145zM1051 211l12 88l522 631h152l-107 -598h111l-19 -121h-112l-35 -211h-131l39 211h-432zM1237 332h266l74 413z" />
<glyph unicode="&#xbf;" horiz-adv-x="1124" d="M-8 -70q0 129 74 223t221 179l53 30q100 58 143 102.5t60 131.5l10 53h156l-21 -110q-9 -50 -24 -85t-45.5 -67t-60.5 -54t-89 -61l-70 -45q-95 -61 -138.5 -96.5t-67 -77t-23.5 -96.5q0 -112 68.5 -180t173.5 -68q79 0 157 36.5t130.5 104t52.5 146.5l-2 18l168 27 q2 -18 2 -41q0 -117 -69 -223t-191.5 -172t-266.5 -66q-82 0 -149.5 22.5t-113.5 60.5t-77.5 89t-46 106t-14.5 113zM567 993q0 58 44 100t102 42q47 0 76.5 -30t29.5 -75q0 -58 -43.5 -99.5t-101.5 -41.5q-47 0 -77 29.5t-30 74.5z" />
<glyph unicode="&#xc0;" horiz-adv-x="1241" d="M-96 0l796 1540h197l250 -1540h-174l-68 408h-614l-205 -408h-182zM371 567h510l-123 774zM649 1964h201l213 -289h-131z" />
<glyph unicode="&#xc1;" horiz-adv-x="1241" d="M-96 0l796 1540h197l250 -1540h-174l-68 408h-614l-205 -408h-182zM371 567h510l-123 774zM623 1675l264 289h203l-334 -289h-133z" />
<glyph unicode="&#xc2;" horiz-adv-x="1236" d="M-96 0l796 1540h197l250 -1540h-174l-68 408h-614l-205 -408h-182zM371 567h510l-123 774zM559 1675l264 289h172l166 -289h-121l-139 187l-223 -187h-119z" />
<glyph unicode="&#xc3;" horiz-adv-x="1236" d="M-96 0l796 1540h197l250 -1540h-174l-68 408h-614l-205 -408h-182zM371 567h510l-123 774zM553 1700q26 91 79.5 148t125.5 57q56 0 123 -47q53 -37 82 -37t57.5 22t48.5 62h88q-26 -90 -80.5 -147.5t-124.5 -57.5q-24 0 -48 8.5t-33 14.5t-37 24q-58 37 -91 37 q-59 0 -102 -84h-88z" />
<glyph unicode="&#xc4;" horiz-adv-x="1234" d="M-96 0l796 1540h197l250 -1540h-174l-68 408h-614l-205 -408h-182zM371 567h510l-123 774zM522 1786q0 52 38.5 88.5t90.5 36.5q42 0 68 -27t26 -67q0 -50 -39.5 -86.5t-91.5 -36.5q-41 0 -66.5 26t-25.5 66zM958 1786q0 52 38.5 88.5t90.5 36.5q42 0 68.5 -27t26.5 -67 q0 -50 -39.5 -86.5t-91.5 -36.5q-41 0 -67 26t-26 66z" />
<glyph unicode="&#xc5;" horiz-adv-x="1241" d="M-96 0l844 1632q-51 20 -79 64.5t-28 103.5q0 90 62 153.5t157 63.5q83 0 133.5 -51t50.5 -129q0 -74 -44.5 -132.5t-116.5 -78.5l264 -1626h-174l-68 408h-614l-205 -408h-182zM371 567h508q-117 724 -117 799h-2q-28 -81 -389 -799zM723 1812q0 -45 28.5 -77.5 t82.5 -32.5q57 0 92 36t35 87q0 45 -28.5 77.5t-82.5 32.5q-57 0 -92 -36t-35 -87z" />
<glyph unicode="&#xc6;" horiz-adv-x="2048" d="M-61 0l1142 1540h1012l-31 -166h-721l-90 -500h662l-29 -165h-661l-95 -543h764l-30 -166h-934l78 449h-547l-334 -449h-186zM578 608h456l135 766h-20z" />
<glyph unicode="&#xc7;" horiz-adv-x="1601" d="M131 662q0 174 67 339t181 290.5t277.5 201.5t344.5 76q224 0 382.5 -112t232.5 -298l-154 -67q-24 68 -62 123.5t-93.5 101t-135 71t-176.5 25.5q-125 0 -235.5 -42.5t-191.5 -116t-140 -170.5t-89 -207.5t-30 -225.5q0 -105 26.5 -195t82 -165t153 -118.5t228.5 -43.5 q201 0 350.5 96.5t234.5 255.5l152 -75q-108 -190 -301.5 -311.5t-425.5 -121.5q-19 0 -29.5 1t-15.5 1l-51 -84q67 -21 103 -51t36 -80q0 -73 -83.5 -116.5t-268.5 -65.5l2 78q102 12 150 36.5t48 67.5q0 31 -25.5 52t-80.5 41l84 129q-133 19 -239 82t-172 155.5t-101 205 t-35 237.5z" />
<glyph unicode="&#xc8;" horiz-adv-x="1198" d="M78 0l272 1540h893l-31 -166h-720l-91 -500h662l-29 -165h-661l-94 -543h763l-30 -166h-934zM604 1964h201l213 -289h-131z" />
<glyph unicode="&#xc9;" horiz-adv-x="1198" d="M78 0l272 1540h893l-31 -166h-720l-91 -500h662l-29 -165h-661l-94 -543h763l-30 -166h-934zM578 1675l264 289h202l-333 -289h-133z" />
<glyph unicode="&#xca;" horiz-adv-x="1198" d="M78 0l272 1540h893l-31 -166h-720l-91 -500h662l-29 -165h-661l-94 -543h763l-30 -166h-934zM510 1675l264 289h172l166 -289h-121l-139 187l-223 -187h-119z" />
<glyph unicode="&#xcb;" horiz-adv-x="1198" d="M78 0l272 1540h893l-31 -166h-720l-91 -500h662l-29 -165h-661l-94 -543h763l-30 -166h-934zM479 1784q0 52 38.5 88.5t90.5 36.5q42 0 68 -27t26 -67q0 -50 -39.5 -86.5t-91.5 -36.5q-41 0 -66.5 26t-25.5 66zM915 1784q0 52 38.5 88.5t90.5 36.5q42 0 68.5 -27 t26.5 -67q0 -50 -39.5 -86.5t-91.5 -36.5q-41 0 -67 26t-26 66z" />
<glyph unicode="&#xcc;" horiz-adv-x="555" d="M78 0l272 1540h170l-272 -1540h-170zM276 1964h201l213 -289h-131z" />
<glyph unicode="&#xcd;" horiz-adv-x="559" d="M78 0l272 1540h170l-272 -1540h-170zM250 1675l264 289h203l-334 -289h-133z" />
<glyph unicode="&#xce;" horiz-adv-x="563" d="M78 0l272 1540h170l-272 -1540h-170zM162 1675l264 289h172l166 -289h-121l-139 187l-223 -187h-119z" />
<glyph unicode="&#xcf;" horiz-adv-x="569" d="M78 0l272 1540h170l-272 -1540h-170zM145 1784q0 52 38.5 88.5t90.5 36.5q42 0 68.5 -27t26.5 -67q0 -50 -39.5 -86.5t-91.5 -36.5q-41 0 -67 26t-26 66zM582 1784q0 52 38.5 88.5t90.5 36.5q42 0 68 -27t26 -67q0 -50 -39.5 -86.5t-91.5 -36.5q-41 0 -66.5 26t-25.5 66z " />
<glyph unicode="&#xd0;" horiz-adv-x="1587" d="M106 741l25 136h184l119 663h379q152 0 274 -36t203.5 -98t135.5 -149.5t78 -186.5t24 -212q0 -81 -12 -160.5t-41 -165.5t-73 -162t-113 -145t-156.5 -118t-208 -78t-262.5 -29h-500l131 741h-187zM362 166h291q145 0 262 34t197.5 94.5t134.5 147t78.5 188t24.5 220.5 q0 92 -15 167.5t-53 143.5t-99 113.5t-156.5 72.5t-221.5 27h-232l-88 -497h363l-25 -136h-360z" />
<glyph unicode="&#xd1;" horiz-adv-x="1460" d="M78 0l272 1540h195l508 -1286l227 1286h170l-272 -1540h-199l-506 1282l-225 -1282h-170zM645 1700q26 91 79.5 148t125.5 57q56 0 123 -47q53 -37 82 -37t57.5 22t48.5 62h88q-26 -90 -80.5 -147.5t-124.5 -57.5q-24 0 -48 8.5t-33 14.5t-37 24q-58 37 -90 37 q-28 0 -55.5 -22t-47.5 -62h-88z" />
<glyph unicode="&#xd2;" horiz-adv-x="1734" d="M137 662q0 174 67 339t181.5 290.5t278 201.5t344.5 76q155 0 282 -56t210 -152t128 -221t45 -266q0 -133 -39.5 -264.5t-116 -245.5t-180 -202t-241.5 -138.5t-291 -50.5q-161 0 -290.5 56.5t-210.5 153t-124 219.5t-43 260zM315 653q0 -105 26.5 -195.5t82 -166 t153 -119t228.5 -43.5q133 0 247.5 45.5t194.5 121t137 174.5t84 206.5t27 216.5q0 107 -28 198.5t-84.5 164.5t-152.5 115t-222 42q-127 0 -239 -42.5t-194 -115.5t-141.5 -169.5t-89 -207t-29.5 -225.5zM895 1964h201l213 -289h-131z" />
<glyph unicode="&#xd3;" horiz-adv-x="1734" d="M137 662q0 174 67 339t181.5 290.5t278 201.5t344.5 76q155 0 282 -56t210 -152t128 -221t45 -266q0 -133 -39.5 -264.5t-116 -245.5t-180 -202t-241.5 -138.5t-291 -50.5q-161 0 -290.5 56.5t-210.5 153t-124 219.5t-43 260zM315 653q0 -105 26.5 -195.5t82 -166 t153 -119t228.5 -43.5q133 0 247.5 45.5t194.5 121t137 174.5t84 206.5t27 216.5q0 107 -28 198.5t-84.5 164.5t-152.5 115t-222 42q-127 0 -239 -42.5t-194 -115.5t-141.5 -169.5t-89 -207t-29.5 -225.5zM868 1675l265 289h202l-334 -289h-133z" />
<glyph unicode="&#xd4;" horiz-adv-x="1734" d="M137 662q0 174 67 339t181.5 290.5t278 201.5t344.5 76q155 0 282 -56t210 -152t128 -221t45 -266q0 -133 -39.5 -264.5t-116 -245.5t-180 -202t-241.5 -138.5t-291 -50.5q-161 0 -290.5 56.5t-210.5 153t-124 219.5t-43 260zM315 653q0 -105 26.5 -195.5t82 -166 t153 -119t228.5 -43.5q133 0 247.5 45.5t194.5 121t137 174.5t84 206.5t27 216.5q0 107 -28 198.5t-84.5 164.5t-152.5 115t-222 42q-127 0 -239 -42.5t-194 -115.5t-141.5 -169.5t-89 -207t-29.5 -225.5zM750 1675l264 289h172l166 -289h-121l-139 187l-224 -187h-118z" />
<glyph unicode="&#xd5;" horiz-adv-x="1734" d="M137 662q0 174 67 339t181.5 290.5t278 201.5t344.5 76q155 0 282 -56t210 -152t128 -221t45 -266q0 -133 -39.5 -264.5t-116 -245.5t-180 -202t-241.5 -138.5t-291 -50.5q-161 0 -290.5 56.5t-210.5 153t-124 219.5t-43 260zM315 653q0 -105 26.5 -195.5t82 -166 t153 -119t228.5 -43.5q133 0 247.5 45.5t194.5 121t137 174.5t84 206.5t27 216.5q0 107 -28 198.5t-84.5 164.5t-152.5 115t-222 42q-127 0 -239 -42.5t-194 -115.5t-141.5 -169.5t-89 -207t-29.5 -225.5zM797 1700q26 91 79 148t125 57q56 0 123 -47q53 -37 82 -37 q30 0 58.5 22.5t48.5 61.5h88q-26 -90 -80.5 -147.5t-124.5 -57.5q-24 0 -48 8.5t-34 15t-37 23.5q-58 37 -90 37q-59 0 -102 -84h-88z" />
<glyph unicode="&#xd6;" horiz-adv-x="1734" d="M137 662q0 174 67 339t181.5 290.5t278 201.5t344.5 76q155 0 282 -56t210 -152t128 -221t45 -266q0 -133 -39.5 -264.5t-116 -245.5t-180 -202t-241.5 -138.5t-291 -50.5q-161 0 -290.5 56.5t-210.5 153t-124 219.5t-43 260zM315 653q0 -105 26.5 -195.5t82 -166 t153 -119t228.5 -43.5q133 0 247.5 45.5t194.5 121t137 174.5t84 206.5t27 216.5q0 107 -28 198.5t-84.5 164.5t-152.5 115t-222 42q-127 0 -239 -42.5t-194 -115.5t-141.5 -169.5t-89 -207t-29.5 -225.5zM737 1786q0 52 38.5 88.5t90.5 36.5q42 0 68.5 -27t26.5 -67 q0 -50 -40 -86.5t-92 -36.5q-41 0 -66.5 26t-25.5 66zM1214 1786q0 52 38.5 88.5t90.5 36.5q42 0 68.5 -27t26.5 -67q0 -50 -39.5 -86.5t-91.5 -36.5q-41 0 -67 26t-26 66z" />
<glyph unicode="&#xd7;" horiz-adv-x="1040" d="M150 403l296 273l-210 274l120 103l207 -271l295 271l94 -117l-297 -272l211 -275l-118 -100l-209 268l-293 -268z" />
<glyph unicode="&#xd8;" horiz-adv-x="1533" d="M-6 6l188 199q-147 187 -147 457q0 174 67 339t181 290.5t277.5 201.5t344.5 76q253 0 428 -148l185 197l90 -74l-193 -205q156 -195 156 -467q0 -133 -39.5 -264t-116 -245t-180.5 -201.5t-242 -138t-291 -50.5q-264 0 -436 146l-176 -187zM213 653q0 -195 82 -327 l932 983q-123 104 -322 104q-158 0 -291 -65t-219.5 -172.5t-134 -243t-47.5 -279.5zM375 236q123 -107 327 -107q133 0 247.5 45.5t194.5 121t137.5 174.5t84.5 206t27 215q0 195 -88 332z" />
<glyph unicode="&#xd9;" horiz-adv-x="1468" d="M183.5 421q-5.5 71 9.5 142l172 977h170l-175 -991q-9 -48 -9 -95t8.5 -95.5t31.5 -89t58 -72.5t90.5 -50t126.5 -18q104 0 188 38.5t136.5 102t84.5 133.5t45 146l174 991h170l-180 -1020q-19 -109 -65.5 -204.5t-120.5 -173.5t-185 -123.5t-245 -45.5q-96 0 -176 24 t-134.5 66t-94.5 99t-57 122.5t-22.5 136.5zM756 1964h200l213 -289h-131z" />
<glyph unicode="&#xda;" horiz-adv-x="1468" d="M183.5 421q-5.5 71 9.5 142l172 977h170l-175 -991q-9 -48 -9 -95t8.5 -95.5t31.5 -89t58 -72.5t90.5 -50t126.5 -18q104 0 188 38.5t136.5 102t84.5 133.5t45 146l174 991h170l-180 -1020q-19 -109 -65.5 -204.5t-120.5 -173.5t-185 -123.5t-245 -45.5q-96 0 -176 24 t-134.5 66t-94.5 99t-57 122.5t-22.5 136.5zM729 1675l264 289h203l-334 -289h-133z" />
<glyph unicode="&#xdb;" horiz-adv-x="1468" d="M183.5 421q-5.5 71 9.5 142l172 977h170l-175 -991q-9 -48 -9 -95t8.5 -95.5t31.5 -89t58 -72.5t90.5 -50t126.5 -18q104 0 188 38.5t136.5 102t84.5 133.5t45 146l174 991h170l-180 -1020q-19 -109 -65.5 -204.5t-120.5 -173.5t-185 -123.5t-245 -45.5q-96 0 -176 24 t-134.5 66t-94.5 99t-57 122.5t-22.5 136.5zM641 1675l264 289h172l166 -289h-121l-139 187l-223 -187h-119z" />
<glyph unicode="&#xdc;" horiz-adv-x="1468" d="M183.5 421q-5.5 71 9.5 142l172 977h170l-175 -991q-9 -48 -9 -95t8.5 -95.5t31.5 -89t58 -72.5t90.5 -50t126.5 -18q104 0 188 38.5t136.5 102t84.5 133.5t45 146l174 991h170l-180 -1020q-19 -109 -65.5 -204.5t-120.5 -173.5t-185 -123.5t-245 -45.5q-96 0 -176 24 t-134.5 66t-94.5 99t-57 122.5t-22.5 136.5zM631 1784q0 52 38.5 88.5t90.5 36.5q42 0 68 -27t26 -67q0 -50 -39.5 -86.5t-91.5 -36.5q-41 0 -66.5 26t-25.5 66zM1067 1784q0 52 38.5 88.5t90.5 36.5q42 0 68 -27t26 -67q0 -50 -39.5 -86.5t-91.5 -36.5q-41 0 -66.5 26 t-25.5 66z" />
<glyph unicode="&#xdd;" horiz-adv-x="1191" d="M190 1540h189l270 -733l504 733h186l-632 -915l-111 -625h-170l111 625zM594 1675l264 289h203l-334 -289h-133z" />
<glyph unicode="&#xde;" d="M78 0l272 1540h170l-53 -297h324q195 0 317.5 -105t122.5 -298q0 -216 -155 -344.5t-400 -128.5h-365l-63 -367h-170zM342 532h324q183 0 285 84.5t102 221.5q0 109 -69 174t-202 65h-344z" />
<glyph unicode="&#xdf;" horiz-adv-x="1372" d="M70 0l170 963h-158l27 149h155l15 78q36 196 142 291.5t306 95.5q92 0 158 -19t102 -52.5t52 -72.5t16 -87q0 -42 -10.5 -79.5t-35.5 -75.5t-35 -51t-40 -48q-52 -61 -75 -103t-23 -80q0 -27 13.5 -56t29.5 -50t44.5 -47.5t43.5 -38t43 -31.5q45 -33 72 -54.5t64.5 -57.5 t58.5 -67.5t36.5 -74.5t15.5 -88q0 -62 -27 -125t-79 -119t-141 -91.5t-201 -35.5q-120 0 -206.5 39t-133.5 103l129 100q73 -90 221 -90q134 0 205.5 61t71.5 136q0 34 -15 66t-48 64t-59 53t-75 56q-57 41 -89 67.5t-70 65.5t-55 79t-17 85q0 114 123 264q7 8 21.5 26 t20.5 26t17 22.5t15.5 23.5t10 22t7.5 25.5t2 26.5q0 58 -45.5 91.5t-139.5 33.5q-57 0 -100.5 -13.5t-69.5 -33.5t-45 -53.5t-28 -64t-17 -74.5l-209 -1180h-161z" />
<glyph unicode="&#xe0;" d="M90 473q0 182 81 334t222 240t309 88q84 0 161.5 -33t166.5 -125l45 135h139l-141 -809q-16 -91 6.5 -127.5t77.5 -36.5q29 0 62 13l-23 -127q-82 -39 -147 -39q-66 0 -104 42.5t-36 108.5q-197 -164 -389 -164q-134 0 -233 67.5t-148 179.5t-49 253zM258 481 q0 -73 18 -135t53.5 -111t95.5 -76.5t138 -27.5q142 0 245.5 81t119.5 181l59 346q6 36 -11.5 77t-53.5 77t-97.5 60t-136.5 24q-129 0 -228.5 -70t-150.5 -182.5t-51 -243.5zM563 1563h201l213 -289h-131z" />
<glyph unicode="&#xe1;" d="M90 473q0 182 81 334t222 240t309 88q84 0 161.5 -33t166.5 -125l45 135h139l-141 -809q-16 -91 6.5 -127.5t77.5 -36.5q29 0 62 13l-23 -127q-82 -39 -147 -39q-66 0 -104 42.5t-36 108.5q-197 -164 -389 -164q-134 0 -233 67.5t-148 179.5t-49 253zM258 481 q0 -73 18 -135t53.5 -111t95.5 -76.5t138 -27.5q142 0 245.5 81t119.5 181l59 346q6 36 -11.5 77t-53.5 77t-97.5 60t-136.5 24q-129 0 -228.5 -70t-150.5 -182.5t-51 -243.5zM537 1274l264 289h203l-334 -289h-133z" />
<glyph unicode="&#xe2;" d="M90 473q0 182 81 334t222 240t309 88q84 0 161.5 -33t166.5 -125l45 135h139l-141 -809q-16 -91 6.5 -127.5t77.5 -36.5q29 0 62 13l-23 -127q-82 -39 -147 -39q-66 0 -104 42.5t-36 108.5q-197 -164 -389 -164q-134 0 -233 67.5t-148 179.5t-49 253zM258 481 q0 -73 18 -135t53.5 -111t95.5 -76.5t138 -27.5q142 0 245.5 81t119.5 181l59 346q6 36 -11.5 77t-53.5 77t-97.5 60t-136.5 24q-129 0 -228.5 -70t-150.5 -182.5t-51 -243.5zM449 1274l264 289h172l166 -289h-121l-139 186l-224 -186h-118z" />
<glyph unicode="&#xe3;" d="M90 473q0 182 81 334t222 240t309 88q84 0 161.5 -33t166.5 -125l45 135h139l-141 -809q-16 -91 6.5 -127.5t77.5 -36.5q29 0 62 13l-23 -127q-82 -39 -147 -39q-66 0 -104 42.5t-36 108.5q-197 -164 -389 -164q-134 0 -233 67.5t-148 179.5t-49 253zM258 481 q0 -73 18 -135t53.5 -111t95.5 -76.5t138 -27.5q142 0 245.5 81t119.5 181l59 346q6 36 -11.5 77t-53.5 77t-97.5 60t-136.5 24q-129 0 -228.5 -70t-150.5 -182.5t-51 -243.5zM465 1294q26 91 79.5 148t125.5 57q56 0 123 -47q53 -37 81 -37q30 0 58.5 22.5t48.5 61.5h88 q-26 -90 -80.5 -147.5t-124.5 -57.5q-24 0 -48 8.5t-34 15t-37 23.5q-58 37 -90 37q-59 0 -102 -84h-88z" />
<glyph unicode="&#xe4;" d="M90 473q0 182 81 334t222 240t309 88q84 0 161.5 -33t166.5 -125l45 135h139l-141 -809q-16 -91 6.5 -127.5t77.5 -36.5q29 0 62 13l-23 -127q-82 -39 -147 -39q-66 0 -104 42.5t-36 108.5q-197 -164 -389 -164q-134 0 -233 67.5t-148 179.5t-49 253zM258 481 q0 -73 18 -135t53.5 -111t95.5 -76.5t138 -27.5q142 0 245.5 81t119.5 181l59 346q6 36 -11.5 77t-53.5 77t-97.5 60t-136.5 24q-129 0 -228.5 -70t-150.5 -182.5t-51 -243.5zM434 1380q0 52 38.5 88.5t90.5 36.5q42 0 68 -27t26 -67q0 -50 -39.5 -86.5t-91.5 -36.5 q-41 0 -66.5 26t-25.5 66zM870 1380q0 52 38.5 88.5t90.5 36.5q42 0 68.5 -27t26.5 -67q0 -50 -39.5 -86.5t-91.5 -36.5q-41 0 -67 26t-26 66z" />
<glyph unicode="&#xe5;" d="M90 473q0 182 81 334t222 240t309 88q84 0 161.5 -33t166.5 -125l45 135h139l-141 -809q-16 -91 6.5 -127.5t77.5 -36.5q29 0 62 13l-23 -127q-82 -39 -147 -39q-66 0 -104 42.5t-36 108.5q-197 -164 -389 -164q-134 0 -233 67.5t-148 179.5t-49 253zM258 481 q0 -73 18 -135t53.5 -111t95.5 -76.5t138 -27.5q142 0 245.5 81t119.5 181l59 346q6 36 -11.5 77t-53.5 77t-97.5 60t-136.5 24q-129 0 -228.5 -70t-150.5 -182.5t-51 -243.5zM569 1419q0 90 62 153.5t157 63.5q83 0 134 -51t51 -129q0 -89 -63 -153t-158 -64q-83 0 -133 51 t-50 129zM651 1432q0 -45 28.5 -78t82.5 -33q57 0 92 36t35 87q0 45 -28.5 77.5t-82.5 32.5q-57 0 -92 -35.5t-35 -86.5z" />
<glyph unicode="&#xe6;" horiz-adv-x="1896" d="M72 233q0 71 28 136t85.5 122.5t159 97.5t235.5 52l159 14q68 6 105 52t37 124q0 73 -41 109.5t-146 36.5q-207 0 -336 -152l-114 90q86 105 211.5 162.5t277.5 57.5q228 0 289 -150q160 150 379 150q116 0 204 -46.5t138 -127t68 -186.5t1 -226l-4 -29h-845 q-4 -59 1.5 -111.5t24.5 -104.5t51 -89.5t86 -60.5t125 -23q112 0 206 52t157 139l141 -70q-90 -131 -229 -205t-299 -74q-275 0 -389 222v-5q-236 -217 -476 -217q-130 0 -210 67t-80 193zM246 258q0 -66 43.5 -102.5t128.5 -36.5q104 0 201.5 55t175.5 148q-16 98 -2 196 q-173 -4 -254 -14q-134 -17 -213.5 -85.5t-79.5 -160.5zM995 659h662q9 140 -66.5 229t-214.5 89q-136 0 -235.5 -87t-145.5 -231z" />
<glyph unicode="&#xe7;" horiz-adv-x="1169" d="M82 465q0 103 28 201.5t83.5 183t132 148.5t180 100.5t221.5 36.5q164 0 274.5 -68t165.5 -186l-153 -72q-77 168 -307 168q-113 0 -202.5 -42t-144 -112.5t-82.5 -157t-28 -182.5q0 -58 10.5 -108t35 -96t62.5 -78t96.5 -51t133.5 -19q126 0 220 51.5t153 139.5l143 -70 q-83 -129 -221.5 -204t-323.5 -75l-49 -82q67 -21 103 -51t36 -80q0 -73 -83.5 -116.5t-268.5 -65.5l2 78q102 12 150.5 36.5t48.5 67.5q0 31 -26 52t-81 41l82 127q-101 14 -177 58t-122 109.5t-69 145.5t-23 172z" />
<glyph unicode="&#xe8;" horiz-adv-x="1224" d="M82 461q0 -102 29.5 -189.5t86.5 -154.5t147.5 -105.5t205.5 -38.5q163 0 301.5 73.5t228.5 205.5l-141 70q-142 -191 -369 -191q-92 0 -158.5 33t-101 90t-48 123.5t-7.5 142.5h879l4 29q17 119 -1.5 224t-69.5 186t-144 128.5t-217 47.5q-109 0 -207.5 -36.5 t-173.5 -101t-130.5 -149.5t-84.5 -184.5t-29 -202.5zM281 659q48 144 152.5 231t250.5 87q147 0 227.5 -88t71.5 -230h-702zM563 1563h201l213 -289h-131z" />
<glyph unicode="&#xe9;" horiz-adv-x="1224" d="M82 461q0 -102 29.5 -189.5t86.5 -154.5t147.5 -105.5t205.5 -38.5q163 0 301.5 73.5t228.5 205.5l-141 70q-142 -191 -369 -191q-92 0 -158.5 33t-101 90t-48 123.5t-7.5 142.5h879l4 29q17 119 -1.5 224t-69.5 186t-144 128.5t-217 47.5q-109 0 -207.5 -36.5 t-173.5 -101t-130.5 -149.5t-84.5 -184.5t-29 -202.5zM281 659q48 144 152.5 231t250.5 87q147 0 227.5 -88t71.5 -230h-702zM539 1274l264 289h203l-334 -289h-133z" />
<glyph unicode="&#xea;" horiz-adv-x="1224" d="M82 461q0 -102 29.5 -189.5t86.5 -154.5t147.5 -105.5t205.5 -38.5q163 0 301.5 73.5t228.5 205.5l-141 70q-142 -191 -369 -191q-92 0 -158.5 33t-101 90t-48 123.5t-7.5 142.5h879l4 29q17 119 -1.5 224t-69.5 186t-144 128.5t-217 47.5q-109 0 -207.5 -36.5 t-173.5 -101t-130.5 -149.5t-84.5 -184.5t-29 -202.5zM281 659q48 144 152.5 231t250.5 87q147 0 227.5 -88t71.5 -230h-702zM451 1274l264 289h172l166 -289h-121l-139 186l-224 -186h-118z" />
<glyph unicode="&#xeb;" horiz-adv-x="1224" d="M82 461q0 -102 29.5 -189.5t86.5 -154.5t147.5 -105.5t205.5 -38.5q163 0 301.5 73.5t228.5 205.5l-141 70q-142 -191 -369 -191q-92 0 -158.5 33t-101 90t-48 123.5t-7.5 142.5h879l4 29q17 119 -1.5 224t-69.5 186t-144 128.5t-217 47.5q-109 0 -207.5 -36.5 t-173.5 -101t-130.5 -149.5t-84.5 -184.5t-29 -202.5zM281 659q48 144 152.5 231t250.5 87q147 0 227.5 -88t71.5 -230h-702zM438 1380q0 52 38.5 88.5t90.5 36.5q42 0 68.5 -27t26.5 -67q0 -50 -40 -86.5t-92 -36.5q-41 0 -66.5 26t-25.5 66zM874 1380q0 52 39 88.5 t91 36.5q42 0 68 -27t26 -67q0 -50 -39.5 -86.5t-91.5 -36.5q-41 0 -67 26t-26 66z" />
<glyph unicode="&#xec;" horiz-adv-x="505" d="M70 0h161l197 1112h-162zM188 1563h201l213 -289h-131z" />
<glyph unicode="&#xed;" horiz-adv-x="509" d="M70 0h161l197 1112h-162zM164 1274l264 289h203l-334 -289h-133z" />
<glyph unicode="&#xee;" horiz-adv-x="516" d="M70 0h161l197 1112h-162zM80 1274l264 289h172l166 -289h-121l-139 186l-223 -186h-119z" />
<glyph unicode="&#xef;" horiz-adv-x="522" d="M66 1380q0 52 38.5 88.5t90.5 36.5q42 0 68 -27t26 -67q0 -50 -39.5 -86.5t-91.5 -36.5q-41 0 -66.5 26t-25.5 66zM70 0h161l197 1112h-162zM502 1380q0 52 38.5 88.5t90.5 36.5q42 0 68 -27t26 -67q0 -50 -39.5 -86.5t-91.5 -36.5q-41 0 -66.5 26t-25.5 66z" />
<glyph unicode="&#xf0;" horiz-adv-x="1245" d="M98 422q0 165 84 312t228 236t309 89q194 0 299 -158q-46 252 -178 424l-281 -133l-35 100l242 115q-94 94 -238 180l86 94q168 -82 291 -208l318 149l34 -98l-280 -133q215 -275 215 -652q0 -182 -55 -331t-148 -244.5t-211 -147t-248 -51.5q-136 0 -236 64t-148 166 t-48 227zM264 440q0 -136 74 -226.5t219 -90.5q90 0 166.5 31.5t129 82.5t90 116.5t54.5 131.5t17 129q0 131 -76.5 209t-222.5 78q-108 0 -196 -39t-142.5 -104.5t-83.5 -147t-29 -170.5z" />
<glyph unicode="&#xf1;" horiz-adv-x="1261" d="M70 0l196 1112h137l-4 -141q119 89 216 126.5t194 37.5q180 0 269 -114t50 -345l-118 -676h-162l117 664q56 313 -209 313q-142 0 -260.5 -78.5t-133.5 -159.5l-131 -739h-161zM487 1294q26 91 79.5 148t125.5 57q56 0 123 -47q53 -37 82 -37q30 0 58.5 22.5t48.5 61.5 h88q-26 -90 -80.5 -147.5t-124.5 -57.5q-24 0 -48 8.5t-34 15t-37 23.5q-58 37 -90 37q-28 0 -55.5 -22t-47.5 -62h-88z" />
<glyph unicode="&#xf2;" horiz-adv-x="1316" d="M90 465q0 103 28 201.5t83.5 183t132 148.5t180 100.5t221.5 36.5q123 0 218.5 -40t154 -109.5t88 -158t29.5 -192.5q0 -101 -27 -197t-82 -180.5t-131 -148t-181 -100t-226 -36.5q-126 0 -221.5 39t-152.5 108.5t-85.5 156t-28.5 188.5zM258 483q0 -58 10.5 -108t35 -96 t62.5 -78t96.5 -51t133.5 -19q93 0 171 29t130.5 78t89.5 114t53.5 134.5t16.5 142.5q0 72 -17.5 132t-56 110t-107 78t-161.5 28q-113 0 -202.5 -42t-144 -112.5t-82.5 -157t-28 -182.5zM604 1563h201l213 -289h-131z" />
<glyph unicode="&#xf3;" horiz-adv-x="1316" d="M90 465q0 103 28 201.5t83.5 183t132 148.5t180 100.5t221.5 36.5q123 0 218.5 -40t154 -109.5t88 -158t29.5 -192.5q0 -101 -27 -197t-82 -180.5t-131 -148t-181 -100t-226 -36.5q-126 0 -221.5 39t-152.5 108.5t-85.5 156t-28.5 188.5zM258 483q0 -58 10.5 -108t35 -96 t62.5 -78t96.5 -51t133.5 -19q93 0 171 29t130.5 78t89.5 114t53.5 134.5t16.5 142.5q0 72 -17.5 132t-56 110t-107 78t-161.5 28q-113 0 -202.5 -42t-144 -112.5t-82.5 -157t-28 -182.5zM578 1274l264 289h202l-333 -289h-133z" />
<glyph unicode="&#xf4;" horiz-adv-x="1316" d="M90 465q0 103 28 201.5t83.5 183t132 148.5t180 100.5t221.5 36.5q123 0 218.5 -40t154 -109.5t88 -158t29.5 -192.5q0 -101 -27 -197t-82 -180.5t-131 -148t-181 -100t-226 -36.5q-126 0 -221.5 39t-152.5 108.5t-85.5 156t-28.5 188.5zM258 483q0 -58 10.5 -108t35 -96 t62.5 -78t96.5 -51t133.5 -19q93 0 171 29t130.5 78t89.5 114t53.5 134.5t16.5 142.5q0 72 -17.5 132t-56 110t-107 78t-161.5 28q-113 0 -202.5 -42t-144 -112.5t-82.5 -157t-28 -182.5zM492 1274l264 289h172l166 -289h-121l-139 186l-224 -186h-118z" />
<glyph unicode="&#xf5;" horiz-adv-x="1316" d="M90 465q0 103 28 201.5t83.5 183t132 148.5t180 100.5t221.5 36.5q123 0 218.5 -40t154 -109.5t88 -158t29.5 -192.5q0 -101 -27 -197t-82 -180.5t-131 -148t-181 -100t-226 -36.5q-126 0 -221.5 39t-152.5 108.5t-85.5 156t-28.5 188.5zM258 483q0 -58 10.5 -108t35 -96 t62.5 -78t96.5 -51t133.5 -19q93 0 171 29t130.5 78t89.5 114t53.5 134.5t16.5 142.5q0 72 -17.5 132t-56 110t-107 78t-161.5 28q-113 0 -202.5 -42t-144 -112.5t-82.5 -157t-28 -182.5zM506 1294q26 91 79.5 148t125.5 57q56 0 123 -47q53 -37 81 -37q30 0 58.5 22.5 t48.5 61.5h88q-26 -90 -80.5 -147.5t-124.5 -57.5q-24 0 -48 8.5t-34 15t-37 23.5q-58 37 -90 37q-59 0 -102 -84h-88z" />
<glyph unicode="&#xf6;" horiz-adv-x="1316" d="M90 465q0 103 28 201.5t83.5 183t132 148.5t180 100.5t221.5 36.5q123 0 218.5 -40t154 -109.5t88 -158t29.5 -192.5q0 -101 -27 -197t-82 -180.5t-131 -148t-181 -100t-226 -36.5q-126 0 -221.5 39t-152.5 108.5t-85.5 156t-28.5 188.5zM258 483q0 -58 10.5 -108t35 -96 t62.5 -78t96.5 -51t133.5 -19q93 0 171 29t130.5 78t89.5 114t53.5 134.5t16.5 142.5q0 72 -17.5 132t-56 110t-107 78t-161.5 28q-113 0 -202.5 -42t-144 -112.5t-82.5 -157t-28 -182.5zM477 1380q0 52 38.5 88.5t90.5 36.5q42 0 68 -27t26 -67q0 -50 -39.5 -86.5 t-91.5 -36.5q-41 0 -66.5 26t-25.5 66zM913 1380q0 52 38.5 88.5t90.5 36.5q42 0 68.5 -27t26.5 -67q0 -50 -39.5 -86.5t-91.5 -36.5q-41 0 -67 26t-26 66z" />
<glyph unicode="&#xf7;" horiz-adv-x="974" d="M109 586l28 166h789l-29 -166h-788zM346 352q0 54 42 92.5t97 38.5q44 0 70.5 -27t26.5 -69q0 -55 -40.5 -93t-95.5 -38q-44 0 -72 27t-28 69zM453 950q0 54 41 91.5t96 37.5q44 0 71 -26t27 -68q0 -55 -41 -94t-94 -39q-44 0 -72 27.5t-28 70.5z" />
<glyph unicode="&#xf8;" horiz-adv-x="1224" d="M0 -4l145 145q-96 124 -96 324q0 103 28 201.5t83.5 183t132 148.5t180 100.5t221.5 36.5q205 0 330 -109l141 141l68 -57l-148 -149q99 -132 99 -326q0 -101 -27 -197t-82 -180.5t-131 -148t-181 -100t-226 -36.5q-208 0 -332 105l-133 -135zM217 483q0 -133 51 -217 l637 639q-85 72 -231 72q-113 0 -202.5 -42t-144 -112.5t-82.5 -157t-28 -182.5zM328 199q81 -68 227 -68q93 0 171 29t130.5 78t89.5 114t53.5 134.5t16.5 142.5q0 130 -51 211z" />
<glyph unicode="&#xf9;" horiz-adv-x="1251" d="M141 436l117 676h162l-117 -663q-14 -65 -8.5 -122.5t26 -101t69 -69t120.5 -25.5q137 0 248.5 79.5t126.5 162.5l131 739h162l-197 -1112h-137l4 141q-115 -91 -206.5 -129.5t-186.5 -38.5q-176 0 -264.5 116t-49.5 347zM557 1563h201l213 -289h-131z" />
<glyph unicode="&#xfa;" horiz-adv-x="1251" d="M141 436l117 676h162l-117 -663q-14 -65 -8.5 -122.5t26 -101t69 -69t120.5 -25.5q137 0 248.5 79.5t126.5 162.5l131 739h162l-197 -1112h-137l4 141q-115 -91 -206.5 -129.5t-186.5 -38.5q-176 0 -264.5 116t-49.5 347zM530 1274l265 289h202l-333 -289h-134z" />
<glyph unicode="&#xfb;" horiz-adv-x="1251" d="M141 436l117 676h162l-117 -663q-14 -65 -8.5 -122.5t26 -101t69 -69t120.5 -25.5q137 0 248.5 79.5t126.5 162.5l131 739h162l-197 -1112h-137l4 141q-115 -91 -206.5 -129.5t-186.5 -38.5q-176 0 -264.5 116t-49.5 347zM440 1274l265 289h172l165 -289h-120l-140 186 l-223 -186h-119z" />
<glyph unicode="&#xfc;" horiz-adv-x="1251" d="M141 436l117 676h162l-117 -663q-14 -65 -8.5 -122.5t26 -101t69 -69t120.5 -25.5q137 0 248.5 79.5t126.5 162.5l131 739h162l-197 -1112h-137l4 141q-115 -91 -206.5 -129.5t-186.5 -38.5q-176 0 -264.5 116t-49.5 347zM430 1380q0 52 38.5 88.5t90.5 36.5q42 0 68 -27 t26 -67q0 -50 -39.5 -86.5t-91.5 -36.5q-41 0 -66.5 26t-25.5 66zM866 1380q0 52 38.5 88.5t90.5 36.5q42 0 68.5 -27t26.5 -67q0 -50 -40 -86.5t-92 -36.5q-41 0 -66.5 26t-25.5 66z" />
<glyph unicode="&#xfd;" horiz-adv-x="892" d="M-115 -430l301 516l-231 1026h162l178 -842l493 842h170l-905 -1542h-168zM246 1274l264 289h203l-334 -289h-133z" />
<glyph unicode="&#xfe;" horiz-adv-x="1331" d="M-20 -430l352 1993h162l-107 -590q200 162 397 162q142 0 247.5 -68.5t157.5 -181t52 -252.5q0 -101 -27.5 -197.5t-82.5 -180t-130.5 -146.5t-178.5 -99.5t-220 -36.5q-91 0 -178 32.5t-184 125.5l-99 -561h-161zM283 369q-7 -39 14 -80.5t63.5 -76.5t112 -58t150.5 -23 q112 0 200.5 42.5t141.5 113.5t80.5 156.5t27.5 177.5q0 157 -79 256.5t-242 99.5q-153 0 -273.5 -83t-136.5 -179z" />
<glyph unicode="&#xff;" horiz-adv-x="892" d="M-115 -430l301 516l-231 1026h162l178 -842l493 842h170l-905 -1542h-168zM152 1380q0 52 38.5 88.5t90.5 36.5q42 0 68 -27t26 -67q0 -50 -39.5 -86.5t-91.5 -36.5q-41 0 -66.5 26t-25.5 66zM588 1380q0 52 38.5 88.5t90.5 36.5q42 0 68 -27t26 -67q0 -50 -39.5 -86.5 t-91.5 -36.5q-41 0 -66.5 26t-25.5 66z" />
<glyph unicode="&#x152;" horiz-adv-x="2422" d="M137 662q0 174 67 339t181.5 290.5t278 201.5t344.5 76q189 0 333 -83t226 -226l49 280h852l-31 -166h-680l-90 -500h621l-29 -165h-621l-94 -543h723l-31 -166h-893l37 207q-115 -110 -261 -172t-314 -62q-161 0 -290.5 56.5t-210.5 153t-124 219.5t-43 260zM315 653 q0 -105 26.5 -195.5t82 -166t153 -119t228.5 -43.5t244 45.5t192 121t135.5 174.5t83.5 206.5t27 216.5q0 107 -27.5 198.5t-83 164.5t-150 115t-218.5 42q-127 0 -239 -42.5t-194 -115.5t-141.5 -169.5t-89 -207t-29.5 -225.5z" />
<glyph unicode="&#x153;" horiz-adv-x="2115" d="M90 465q0 129 45.5 249.5t126 214t202 150t263.5 56.5q298 0 408 -246q81 115 201.5 180.5t267.5 65.5q122 0 213.5 -47.5t143 -128.5t70 -186t1.5 -224l-4 -29h-859q-6 -77 6.5 -143t45 -123t95.5 -90t152 -33q113 0 206 51t159 140l141 -70q-90 -131 -228.5 -205 t-297.5 -74q-148 0 -248 62.5t-149 173.5q-81 -110 -202 -173t-278 -63q-122 0 -216 39.5t-151 108t-85.5 155.5t-28.5 189zM258 483q0 -73 18 -134t55 -111t103 -78.5t154 -28.5q110 0 195.5 44.5t134.5 118t73.5 159t24.5 178.5q0 72 -15.5 131t-49.5 109t-97.5 78 t-151.5 28q-107 0 -193.5 -42t-140 -112.5t-82 -157.5t-28.5 -182zM1194 659h682q9 141 -71.5 229.5t-225.5 88.5q-142 0 -241 -87t-144 -231z" />
<glyph unicode="&#x178;" horiz-adv-x="1191" d="M190 1540h189l270 -733l504 733h186l-632 -915l-111 -625h-170l111 625zM494 1784q0 52 38.5 88.5t90.5 36.5q42 0 68 -27t26 -67q0 -50 -39.5 -86.5t-91.5 -36.5q-41 0 -66.5 26t-25.5 66zM930 1784q0 52 38.5 88.5t90.5 36.5q42 0 68 -27t26 -67q0 -50 -39.5 -86.5 t-91.5 -36.5q-41 0 -66.5 26t-25.5 66z" />
<glyph unicode="&#x2c6;" horiz-adv-x="1341" d="M610 1274l264 289h173l165 -289h-120l-140 186l-223 -186h-119z" />
<glyph unicode="&#x2dc;" horiz-adv-x="1226" d="M543 1298q26 91 79.5 148t125.5 57q55 0 122 -47q53 -37 82 -37q30 0 58.5 22.5t48.5 61.5h88q-26 -90 -80.5 -147.5t-124.5 -57.5q-8 0 -16 0.5t-16 3t-13.5 4t-13.5 5.5t-12.5 5.5t-13 7t-11 7t-12 8t-11.5 7.5q-56 36 -90 36q-59 0 -102 -84h-88z" />
<glyph unicode="&#x2000;" horiz-adv-x="1008" />
<glyph unicode="&#x2001;" horiz-adv-x="2017" />
<glyph unicode="&#x2002;" horiz-adv-x="1008" />
<glyph unicode="&#x2003;" horiz-adv-x="2017" />
<glyph unicode="&#x2004;" horiz-adv-x="672" />
<glyph unicode="&#x2005;" horiz-adv-x="504" />
<glyph unicode="&#x2006;" horiz-adv-x="336" />
<glyph unicode="&#x2007;" horiz-adv-x="336" />
<glyph unicode="&#x2008;" horiz-adv-x="252" />
<glyph unicode="&#x2009;" horiz-adv-x="403" />
<glyph unicode="&#x200a;" horiz-adv-x="112" />
<glyph unicode="&#x2010;" horiz-adv-x="759" d="M78 582l28 166h580l-29 -166h-579z" />
<glyph unicode="&#x2011;" horiz-adv-x="759" d="M78 582l28 166h580l-29 -166h-579z" />
<glyph unicode="&#x2012;" horiz-adv-x="759" d="M78 582l28 166h580l-29 -166h-579z" />
<glyph unicode="&#x2013;" horiz-adv-x="1089" d="M78 582l28 166h904l-29 -166h-903z" />
<glyph unicode="&#x2014;" horiz-adv-x="1548" d="M78 582l28 166h1364l-28 -166h-1364z" />
<glyph unicode="&#x2018;" horiz-adv-x="546" d="M252 1243q0 90 92.5 192t233.5 140l-13 -68q-48 -13 -93.5 -45t-76.5 -80q49 -3 79 -34t30 -74q0 -56 -45.5 -96.5t-100.5 -40.5q-44 0 -75 28t-31 78z" />
<glyph unicode="&#x2019;" horiz-adv-x="544" d="M254 1139l12 67q48 13 93.5 45t76.5 80q-49 3 -78.5 34.5t-29.5 74.5q0 57 45 97t100 40q44 0 75.5 -28.5t31.5 -78.5q0 -90 -92.5 -191.5t-233.5 -139.5z" />
<glyph unicode="&#x201a;" horiz-adv-x="542" d="M-16 -219l12 67q48 13 93.5 45t76.5 80q-49 3 -79 34.5t-30 74.5q0 56 45.5 96.5t100.5 40.5q44 0 75 -28t31 -78q0 -90 -92 -192t-233 -140z" />
<glyph unicode="&#x201c;" horiz-adv-x="886" d="M252 1243q0 90 92.5 192t233.5 140l-13 -68q-48 -13 -93.5 -45t-76.5 -80q49 -3 79 -34t30 -74q0 -56 -45.5 -96.5t-100.5 -40.5q-44 0 -75 28t-31 78zM592 1243q0 90 92.5 192t233.5 140l-13 -68q-48 -13 -93.5 -45t-76.5 -80q49 -3 79 -34t30 -74q0 -56 -45.5 -96.5 t-100.5 -40.5q-44 0 -75 28t-31 78z" />
<glyph unicode="&#x201d;" horiz-adv-x="884" d="M254 1139l12 67q48 13 93.5 45t76.5 80q-49 3 -78.5 34.5t-29.5 74.5q0 57 45 97t100 40q44 0 75.5 -28.5t31.5 -78.5q0 -90 -92.5 -191.5t-233.5 -139.5zM594 1139l12 67q48 13 93.5 45t76.5 80q-49 3 -78.5 34.5t-29.5 74.5q0 57 45 97t100 40q44 0 75.5 -28.5 t31.5 -78.5q0 -90 -92.5 -191.5t-233.5 -139.5z" />
<glyph unicode="&#x201e;" horiz-adv-x="614" d="M-16 -219l12 67q48 13 93.5 45t76.5 80q-49 3 -79 34.5t-30 74.5q0 56 45.5 96.5t100.5 40.5q44 0 75 -28t31 -78q0 -90 -92 -192t-233 -140zM324 -219l12 67q48 13 93.5 45t76.5 80q-49 3 -79 34.5t-30 74.5q0 56 45.5 96.5t100.5 40.5q44 0 75 -28t31 -78 q0 -90 -92 -192t-233 -140z" />
<glyph unicode="&#x2022;" horiz-adv-x="647" d="M94 602q0 107 84.5 186.5t190.5 79.5q87 0 141.5 -56t54.5 -142q0 -107 -84.5 -183.5t-189.5 -76.5q-87 0 -142 54t-55 138z" />
<glyph unicode="&#x2026;" horiz-adv-x="1576" d="M190 78q0 57 45.5 99t102.5 42q47 0 76.5 -29.5t29.5 -74.5q0 -58 -43.5 -100t-101.5 -42q-47 0 -78 30t-31 75zM635 78q0 57 45 99t102 42q47 0 77 -29.5t30 -74.5q0 -58 -44 -100t-102 -42q-47 0 -77.5 30t-30.5 75zM1079 78q0 57 45.5 99t102.5 42q47 0 76.5 -29.5 t29.5 -74.5q0 -58 -43.5 -100t-101.5 -42q-47 0 -78 30t-31 75z" />
<glyph unicode="&#x202f;" horiz-adv-x="403" />
<glyph unicode="&#x2039;" horiz-adv-x="651" d="M92 563l10 58l435 374l77 -75l-356 -340l225 -324l-88 -66z" />
<glyph unicode="&#x203a;" horiz-adv-x="649" d="M51 266l357 338l-226 326l88 65l303 -374l-10 -58l-434 -373z" />
<glyph unicode="&#x205f;" horiz-adv-x="504" />
<glyph unicode="&#x20ac;" horiz-adv-x="1269" d="M45 567l21 115h145q6 76 25 164h-142l21 115h153q40 126 105.5 234.5t150.5 193t193.5 132.5t226.5 48q124 0 225 -50.5t174 -134.5l-114 -94q-105 117 -275 117q-183 0 -318.5 -123.5t-205.5 -322.5h619l-37 -115h-615q-15 -66 -22 -164h583l-36 -115h-549 q3 -64 13 -121t34.5 -115.5t61 -100.5t96 -68.5t135.5 -26.5q86 0 181 35t179 109l90 -119q-102 -86 -233.5 -136.5t-249.5 -50.5q-145 0 -252 80.5t-161 213t-58 300.5h-164z" />
<glyph unicode="&#x2122;" horiz-adv-x="1398" d="M176 1446l19 94h516l-19 -94h-209l-108 -625h-101l107 625h-205zM692 821l127 719h127l113 -567l311 567h133l-127 -719h-98l90 525q-61 -113 -291 -525h-84l-106 527l-94 -527h-101z" />
<glyph unicode="&#x25fc;" horiz-adv-x="1116" d="M0 0v1116h1116v-1116h-1116z" />
<glyph unicode="&#xfb01;" horiz-adv-x="1058" d="M98 0l170 963h-157l26 149h158l14 80q36 196 139 290.5t289 94.5h31l-29 -158h-28q-62 0 -105.5 -17t-70 -51t-41.5 -73t-25 -96l-12 -70h536l-196 -1112h-162l170 963h-375l-170 -963h-162zM850 1407q0 53 41 93t94 40q44 0 72 -29t28 -71q0 -53 -42.5 -92t-96.5 -39 q-42 0 -69 28t-27 70z" />
<glyph unicode="&#xfb02;" horiz-adv-x="1069" d="M98 0l170 963h-157l26 149h158l14 80q36 196 139 290.5t289 94.5h336l-225 -1286q-17 -96 9 -130t85 -34q35 0 59 6l-22 -127q-75 -33 -131 -33q-99 0 -145.5 74t-18.5 234l199 1138h-172q-62 0 -105.5 -17t-70 -51t-41.5 -73t-25 -96l-12 -70h209l-27 -149h-209 l-170 -963h-162z" />
<glyph unicode="&#xfb03;" horiz-adv-x="1595" d="M98 0l170 963h-157l26 149h158l14 80q36 196 139 290.5t289 94.5h72l-29 -158h-69q-62 0 -105.5 -17t-70 -51t-41.5 -73t-25 -96l-12 -70h374l15 80q36 196 139 290.5t289 94.5h31l-29 -158h-29q-62 0 -105.5 -17t-70 -51t-41 -73t-24.5 -96l-13 -70h537l-197 -1112h-162 l170 963h-374l-170 -963h-162l170 963h-375l-170 -963h-162zM1386 1407q0 53 41.5 93t94.5 40q44 0 72 -29t28 -71q0 -53 -42.5 -92t-96.5 -39q-42 0 -69.5 28t-27.5 70z" />
<glyph unicode="&#xfb04;" horiz-adv-x="1605" d="M98 0l170 963h-157l26 149h158l14 80q36 196 139 290.5t289 94.5h72l-29 -158h-69q-62 0 -105.5 -17t-70 -51t-41.5 -73t-25 -96l-12 -70h374l15 80q36 196 139 290.5t289 94.5h336l-226 -1286q-17 -96 9.5 -130t85.5 -34q35 0 59 6l-22 -127q-75 -33 -132 -33 q-99 0 -145 74t-18 234l198 1138h-172q-62 0 -105.5 -17t-70 -51t-41 -73t-24.5 -96l-13 -70h209l-26 -149h-209l-170 -963h-162l170 963h-375l-170 -963h-162z" />
</font>
</defs>
</svg>
