<?xml version="1.0" encoding="utf-8"?>
<!-- Generator: Adobe Illustrator 18.1.1, SVG Export Plug-In . SVG Version: 6.00 Build 0)  -->
<svg version="1.1" xmlns="http://www.w3.org/2000/svg" xmlns:xlink="http://www.w3.org/1999/xlink" x="0px" y="0px"
	 viewBox="0 0 33.998 34" enable-background="new 0 0 33.998 34" xml:space="preserve">
<g id="Layer_1" display="none">
</g>
<g id="Layer_7" display="none">
</g>
<g id="Layer_6" display="none">
</g>
<g id="Layer_6_copy" display="none">
</g>
<g id="Layer_3" display="none">
</g>
<g id="Layer_3_copy" display="none">
</g>
<g id="Layer_5" display="none">
</g>
<g id="Layer_4" display="none">
</g>
<g id="Layer_2">
</g>
<g id="Layer_10" display="none">
</g>
<g id="Layer_11">
	<path d="M16.999,0.625C7.955,0.625,0.624,7.956,0.624,17c0,9.044,7.331,16.375,16.375,16.375c9.044,0,16.375-7.331,16.375-16.375
		C33.374,7.956,26.043,0.625,16.999,0.625z M16.999,31.651c-8.092,0-14.651-6.56-14.651-14.651c0-8.092,6.56-14.651,14.651-14.651
		c8.092,0,14.651,6.56,14.651,14.651C31.651,25.092,25.091,31.651,16.999,31.651z"/>
	<g>
		<path d="M22.132,10.677c0,1.14-0.319,2.071-0.958,2.796c-0.64,0.724-1.545,1.208-2.717,1.452v0.098
			c1.433,0.179,2.495,0.635,3.187,1.367s1.038,1.692,1.038,2.881c0,1.701-0.591,3.009-1.771,3.925
			c-1.18,0.915-2.856,1.373-5.029,1.373c-0.944,0-1.809-0.071-2.594-0.214c-0.786-0.142-1.549-0.393-2.289-0.751v-1.928
			c0.773,0.382,1.597,0.673,2.472,0.872c0.875,0.2,1.703,0.3,2.484,0.3c3.084,0,4.627-1.209,4.627-3.626
			c0-2.165-1.701-3.247-5.104-3.247h-1.758v-1.746h1.783c1.391,0,2.494-0.307,3.308-0.921s1.221-1.467,1.221-2.558
			c0-0.871-0.299-1.555-0.897-2.051c-0.598-0.496-1.41-0.744-2.436-0.744c-0.781,0-1.518,0.105-2.209,0.316
			c-0.691,0.212-1.481,0.603-2.368,1.172l-1.025-1.367c0.732-0.577,1.576-1.031,2.533-1.36c0.956-0.33,1.963-0.495,3.021-0.495
			c1.734,0,3.081,0.397,4.041,1.19C21.652,8.205,22.132,9.293,22.132,10.677z"/>
	</g>
</g>
</svg>
