<?xml version="1.0" encoding="utf-8"?>
<!-- Generator: Adobe Illustrator 18.1.1, SVG Export Plug-In . SVG Version: 6.00 Build 0)  -->
<svg version="1.1" xmlns="http://www.w3.org/2000/svg" xmlns:xlink="http://www.w3.org/1999/xlink" x="0px" y="0px"
	 viewBox="0 0 33.998 34" enable-background="new 0 0 33.998 34" xml:space="preserve">
<g id="Layer_1" display="none">
</g>
<g id="Layer_7" display="none">
</g>
<g id="Layer_6" display="none">
</g>
<g id="Layer_6_copy" display="none">
</g>
<g id="Layer_3" display="none">
</g>
<g id="Layer_3_copy" display="none">
</g>
<g id="Layer_5" display="none">
</g>
<g id="Layer_4" display="none">
</g>
<g id="Layer_2">
</g>
<g id="Layer_10" display="none">
</g>
<g id="Layer_11">
	<path d="M16.999,0.625C7.955,0.625,0.624,7.956,0.624,17c0,9.044,7.331,16.375,16.375,16.375c9.044,0,16.375-7.331,16.375-16.375
		C33.374,7.956,26.043,0.625,16.999,0.625z M16.999,31.651c-8.092,0-14.651-6.56-14.651-14.651c0-8.092,6.56-14.651,14.651-14.651
		c8.092,0,14.651,6.56,14.651,14.651C31.651,25.092,25.091,31.651,16.999,31.651z"/>
	<g>
		<path d="M18.58,24.324h-1.979v-12.72c0-1.058,0.033-2.059,0.098-3.003c-0.17,0.171-0.361,0.35-0.573,0.537s-1.18,0.98-2.905,2.381
			l-1.074-1.393l4.725-3.649h1.709V24.324z"/>
	</g>
</g>
</svg>
