<?xml version="1.0" encoding="utf-8"?>
<!-- Generator: Adobe Illustrator 18.1.1, SVG Export Plug-In . SVG Version: 6.00 Build 0)  -->
<svg version="1.1" id="Layer_1" xmlns="http://www.w3.org/2000/svg" xmlns:xlink="http://www.w3.org/1999/xlink" x="0px" y="0px"
	 viewBox="0 0 36.005 40" enable-background="new 0 0 36.005 40" xml:space="preserve">
<g>
	<path d="M34.599,40c-1.333,0-2.667,0-4,0c-1.683-3.304-4.263-4.636-8.042-4.27c-3.275,0.317-6.636,0.348-9.903-0.008
		C8.823,35.305,6.346,36.808,4.599,40c-1.333,0-2.667,0-4,0c2.203-3.217,4.406-6.435,5.883-8.59
		c-1.076-2.163-2.361-3.597-2.427-5.085c-0.249-5.611,0.13-11.251-0.177-16.856C3.647,5.232,5.026,2.161,8.599,0c6,0,12,0,18,0
		c3.609,2.164,5.098,5.248,4.751,9.522c-0.309,3.802,0.113,7.661-0.151,11.47c-0.107,1.547-1.176,3.027-1.807,4.538
		c-0.592-1.495-1.63-2.972-1.694-4.489c-0.214-5.116-0.081-10.247-0.081-15.372c-1.796,1.49-2.602,2.968-2.887,4.539
		c-0.751,4.142-2.522,5.948-7.265,5.975c-4.672,0.026-6.049-2.035-6.921-5.774c-0.397-1.704-1.216-3.31-1.844-4.96
		C8.422,5.581,8.144,5.712,7.867,5.844c0,6.589,0,13.177,0,20.252c4.394,0,8.515-0.077,12.631,0.043
		c1.412,0.041,3.376,0.096,4.116,0.968C28.127,31.249,31.303,35.675,34.599,40z M23.158,4.326c-4.011,0-7.202,0-11.127,0
		c2.359,2.93,0.333,8.073,5.613,8.003C22.758,12.262,21.119,7.277,23.158,4.326z"/>
</g>
</svg>
